<?xml version="1.0" encoding="utf-8"?>
<!-- Generator: Adobe Illustrator 25.2.3, SVG Export Plug-In . SVG Version: 6.00 Build 0)  -->
<svg version="1.1" id="Layer_1" xmlns="http://www.w3.org/2000/svg" xmlns:xlink="http://www.w3.org/1999/xlink" x="0px" y="0px"
	 viewBox="0 0 48.5 45.1" style="enable-background:new 0 0 48.5 45.1;" xml:space="preserve">
<g>
	<g>
		<path d="M44.5,4.2C42,1.5,38.5,0,34.8,0c-3.7,0-7.2,1.5-9.7,4.2l-0.9,0.9l-0.9-0.9C18.4-1.1,10-1.4,4.7,3.5C4.4,3.8,4.2,4,4,4.2
			c-5.3,5.7-5.3,14.5,0,20.2l19,20.1c0.7,0.7,1.8,0.7,2.4,0.1c0,0,0,0,0.1-0.1l19-20.1C49.8,18.7,49.8,9.9,44.5,4.2z M42,22.1
			L42,22.1L24.2,40.8L6.5,22.1c-4-4.4-4-11.1,0-15.4c3.7-4,9.9-4.2,13.8-0.6c0.2,0.2,0.4,0.4,0.6,0.6L23,8.8c0.7,0.7,1.8,0.7,2.5,0
			l2.1-2.2c3.7-4,9.9-4.2,13.8-0.6c0.2,0.2,0.4,0.4,0.6,0.6C46.1,11,46.1,17.7,42,22.1z"/>
	</g>
</g>
</svg>
