<?xml version="1.0" encoding="utf-8"?>
<!-- Generator: Adobe Illustrator 25.2.3, SVG Export Plug-In . SVG Version: 6.00 Build 0)  -->
<svg version="1.1" id="Layer_1" xmlns="http://www.w3.org/2000/svg" xmlns:xlink="http://www.w3.org/1999/xlink" x="0px" y="0px"
	 viewBox="0 0 38.6 45.1" style="enable-background:new 0 0 38.6 45.1;" xml:space="preserve">
<style type="text/css">
	.st0{fill:#FF7E7E;}
</style>
<g id="_x33_uWpv2.tif">
	<g>
		<path class="st0" d="M9.9,21.7c-5.3-5.9-4.1-14.2,1-18.6c4.9-4.2,12.4-4.3,17.4,0.5c4.6,4.5,5.6,12.3,0.5,18c0,0,0.1,0.1,0.1,0.1
			c3.9,2.3,6.3,5.7,7.9,9.8c1.4,3.8,1.9,7.8,1.9,11.8c0,1-0.7,1.6-1.8,1.6c-4.5,0-9,0-13.5,0c-7.1,0-14.3,0-21.4,0
			c-1.4,0-2-0.6-2-1.9c0-4.1,0.5-8.2,2.1-12C3.6,27.2,6,24,9.7,21.8C9.7,21.8,9.8,21.7,9.9,21.7z M35.4,41.8
			c-0.2-3.5-0.7-6.9-2-10.1c-1.4-3.3-3.6-6-7-7.6c-0.3-0.1-0.5-0.2-0.8,0c-4.1,2.2-8.3,2.2-12.4,0c-0.2-0.1-0.6-0.1-0.8,0
			c-2.3,1-4.1,2.7-5.5,4.7c-1.9,2.8-2.8,6-3.2,9.4c-0.2,1.2-0.2,2.4-0.4,3.6C14,41.8,24.6,41.8,35.4,41.8z M19.3,22.5
			c5.3,0,9.7-4.3,9.7-9.6c0-5.3-4.3-9.7-9.7-9.7c-5.2,0-9.6,4.3-9.6,9.6C9.6,18.1,14,22.5,19.3,22.5z"/>
	</g>
</g>
</svg>
