<?xml version="1.0" encoding="utf-8"?>
<!-- Generator: Adobe Illustrator 25.2.3, SVG Export Plug-In . SVG Version: 6.00 Build 0)  -->
<svg version="1.1" id="Layer_1" xmlns="http://www.w3.org/2000/svg" xmlns:xlink="http://www.w3.org/1999/xlink" x="0px" y="0px"
	 viewBox="0 0 223 256" style="enable-background:new 0 0 223 256;" xml:space="preserve">
<style type="text/css">
	.st0{fill:#FFFFFF;}
</style>
<g>
	<path class="st0" d="M0,127.9c0,28.9,0,57.8,0,86.7c0,2.9,0.2,5.9,0.7,8.7c3.8,19.4,20,32.6,39.8,32.6c37.2,0,74.3,0,111.5,0
		c0.7,0,1.3,0,2,0c6.1-0.4,10.9-5.4,11-11.5c0.2-7.2-5.1-12.5-12.6-12.5c-36.8,0-73.7,0-110.5,0c-11.5,0-18-6.4-18-17.9
		c0-31.7,0-63.5,0-95.2c0-25.8,0-51.7,0-77.5c0-4.1,0.9-7.9,3.5-11.2c3.5-4.4,8.2-6.2,13.8-6.2c36.7,0,73.3,0,110,0
		c1.3,0,2.7,0,4-0.2c6.3-1.2,10.3-6.6,9.7-13.1C164.5,4.7,159.4,0,153,0C115,0,77,0,39,0c-2.2,0-4.5,0.3-6.7,0.7
		C13.1,4.8,0,20.8,0,40.4C0,69.6,0,98.8,0,127.9z M181.8,116c-1.4,0-2.3,0-3.2,0c-18.6,0-37.2,0-55.7,0c-11.7,0-23.5,0-35.2,0
		c-7.3,0-12.7,5.9-12.1,13c0.5,6.4,5.8,11,12.6,11c30.2,0,60.3,0,90.5,0c0.9,0,1.8,0,2.8,0c0.1,0.3,0.2,0.5,0.3,0.8
		c-0.7,0.6-1.5,1.1-2.2,1.7c-11.2,11.2-22.4,22.4-33.6,33.6c-3.3,3.3-4.8,7.2-3.6,11.8c2.3,9.4,13.5,12.2,20.5,5.2
		c18.8-18.7,37.5-37.4,56.2-56.2c5.4-5.4,5.4-12.4-0.1-17.9c-8-8.1-16.1-16.2-24.2-24.2c-10.7-10.7-21.3-21.3-32-32
		c-4.7-4.7-11.1-5.2-16.1-1.5c-5.9,4.5-6.4,12.9-0.9,18.4c11.3,11.3,22.6,22.6,33.9,33.9C180.3,114.3,180.8,114.9,181.8,116z"/>
	<path d="M0,127.9c0-29.2,0-58.3,0-87.5C0,20.8,13.1,4.8,32.3,0.8C34.5,0.3,36.7,0,39,0C77,0,115,0,153,0c6.4,0,11.6,4.6,12.1,10.7
		c0.5,6.5-3.4,11.9-9.7,13.1c-1.3,0.2-2.7,0.2-4,0.2c-36.7,0-73.3,0-110,0c-5.6,0-10.3,1.7-13.8,6.2c-2.6,3.3-3.5,7.1-3.5,11.2
		c0,25.8,0,51.7,0,77.5c0,31.7,0,63.5,0,95.2c0,11.5,6.4,17.9,18,17.9c36.8,0,73.7,0,110.5,0c7.5,0,12.8,5.3,12.6,12.5
		c-0.2,6.1-5,11.1-11,11.5c-0.7,0-1.3,0-2,0c-37.2,0-74.3,0-111.5,0c-19.8,0-36-13.2-39.8-32.6c-0.6-2.8-0.7-5.8-0.7-8.7
		C0,185.7,0,156.8,0,127.9z"/>
	<path d="M181.8,116c-1-1.1-1.6-1.7-2.2-2.3c-11.3-11.3-22.6-22.6-33.9-33.9c-5.5-5.5-5-13.9,0.9-18.4c5-3.7,11.4-3.2,16.1,1.5
		c10.7,10.6,21.3,21.3,32,32c8.1,8.1,16.2,16.1,24.2,24.2c5.5,5.5,5.5,12.5,0.1,17.9c-18.7,18.8-37.4,37.5-56.2,56.2
		c-7,7-18.2,4.1-20.5-5.2c-1.1-4.6,0.3-8.5,3.6-11.8c11.2-11.2,22.4-22.4,33.6-33.6c0.6-0.6,1.4-1.1,2.2-1.7
		c-0.1-0.3-0.2-0.5-0.3-0.8c-0.9,0-1.8,0-2.8,0c-30.2,0-60.3,0-90.5,0c-6.8,0-12.1-4.7-12.6-11c-0.6-7,4.9-12.9,12.1-13
		c11.7-0.1,23.5,0,35.2,0c18.6,0,37.2,0,55.7,0C179.5,116,180.4,116,181.8,116z"/>
</g>
</svg>
