<?xml version="1.0" encoding="utf-8"?>
<!-- Generator: Adobe Illustrator 25.2.3, SVG Export Plug-In . SVG Version: 6.00 Build 0)  -->
<svg version="1.1" id="Layer_1" xmlns="http://www.w3.org/2000/svg" xmlns:xlink="http://www.w3.org/1999/xlink" x="0px" y="0px"
	 viewBox="0 0 34.5 45.1" style="enable-background:new 0 0 34.5 45.1;" xml:space="preserve">
<style type="text/css">
	.st0{fill:#FF7E7E;}
</style>
<g>
	<path class="st0" d="M34.5,39.4c-0.3-7-1.1-22-1.3-23.8c-0.2-2.2-2-4-4.2-4.4c-0.7-0.1-1.5-0.1-2.3-0.2c0.2-2.9-0.4-5.6-2.3-7.8
		c-2-2.2-4.5-3.3-7.5-3.2c-5,0.1-10,4.7-9.2,11.1c-0.5,0-1,0-1.5,0c-2,0-3.9,1.3-4.6,3.2c-0.3,0.8-0.4,1.7-0.4,2.5
		C1,19.8,0.2,34,0,39.5C-0.1,42.7,2.1,45,5.4,45c7.9,0,15.8,0,23.6,0C32.3,45.1,34.6,42.7,34.5,39.4z M13.7,4.3
		c2.2-1.5,4.5-1.6,6.8-0.2c2.6,1.6,3.4,4.1,3.1,7c-4.2,0-8.4,0-12.6,0C10.7,8.3,11.3,5.9,13.7,4.3z M28.9,41.9c-7.8,0-15.6,0-23.4,0
		c-1.7,0-2.4-0.8-2.4-2.4C3.6,31.6,4.3,17,4.4,16.2c0.1-1.2,0.9-2,2.1-2c7.1,0,14.3,0,21.4,0c1.1,0,2,0.7,2.1,1.9
		c0.1,1.9,1,19.1,1.2,23.3C31.3,41.1,30.6,41.9,28.9,41.9z"/>
	<path class="st0" d="M9.9,16.2c-0.9,0-1.6,0.7-1.6,1.5c0,0.9,0.7,1.6,1.6,1.6c0.9,0,1.6-0.7,1.6-1.6C11.5,16.9,10.8,16.2,9.9,16.2z
		"/>
	<path class="st0" d="M24.6,16.2c-0.9,0-1.6,0.7-1.6,1.6c0,0.9,0.7,1.6,1.6,1.6c0.8,0,1.6-0.7,1.6-1.6
		C26.2,16.9,25.5,16.2,24.6,16.2z"/>
</g>
</svg>
