<?xml version="1.0" standalone="no"?>
<!DOCTYPE svg PUBLIC "-//W3C//DTD SVG 1.1//EN" "http://www.w3.org/Graphics/SVG/1.1/DTD/svg11.dtd" >
<svg xmlns="http://www.w3.org/2000/svg" xmlns:xlink="http://www.w3.org/1999/xlink" version="1.1">
<metadata>
Created by FontForge 20170731 at Fri Mar 12 16:17:04 2021
 By Aleksey,,,
Copyright 2013 The Antonio Project Authors (https://github.com/googlefonts/antonioFont)
</metadata>
<defs>
<font id="Antonio-Bold" horiz-adv-x="970" >
  <font-face 
    font-family="Antonio"
    font-weight="700"
    font-stretch="normal"
    units-per-em="2048"
    panose-1="0 0 0 0 0 0 0 0 0 0"
    ascent="1638"
    descent="-410"
    x-height="1500"
    cap-height="1760"
    bbox="-162 -689 2978 2365"
    underline-thickness="0"
    underline-position="0"
    unicode-range="U+0020-25CA"
  />
<missing-glyph horiz-adv-x="1054" 
d="M102 0v1760h850v-1760h-850zM204 102h646v1556h-646v-1556zM285 196v1369h129l229 -821l-12 373v448h148v-1369h-117l-235 850l9 -359v-491h-151z" />
    <glyph glyph-name="f_f" unicode="ff" horiz-adv-x="1274" 
d="M173 0v1250h-116v191h117v78q0 126 65 195.5t186 69.5q62 0 107.5 -9.5t57.5 -14.5v-167q-29 4 -60 4q-51 0 -71.5 -21t-20.5 -65v-70h373v78q0 126 65 195.5t186 69.5q62 0 107.5 -9.5t57.5 -14.5v-167q-29 4 -60 4q-51 0 -71.5 -21t-20.5 -65v-70h152v-191h-152v-1250
h-265v1250h-372v-1250h-265z" />
    <glyph glyph-name="f_f_i" unicode="ffi" horiz-adv-x="1808" 
d="M173 0v1309h-116v191h117v71q0 126 65 195.5t186 69.5q62 0 107.5 -10t57.5 -15v-166q-29 4 -60 4q-51 0 -71.5 -21t-20.5 -65v-63h373v71q0 126 65 195.5t186 69.5q62 0 107.5 -10t57.5 -15v-166q-29 4 -60 4q-51 0 -71.5 -21t-20.5 -65v-63h600v-1500h-265v1309h-335
v-1309h-265v1309h-372v-1309h-265zM1410 1607v193h265v-193h-265z" />
    <glyph glyph-name="f_f_l" unicode="ffl" horiz-adv-x="1808" 
d="M173 0v1250h-116v191h117v78q0 126 65 195.5t186 69.5q62 0 107.5 -9.5t57.5 -14.5v-167q-29 4 -60 4q-51 0 -71.5 -21t-20.5 -65v-70h373v78q0 85 17.5 147.5t85 97t216.5 34.5q47 0 104 -3.5t124 -11t145.5 -19t169.5 -27.5v-1737h-264v1593q-67 15 -117.5 22t-86.5 7
q-69 0 -96 -19t-30.5 -44.5t-3.5 -47.5v-70h152v-191h-152v-1250h-265v1250h-372v-1250h-265z" />
    <glyph glyph-name="f_i" unicode="fi" horiz-adv-x="1171" 
d="M173 0v1309h-116v191h117v66q0 126 65 195.5t186 69.5q62 0 107.5 -10t57.5 -15v-166q-29 4 -60 4q-51 0 -71.5 -21t-20.5 -65v-58h600v-1500h-265v1309h-335v-1309h-265zM773 1607v193h265v-193h-265z" />
    <glyph glyph-name="f_l" unicode="fl" horiz-adv-x="1171" 
d="M173 0v1250h-116v191h117v78q0 85 17.5 147.5t85 97t216.5 34.5q47 0 104 -3.5t124 -11t145.5 -19t169.5 -27.5v-1737h-264v1593q-67 15 -117.5 22t-86.5 7q-69 0 -95.5 -19t-30.5 -44.5t-4 -47.5v-70h152v-191h-152v-1250h-265z" />
    <glyph glyph-name=".notdef" horiz-adv-x="1054" 
d="M102 0v1760h850v-1760h-850zM204 102h646v1556h-646v-1556zM285 196v1369h129l229 -821l-12 373v448h148v-1369h-117l-235 850l9 -359v-491h-151z" />
    <glyph glyph-name=".null" horiz-adv-x="0" 
 />
    <glyph glyph-name="nonmarkingreturn" horiz-adv-x="682" 
 />
    <glyph glyph-name="space" unicode=" " horiz-adv-x="367" 
 />
    <glyph glyph-name="exclam" unicode="!" horiz-adv-x="514" 
d="M204 423l-89 1337h284l-85 -1337h-110zM126 0v256h260v-256h-260z" />
    <glyph glyph-name="quotedbl" unicode="&#x22;" horiz-adv-x="944" 
d="M241 1125l-71 635h245l-66 -635h-108zM606 1125l-70 635h244l-66 -635h-108z" />
    <glyph glyph-name="numbersign" unicode="#" horiz-adv-x="1288" 
d="M153 0l113 579h-126v174h160l55 278h-148v173h182l112 556h217l-113 -556h188l112 556h217l-111 -556h123v-173h-157l-55 -278h145v-174h-180l-114 -579h-216l113 579h-188l-113 -579h-216zM516 752h189l55 276h-189z" />
    <glyph glyph-name="dollar" unicode="$" horiz-adv-x="902" 
d="M405 -220v273h144v-273h-144zM396 1504v256h144v-256h-144zM442 3q-181 0 -269 103t-88 337v97h249v-121q0 -98 24 -149t78 -51q52 0 77 35t25 121q0 50 -14.5 97t-45 92.5t-78.5 88.5l-135 122q-93 84 -139 181.5t-46 215.5q0 191 89.5 279.5t265.5 88.5
q114 0 189 -42.5t112 -137.5t37 -255v-82h-237v99q0 99 -22.5 150t-76.5 51q-53 0 -78 -29.5t-27 -103.5q-1 -40 10 -78.5t34.5 -75t61.5 -71.5l142 -129q112 -101 165.5 -211t53.5 -238q0 -189 -86 -286.5t-271 -97.5z" />
    <glyph glyph-name="percent" unicode="%" horiz-adv-x="2209" 
d="M662 0l685 1760h204l-676 -1760h-213zM468 580q-118 0 -193 45.5t-110 139.5t-35 240v358q0 148 33.5 240t108 135t196.5 43q123 0 197 -43t107.5 -135t33.5 -240v-358q0 -146 -35 -240t-109.5 -139.5t-193.5 -45.5zM468 768q65 0 88.5 41.5t23.5 129.5v492q0 87 -22 125
t-90 38q-67 0 -89.5 -38.5t-22.5 -124.5v-492q0 -88 23.5 -129.5t88.5 -41.5zM1741 -21q-118 0 -193 45.5t-110 139.5t-35 240v358q0 148 33.5 240t108 135t196.5 43q123 0 197.5 -43t108 -135t33.5 -240v-358q0 -146 -35 -240t-110 -139.5t-194 -45.5zM1741 167
q65 0 89 41.5t24 129.5v492q0 87 -22.5 125t-90.5 38q-67 0 -89.5 -38.5t-22.5 -124.5v-492q0 -88 23.5 -129.5t88.5 -41.5z" />
    <glyph glyph-name="ampersand" unicode="&#x26;" horiz-adv-x="1052" 
d="M394 -20q-149 0 -235 102.5t-86 295.5q0 103 40 197.5t103.5 183t134.5 171.5q-61 159 -102 293.5t-41 207.5q0 170 88.5 260t234.5 90q106 0 176 -40.5t105 -118t35 -188.5q0 -93 -33 -180.5t-86 -170t-115 -161.5l129 -321q39 65 85.5 134.5t104.5 138.5l109 -184
q-62 -69 -109.5 -153t-91.5 -168l158 -369h-248l-57 130q-37 -44 -80.5 -78t-97.5 -53t-121 -19zM439 209q30 0 56 17t51 47.5t51 72.5l-155 360q-39 -52 -70.5 -103t-50.5 -101t-21 -99q-3 -95 31.5 -144.5t107.5 -49.5zM530 1144q58 75 95 148t37 146q0 86 -21 124t-80 38
q-35 0 -57 -14t-33.5 -37.5t-15.5 -51.5t-4 -56q0 -40 21.5 -117.5t57.5 -179.5z" />
    <glyph glyph-name="quotesingle" unicode="'" horiz-adv-x="423" 
d="M160 1125l-60 635h238l-65 -635h-113z" />
    <glyph glyph-name="parenleft" unicode="(" horiz-adv-x="619" 
d="M534 -136q-112 0 -189.5 19.5t-125 69t-69 137t-21.5 223.5v1061q0 136 21.5 223.5t69 137t125 69t189.5 19.5v-200q-45 0 -72.5 -10.5t-42 -37.5t-19.5 -74.5t-5 -122.5v-1069q0 -75 5 -122.5t19.5 -74.5t42 -37.5t72.5 -10.5v-200z" />
    <glyph glyph-name="parenright" unicode=")" horiz-adv-x="619" 
d="M86 -136v200q45 0 72.5 10.5t42 37.5t19.5 74.5t5 122.5v1069q0 75 -5 122.5t-19.5 74.5t-42 37.5t-72.5 10.5v200q112 0 189.5 -19.5t124.5 -69t68.5 -137t21.5 -223.5v-1061q0 -136 -21.5 -223.5t-68.5 -137t-124.5 -69t-189.5 -19.5z" />
    <glyph glyph-name="asterisk" unicode="*" horiz-adv-x="960" 
d="M386 889l35 291l-231 -182l-95 164l260 123l-264 115l95 164l234 -173l-34 282h188l-28 -278l228 173l95 -164l-264 -119l264 -127l-95 -163l-228 179l28 -285h-188z" />
    <glyph glyph-name="plus" unicode="+" horiz-adv-x="808" 
d="M312 421v233h-218v177h218v231h182v-231h219v-177h-219v-233h-182z" />
    <glyph glyph-name="comma" unicode="," horiz-adv-x="488" 
d="M172 -338l70 338h-125v268h288v-259l-102 -347h-131z" />
    <glyph glyph-name="hyphen" unicode="-" horiz-adv-x="696" 
d="M89 661v175h478v-175h-478z" />
    <glyph glyph-name="period" unicode="." horiz-adv-x="532" 
d="M149 0v246h225v-246h-225z" />
    <glyph glyph-name="slash" unicode="/" horiz-adv-x="826" 
d="M86 0l427 1769h235l-428 -1769h-234z" />
    <glyph glyph-name="zero" unicode="0" horiz-adv-x="1010" 
d="M501 -21q-144 0 -231.5 59t-127 170t-39.5 267v841q0 152 40.5 255.5t128.5 156.5t229 53t228.5 -53t128.5 -156.5t41 -255.5v-841q0 -117 -22 -209t-69 -156t-123 -97.5t-184 -33.5zM500 210q29 0 53 9.5t41.5 36.5t27 78.5t9.5 135.5v857q0 98 -18 145.5t-48 62.5
t-65 15q-34 0 -63.5 -14t-48 -61t-18.5 -147v-858q0 -85 8.5 -136.5t25.5 -78.5t41 -36t55 -9z" />
    <glyph glyph-name="one" unicode="1" horiz-adv-x="676" 
d="M258 0v1428q-24 -28 -61 -47.5t-78.5 -29t-78.5 -9.5v199q53 8 106.5 34.5t98.5 72.5t73 112h208v-1760h-268z" />
    <glyph glyph-name="two" unicode="2" horiz-adv-x="951" 
d="M160 0v104q0 96 20.5 188t62.5 187t105 200l174 289q18 30 32.5 62.5t24.5 71.5t15.5 88.5t5.5 113.5q0 97 -11.5 150t-33 74t-51.5 21t-54.5 -18.5t-38.5 -74t-14 -168.5v-223h-256v108q0 190 25.5 326t104.5 208.5t240 72.5q125 0 200 -66t109 -176.5t34 -244.5
q0 -82 -14.5 -154t-39.5 -135.5t-57 -119.5l-162 -288q-32 -58 -63.5 -118t-58 -126t-44.5 -142h406v-210h-661z" />
    <glyph glyph-name="three" unicode="3" horiz-adv-x="960" 
d="M469 -20q-205 0 -284.5 122.5t-79.5 371.5v115h251v-122q0 -89 8 -146t34 -84t80 -27q53 0 80 32.5t36.5 98t9.5 163.5q0 115 -13 186.5t-48 104.5t-101 33h-76v204h74q64 0 99.5 28.5t50 91t14.5 164.5q0 94 -14 144t-41 69.5t-65 19.5q-45 0 -71 -23.5t-36.5 -75
t-10.5 -136.5v-53h-259v55q0 236 83 350t288 114q200 0 293 -116t93 -348q0 -139 -43 -239.5t-138 -135.5q70 -32 110 -94t57 -148.5t17 -195.5q0 -257 -90.5 -390t-307.5 -133z" />
    <glyph glyph-name="four" unicode="4" horiz-adv-x="951" 
d="M524 0v310h-434v197l387 1253h286v-1234h136v-216h-136v-310h-239zM297 526h227v869z" />
    <glyph glyph-name="five" unicode="5" horiz-adv-x="951" 
d="M471 -20q-124 0 -201 44.5t-112.5 126t-35.5 192.5v221h251v-193q0 -69 17 -115.5t81 -46.5q57 0 78.5 43t21.5 130v450q0 86 -18 138.5t-80 52.5q-50 0 -77 -42t-27 -129l-236 20v888h651v-240h-404v-357q19 38 69 60.5t108 22.5q106 0 165.5 -62t84 -190t24.5 -326v-36
q0 -166 -11 -289t-46.5 -203.5t-107.5 -120t-195 -39.5z" />
    <glyph glyph-name="six" unicode="6" horiz-adv-x="951" 
d="M499 -21q-122 0 -200 37.5t-121 108.5t-59.5 172.5t-16.5 229.5v723q0 201 44 317t132.5 165t223.5 49q117 0 192.5 -43t112.5 -140.5t38 -261.5v-91h-250v36q0 99 -6 157.5t-28.5 84t-71.5 25.5q-51 0 -76.5 -26.5t-34 -87t-8.5 -164.5v-251q29 40 82 61.5t117 22.5
q120 2 188 -56.5t96 -175.5t28 -291v-97q0 -165 -32.5 -277.5t-115 -169.5t-234.5 -57zM499 212q48 0 75 20t37.5 68.5t10.5 133.5v167q0 98 -10.5 157t-36.5 86t-71 27q-38 0 -66.5 -13.5t-46 -34.5t-21.5 -46v-318q0 -85 11.5 -139.5t40 -81t77.5 -26.5z" />
    <glyph glyph-name="seven" unicode="7" horiz-adv-x="951" 
d="M208 0q18 242 63.5 454.5t104.5 398.5t117 350q43 134 74.5 219t36.5 104h-500v234h777v-194q-9 -80 -65 -210.5t-112 -309.5q-46 -142 -88 -307.5t-72.5 -350.5t-43.5 -388h-292z" />
    <glyph glyph-name="eight" unicode="8" horiz-adv-x="951" 
d="M479 -21q-192 0 -288 111.5t-96 340.5v126q0 89 17 169t49.5 141.5t79.5 93.5q-74 53 -107.5 153t-33.5 227q0 230 89.5 335t289.5 105q204 0 290.5 -102.5t86.5 -337.5q0 -129 -32.5 -228.5t-107.5 -151.5q45 -32 76.5 -94t48 -142t16.5 -168v-121q0 -232 -92.5 -344.5
t-285.5 -112.5zM480 208q50 0 73.5 24.5t30 76.5t6.5 133v144q0 131 -26.5 200.5t-83.5 69.5q-54 0 -86.5 -68.5t-32.5 -202.5v-147q0 -121 21 -175.5t98 -54.5zM478 1033q35 0 59.5 23.5t38 85t13.5 175.5q0 113 -11 167.5t-35 71.5t-65 17q-39 0 -63.5 -19.5t-35.5 -74.5
t-11 -164q0 -114 12.5 -175t37.5 -84t60 -23z" />
    <glyph glyph-name="nine" unicode="9" horiz-adv-x="951" 
d="M441 -20q-110 0 -187.5 42.5t-118.5 140t-41 260.5v96h253v-37q0 -106 8.5 -165t33 -83t71.5 -24q50 0 70 30.5t23.5 94.5t3.5 163v203q-25 -16 -65.5 -26.5t-97.5 -10.5q-123 0 -194.5 60.5t-102 176.5t-30.5 283v64q0 124 16.5 222.5t58 168t116.5 106t192 36.5
q122 0 196.5 -36t112.5 -105.5t51 -172t13 -234.5v-703q0 -201 -39 -321.5t-123.5 -174.5t-219.5 -54zM444 884q34 0 55.5 5t35 13t22.5 18v384q0 123 -22 183.5t-89 60.5q-48 0 -73 -27.5t-34.5 -82.5t-9.5 -137v-157q0 -94 9.5 -151t34.5 -83t71 -26z" />
    <glyph glyph-name="colon" unicode=":" horiz-adv-x="555" 
d="M136 1038v269h283v-269h-283zM136 270v269h283v-269h-283z" />
    <glyph glyph-name="semicolon" unicode=";" horiz-adv-x="561" 
d="M184 -107l78 362h-130v278h303v-269l-109 -371h-142zM136 1038v269h283v-269h-283z" />
    <glyph glyph-name="less" unicode="&#x3c;" horiz-adv-x="730" 
d="M638 238l-573 369v292l573 365v-275l-396 -236l396 -243v-272z" />
    <glyph glyph-name="equal" unicode="=" horiz-adv-x="722" 
d="M104 549v189h514v-189h-514zM104 892v184h514v-184h-514z" />
    <glyph glyph-name="greater" unicode="&#x3e;" horiz-adv-x="730" 
d="M90 238v275l396 236l-396 243v272l574 -366v-293z" />
    <glyph glyph-name="question" unicode="?" horiz-adv-x="897" 
d="M251 494v316q107 27 167 65.5t87.5 98t34.5 148.5t7 218q0 106 -9 157.5t-69 51.5q-65 0 -76.5 -51t-11.5 -162v-176h-261v216q0 81 16 153.5t55 129.5t105.5 89.5t168.5 32.5q114 0 183.5 -33t105.5 -96.5t48.5 -156t12.5 -212.5q0 -173 -24 -291.5t-94.5 -193
t-209.5 -114.5v-190h-236zM257 0v299h232v-299h-232z" />
    <glyph glyph-name="at" unicode="@" horiz-adv-x="1502" 
d="M1165 10q-228 -81 -421 -64.5t-335 124t-220.5 301t-78.5 465.5q0 218 41 391.5t125.5 295.5t217 187t315.5 65q194 0 323.5 -102t194.5 -295t65 -468q0 -159 -32.5 -279t-98 -186.5t-165.5 -66.5q-61 0 -118 56.5t-81 162.5q-19 -111 -55 -173.5t-110 -62.5
q-73 0 -132.5 49.5t-94.5 151t-35 256.5q0 89 14 182.5t49 172.5t99 127t163.5 48t242.5 -65v-524q0 -94 15.5 -154.5t57.5 -60.5q36 0 61 35.5t38 122t13 240.5q0 129 -18.5 248.5t-65.5 214t-130.5 149.5t-212.5 55q-176 0 -284 -93.5t-157 -267.5t-49 -415
q0 -226 54.5 -382.5t161 -240.5t261.5 -92.5t355 60.5zM758 531q38 0 62.5 34.5t37 91.5t12.5 122v401q-67 27 -111 12t-69.5 -65t-36 -127.5t-10.5 -175.5q0 -140 26.5 -216.5t88.5 -76.5z" />
    <glyph glyph-name="A" unicode="A" horiz-adv-x="927" 
d="M28 0l251 1760h354l267 -1760h-250l-42 314h-284l-38 -314h-258zM350 529h230l-118 884h-4z" />
    <glyph glyph-name="B" unicode="B" horiz-adv-x="984" 
d="M132 0v1760h381q133 0 212 -40.5t114.5 -128t35.5 -229.5v-54q0 -137 -35.5 -225.5t-118.5 -123.5q69 -23 110.5 -82.5t59.5 -145t18 -187.5v-45q-1 -176 -41 -286.5t-125 -161.5t-222 -51h-389zM400 208h95q53 0 84.5 23.5t45.5 78.5t14 150v142q0 128 -24.5 186.5
t-101.5 58.5h-113v-639zM400 1048h99q35 0 57 10t34 34.5t16.5 68.5t4.5 112v106q0 71 -13 108t-39.5 50t-68.5 13h-90v-502z" />
    <glyph glyph-name="C" unicode="C" horiz-adv-x="969" 
d="M493 -20q-128 0 -213 59t-127.5 172.5t-42.5 274.5v767q0 121 20 218t65 166t120 106t185 37q100 0 170.5 -32.5t115 -93.5t65 -147.5t20.5 -194.5v-242h-259v225q0 130 -22 191.5t-88 61.5q-73 0 -97.5 -66.5t-24.5 -185.5v-822q0 -92 10.5 -150.5t35.5 -86t70 -27.5
q68 0 92 64t24 203v252h263v-249q0 -167 -39 -278.5t-123.5 -166.5t-219.5 -55z" />
    <glyph glyph-name="D" unicode="D" horiz-adv-x="1008" 
d="M132 0v1760h395q134 0 215 -53.5t117.5 -154.5t36.5 -244l1 -794q0 -173 -37.5 -287.5t-120.5 -170.5t-221 -56h-386zM400 208h88q47 0 78.5 19t47 67.5t15.5 137.5l-1 869q0 135 -33 194t-116 59h-79v-1346z" />
    <glyph glyph-name="E" unicode="E" horiz-adv-x="800" 
d="M132 0v1760h590v-231h-322v-512h306v-226h-306v-560h334v-231h-602z" />
    <glyph glyph-name="F" unicode="F" horiz-adv-x="791" 
d="M132 0v1760h604v-233h-336v-468h312v-234h-312v-825h-268z" />
    <glyph glyph-name="G" unicode="G" horiz-adv-x="1000" 
d="M463 -18q-159 0 -256 125.5t-97 407.5v765q0 118 22.5 211t70 157.5t123.5 98t183 33.5q116 0 189 -34.5t112.5 -100t54.5 -160.5t15 -215v-125h-250v184q0 119 -24.5 169t-92.5 50q-75 0 -104 -58.5t-29 -207.5v-763q0 -166 24.5 -237.5t102.5 -71.5q76 0 107.5 73.5
t31.5 245.5v237h-135v195h369v-961h-120l-41 173q-22 -91 -93.5 -141t-162.5 -50z" />
    <glyph glyph-name="H" unicode="H" horiz-adv-x="1040" 
d="M132 0v1760h268v-712h240v712h268v-1760h-268v818h-240v-818h-268z" />
    <glyph glyph-name="I" unicode="I" horiz-adv-x="543" 
d="M138 0v1760h268v-1760h-268z" />
    <glyph glyph-name="J" unicode="J" horiz-adv-x="946" 
d="M449 -20q-173 0 -269.5 103.5t-96.5 305.5v314h259v-301q0 -52 6.5 -96t27.5 -70t65 -26t65 25.5t28 72t7 110.5v1342h268v-1329q0 -217 -95.5 -334t-264.5 -117z" />
    <glyph glyph-name="K" unicode="K" horiz-adv-x="981" 
d="M132 0v1760h268v-810l268 810h277l-292 -868l315 -892h-283l-283 822v-822h-270z" />
    <glyph glyph-name="L" unicode="L" horiz-adv-x="752" 
d="M132 0v1760h268v-1532h339v-228h-607z" />
    <glyph glyph-name="M" unicode="M" horiz-adv-x="1418" 
d="M132 0v1760h333l250 -1286l235 1286h335v-1760h-239v656l10 602l-237 -1250h-213l-247 1250l10 -602v-656h-237z" />
    <glyph glyph-name="N" unicode="N" horiz-adv-x="1069" 
d="M132 0v1760h210l373 -1056l-19 480v576h241v-1760h-190l-383 1093l15 -462v-631h-247z" />
    <glyph glyph-name="O" unicode="O" horiz-adv-x="999" 
d="M502 -20q-137 0 -223.5 58t-127.5 172t-41 282v805q0 152 40 260t127 166t228 58q106 0 179 -33t118 -95.5t65.5 -152t20.5 -203.5v-805q0 -168 -39.5 -282t-124.5 -172t-222 -58zM502 212q50 0 75 30t33.5 91.5t8.5 155.5v820q0 115 -21.5 177.5t-92.5 62.5
q-73 0 -99 -60.5t-26 -178.5v-821q0 -96 8.5 -157.5t35 -90.5t78.5 -29z" />
    <glyph glyph-name="P" unicode="P" horiz-adv-x="943" 
d="M132 0v1760h404q105 0 174.5 -32t109.5 -95t57 -155.5t17 -213.5v-37q0 -170 -29.5 -289.5t-105.5 -181.5t-214 -62h-145v-694h-268zM400 915h92q59 0 88 30t38.5 99.5t9.5 185.5v34q-1 143 -25 216.5t-109 73.5h-94v-639z" />
    <glyph glyph-name="Q" unicode="Q" horiz-adv-x="999" 
d="M716 -292l-264 287l170 92l226 -264zM502 -20q-137 0 -223.5 58t-127.5 172t-41 282v805q0 152 40 260t127 166t228 58q106 0 179 -33t118 -95.5t65.5 -152t20.5 -203.5v-805q0 -168 -39.5 -282t-124.5 -172t-222 -58zM502 212q50 0 75 30t33.5 91.5t8.5 155.5v820
q0 115 -21.5 177.5t-92.5 62.5q-73 0 -99 -60.5t-26 -178.5v-821q0 -96 8.5 -157.5t35 -90.5t78.5 -29z" />
    <glyph glyph-name="R" unicode="R" horiz-adv-x="991" 
d="M132 0v1760h443q138 0 206 -54t89.5 -158t21.5 -254q0 -155 -31.5 -243.5t-128.5 -118.5q46 -8 77 -37.5t50 -86t27.5 -145t8.5 -216.5v-56t0.5 -108.5t1.5 -124.5t3 -106t5 -52h-268q-3 5 -4.5 51.5t-3 118.5t-2 155t-0.5 163.5v142.5q0 79 -11.5 119.5t-42 56.5
t-87.5 19l-86 5v-831h-268zM401 1039h107q49 0 74.5 22t35 81t9.5 170v11q0 93 -9 143t-37.5 69t-88.5 19h-91v-515z" />
    <glyph glyph-name="S" unicode="S" horiz-adv-x="875" 
d="M453 -20q-110 0 -183.5 34.5t-116 101t-60.5 162t-18 217.5v157h254v-177q0 -142 24 -204t95 -62q48 0 72.5 22.5t33 72t8.5 129.5q0 99 -41.5 181t-125.5 170l-130 134q-54 56 -97.5 119t-69 140.5t-25.5 173.5q0 139 34 235t115 145.5t222 49.5q106 0 174.5 -32.5
t107 -95t54.5 -152t16 -204.5v-109h-247v126q0 80 -8.5 133t-31.5 79.5t-67 26.5q-42 0 -68 -18.5t-37.5 -57t-11.5 -99.5q0 -55 14 -95t43 -77t72 -83l145 -157q104 -112 162 -233t58 -270q0 -158 -34 -265.5t-114 -162.5t-218 -55z" />
    <glyph glyph-name="T" unicode="T" horiz-adv-x="707" 
d="M224 0v1528h-206v232h671v-232h-198v-1528h-267z" />
    <glyph glyph-name="U" unicode="U" horiz-adv-x="1013" 
d="M508 -20q-137 0 -223 51.5t-126 156t-40 264.5v1308h268v-1303q0 -74 6.5 -130t31.5 -87t82 -31t82.5 30.5t31.5 86.5t6 131v1303h268v-1308q0 -160 -39.5 -264.5t-125 -156t-222.5 -51.5z" />
    <glyph glyph-name="V" unicode="V" horiz-adv-x="930" 
d="M311 0l-273 1760h255l115 -795l71 -560h7l61 560l96 795h250l-251 -1760h-331z" />
    <glyph glyph-name="W" unicode="W" horiz-adv-x="1360" 
d="M261 0l-215 1760h240l129 -1254l164 1254h216l165 -1254l114 1254h241l-202 -1760h-267l-156 1170l-162 -1170h-267z" />
    <glyph glyph-name="X" unicode="X" horiz-adv-x="897" 
d="M41 0l271 944l-270 816h226l175 -523l141 523h251l-266 -901l287 -859h-232l-179 541l-145 -541h-259z" />
    <glyph glyph-name="Y" unicode="Y" horiz-adv-x="878" 
d="M312 0v703l-295 1057h256l174 -658h4l155 658h255l-281 -1057v-703h-268z" />
    <glyph glyph-name="Z" unicode="Z" horiz-adv-x="748" 
d="M63 0v238l365 1291h-332v231h613v-217l-365 -1312h357v-231h-638z" />
    <glyph glyph-name="bracketleft" unicode="[" horiz-adv-x="764" 
d="M179 0v1760h471v-208h-205v-1343h205v-209h-471z" />
    <glyph glyph-name="backslash" unicode="\" horiz-adv-x="868" 
d="M507 0l-411 1760h238l410 -1760h-237z" />
    <glyph glyph-name="bracketright" unicode="]" horiz-adv-x="764" 
d="M135 0v209h205v1343h-205v208h471v-1760h-471z" />
    <glyph glyph-name="asciicircum" unicode="^" horiz-adv-x="1030" 
d="M114 836l241 924h319l241 -924h-256l-144 712l-144 -712h-257z" />
    <glyph glyph-name="underscore" unicode="_" horiz-adv-x="748" 
d="M48 -211v183h651v-183h-651z" />
    <glyph glyph-name="uni0060" unicode="`" horiz-adv-x="459" 
d="M253 1640l-203 413h265l94 -413h-156z" />
    <glyph glyph-name="a" unicode="a" 
d="M376 -15q-154 0 -213.5 112t-61.5 297v96q0 120 34.5 195t98.5 122t153 82t198 75v131q0 76 -6 121.5t-27 66.5t-65 21q-43 0 -65.5 -21.5t-30.5 -66t-8 -113.5v-67h-262v45q0 103 17.5 184t59.5 137.5t114.5 86t182.5 29.5q97 0 166 -27.5t112 -82t63 -136.5t20 -191
v-1081h-267v149q-12 -43 -41 -80.5t-72.5 -60.5t-99.5 -23zM468 189q50 0 80 36t37 73v516q-60 -27 -101 -50.5t-66 -51.5t-36 -66t-11 -93v-168q0 -103 21.5 -149.5t75.5 -46.5z" />
    <glyph glyph-name="b" unicode="b" horiz-adv-x="998" 
d="M608 -15q-67 0 -121.5 36.5t-86.5 118.5v-140h-265v1775h265v-383q23 59 78 92t110 34q119 2 184 -55.5t90.5 -159.5t25.5 -234v-635q0 -127 -25 -229t-86 -161t-169 -59zM519 197q69 0 86 66.5t17 195.5v614q0 68 -6.5 120t-27.5 81.5t-67 29.5q-41 0 -68 -20t-40 -70
t-13 -140v-618q0 -124 21.5 -191.5t97.5 -67.5z" />
    <glyph glyph-name="c" unicode="c" horiz-adv-x="938" 
d="M494 -18q-115 0 -190 35.5t-117.5 102.5t-59.5 163t-17 217v486q0 166 31 285t114.5 183t241.5 64q97 0 164 -30t108 -86.5t59.5 -136.5t18.5 -180v-165h-256v174q0 65 -6 111.5t-27 71t-67 24.5q-45 0 -70 -25t-34.5 -72.5t-9.5 -113.5v-676q0 -68 8.5 -116t32 -73.5
t69.5 -25.5q45 0 67.5 26.5t29.5 74.5t7 113v178h256v-152q0 -103 -18 -187.5t-59 -144.5t-109 -92.5t-167 -32.5z" />
    <glyph glyph-name="d" unicode="d" horiz-adv-x="998" 
d="M386 -15q-122 0 -181 65.5t-77 177.5t-18 251v611q0 121 29 217.5t94.5 153.5t173.5 57q64 0 115 -30.5t79 -80.5v368h265v-1775h-265v139q-30 -76 -84 -115t-131 -39zM484 196q48 0 73.5 28.5t35 88t9.5 150.5v600q0 110 -21.5 175t-92.5 65q-68 0 -89.5 -63.5
t-21.5 -179.5v-617q0 -77 9.5 -132.5t32.5 -85t65 -29.5z" />
    <glyph glyph-name="e" unicode="e" horiz-adv-x="945" 
d="M481 -18q-113 0 -185.5 36t-113 104t-56.5 163.5t-16 213.5v559q0 105 21.5 190t67 145t118.5 92.5t176 32.5q105 0 175 -32t110.5 -93t58 -146.5t17.5 -193.5v-321h-477v-295q0 -109 17 -175t93 -66q51 0 72.5 31t26 85.5t4.5 124.5v132h262v-80q0 -121 -14.5 -215
t-54 -159t-112.5 -99t-190 -34zM376 887h214v192q0 75 -7 126.5t-28 77.5t-64 26q-53 0 -77.5 -31t-31 -84.5t-6.5 -121.5v-185z" />
    <glyph glyph-name="f" unicode="f" horiz-adv-x="660" 
d="M182 0v1250h-116v191h117v78q0 126 65 195.5t186 69.5q62 0 107.5 -9.5t57.5 -14.5v-167q-29 4 -60 4q-51 0 -71.5 -21t-20.5 -65v-70h152v-191h-152v-1250h-265z" />
    <glyph glyph-name="g" unicode="g" horiz-adv-x="990" 
d="M469 -225q-124 -2 -211 23.5t-158 83.5l93 167q53 -34 115.5 -55.5t135.5 -20.5q76 1 116 53t40 139v119q-26 -75 -79.5 -103t-129.5 -28q-106 0 -166.5 56t-85.5 153t-25 220v483q0 131 26 233.5t89 161.5t173 58q77 0 127.5 -39t70.5 -112v133h265v-1315
q0 -89 -20 -163.5t-66 -129t-122 -85t-188 -32.5zM496 354q36 0 59 21.5t34 74t11 146.5v491q0 99 -24 158t-87 59q-48 0 -71 -28t-30 -76.5t-7 -111.5v-494q0 -111 21 -175.5t94 -64.5z" />
    <glyph glyph-name="h" unicode="h" horiz-adv-x="1020" 
d="M135 0v1775h265v-447q20 77 80.5 133.5t152.5 56.5q131 0 197.5 -86.5t66.5 -250.5v-1181h-264v1156q0 72 -27.5 108.5t-78.5 36.5q-41 0 -69.5 -23t-43 -65t-14.5 -98v-1115h-265z" />
    <glyph glyph-name="i" unicode="i" horiz-adv-x="537" 
d="M136 0v1500h265v-1500h-265zM135 1638v230h267v-230h-267z" />
    <glyph glyph-name="j" unicode="j" horiz-adv-x="556" 
d="M221 -197q-56 0 -96 5t-65 12v185q11 -2 21.5 -3t23.5 -1q36 0 49.5 20t13.5 48v1431h265v-1421q0 -94 -26 -155t-73.5 -91t-112.5 -30zM164 1638v230h267v-230h-267z" />
    <glyph glyph-name="k" unicode="k" horiz-adv-x="961" 
d="M135 0v1775h265v-957l256 682h269l-289 -738l306 -762h-270l-272 713v-713h-265z" />
    <glyph glyph-name="l" unicode="l" horiz-adv-x="531" 
d="M132 0v1775h264v-1775h-264z" />
    <glyph glyph-name="m" unicode="m" horiz-adv-x="1504" 
d="M131 0v1500h265v-163q22 80 80.5 130.5t159.5 50.5q77 0 134 -34t88 -117q38 70 100 110.5t155 40.5q146 0 207 -98t61 -271v-1149h-264v1152q0 80 -27 114.5t-74 34.5q-60 0 -93.5 -41.5t-33.5 -121.5v-1138h-265v1154q0 67 -22.5 107t-75.5 40q-69 0 -99.5 -52.5
t-30.5 -124.5v-1124h-265z" />
    <glyph glyph-name="n" unicode="n" horiz-adv-x="1020" 
d="M131 0v1500h265v-172q20 77 84 133.5t157 56.5q130 0 195 -86.5t65 -250.5v-1181h-265v1165q0 65 -29.5 102t-80.5 37q-41 0 -69.5 -22.5t-42.5 -62t-14 -92.5v-1127h-265z" />
    <glyph glyph-name="o" unicode="o" 
d="M486 -18q-108 0 -181 33.5t-115.5 97t-61 155t-18.5 208.5v561q0 141 36.5 249.5t119.5 170t220 61.5q104 0 175.5 -35t115 -99.5t63.5 -152.5t20 -194v-561q0 -115 -17.5 -206t-60 -155.5t-114.5 -98.5t-182 -34zM486 196q45 0 68 27.5t31 76.5t8 113v671q0 68 -9 117
t-32 76t-66 27q-45 0 -68.5 -27t-32 -76t-8.5 -117v-671q0 -64 8.5 -113t32 -76.5t68.5 -27.5z" />
    <glyph glyph-name="p" unicode="p" horiz-adv-x="998" 
d="M132 -285v1785h265v-135q29 74 91 112t125 38q115 0 174 -61.5t80 -167.5t21 -238v-547q0 -144 -20 -262t-84.5 -187.5t-196.5 -69.5q-61 0 -111 33t-79 76v-376h-265zM514 197q67 0 87 65.5t20 187.5v622q0 65 -6.5 117.5t-28.5 83.5t-70 31q-37 0 -63.5 -19t-41 -69
t-14.5 -143v-634q0 -115 22 -178.5t95 -63.5z" />
    <glyph glyph-name="q" unicode="q" horiz-adv-x="994" 
d="M597 -285v387q-20 -49 -72 -84.5t-114 -35.5q-124 0 -189 65t-88.5 178t-23.5 256v567q0 132 24.5 237.5t85 167.5t169.5 62q63 0 121 -30.5t87 -98.5v114h265v-1785h-265zM478 196q42 0 68.5 21.5t38.5 72.5t12 139v634q0 122 -25 181t-91 59q-68 0 -86.5 -64.5
t-18.5 -180.5v-622q0 -103 16 -171.5t86 -68.5z" />
    <glyph glyph-name="r" unicode="r" horiz-adv-x="697" 
d="M132 0v1500h267v-167q26 87 90.5 136t164.5 49q2 0 2.5 -34t0.5 -78v-78v-34q-46 0 -99.5 -11t-97 -33.5t-61.5 -59.5v-1190h-267z" />
    <glyph glyph-name="s" unicode="s" horiz-adv-x="862" 
d="M442 -19q-181 0 -269 103t-88 337v97h249v-121q0 -98 24 -149t78 -51q52 0 77 35t25 121q0 50 -14.5 97t-45 92.5t-78.5 88.5l-135 122q-93 84 -139 181.5t-46 215.5q0 191 89.5 279.5t265.5 88.5q114 0 189 -42.5t112 -137.5t37 -255v-82h-237v99q0 99 -22.5 150
t-76.5 51q-53 0 -78 -29.5t-27 -103.5q-1 -40 10 -78.5t34.5 -75t61.5 -71.5l142 -129q112 -101 165.5 -211t53.5 -238q0 -189 -86 -286.5t-271 -97.5z" />
    <glyph glyph-name="t" unicode="t" horiz-adv-x="638" 
d="M402 -10q-96 0 -147 24.5t-70 77.5t-19 137v1048h-122v192h122v291h265v-291h146v-192h-146v-1002q0 -35 11 -53t43.5 -24t96.5 -6v-202h-180z" />
    <glyph glyph-name="u" unicode="u" horiz-adv-x="1010" 
d="M389 -19q-89 0 -148.5 40t-89 119.5t-29.5 199.5v1160h266v-1119q0 -86 21 -134t88 -48q70 0 95.5 54.5t25.5 125.5l1 1121h264v-1500h-265v156q-28 -76 -81 -125.5t-148 -49.5z" />
    <glyph glyph-name="v" unicode="v" horiz-adv-x="852" 
d="M264 0l-217 1500h250l97 -798l33 -359h20l28 360l83 797h248l-217 -1500h-325z" />
    <glyph glyph-name="w" unicode="w" horiz-adv-x="1258" 
d="M250 0l-201 1500h223l76 -633l34 -322h6l33 323l89 632h75h104h57l98 -620l42 -335h6l29 334l67 621h222l-190 -1500h-232l-152 1127l-162 -1127h-224z" />
    <glyph glyph-name="x" unicode="x" horiz-adv-x="840" 
d="M27 0l267 783l-250 717h235l154 -433l132 433h234l-254 -745l269 -755h-246l-157 449l-139 -449h-245z" />
    <glyph glyph-name="y" unicode="y" horiz-adv-x="859" 
d="M89 -265v183h87q44 0 74 7.5t34 32.5q7 13 5 46.5t-6 63.5l-240 1432h252l96 -767l40 -404h22l36 404l88 767h251l-260 -1564q-11 -71 -30.5 -115.5t-58.5 -65t-108 -20.5h-282z" />
    <glyph glyph-name="z" unicode="z" horiz-adv-x="732" 
d="M73 0v200l330 1073h-305v227h574v-191l-328 -1087h314v-222h-585z" />
    <glyph glyph-name="braceleft" unicode="{" horiz-adv-x="798" 
d="M614 -121q-124 0 -199 30t-109 103.5t-34 204.5v275q0 85 -7.5 132t-36.5 66.5t-95 19.5v240q66 0 95 19.5t36.5 67t7.5 131.5v275q0 131 34 204.5t109 103.5t199 30h60v-199q-60 0 -90 -12t-39.5 -45t-9.5 -95v-246q0 -126 -12 -195.5t-46 -104t-101 -54.5
q67 -20 101 -54.5t46 -104t12 -195.5v-246q0 -62 9.5 -95t39.5 -45t90 -12v-199h-60z" />
    <glyph glyph-name="bar" unicode="|" horiz-adv-x="537" 
d="M150 -84v1947h243v-1947h-243z" />
    <glyph glyph-name="braceright" unicode="}" horiz-adv-x="798" 
d="M133 -121v199q61 0 90.5 12t39 45t9.5 95v246q0 126 12 195.5t46.5 104t101.5 54.5q-67 20 -101.5 54.5t-46.5 104t-12 195.5v246q0 62 -9.5 95t-39 45t-90.5 12v199h60q124 0 199 -30t109 -103.5t34 -204.5v-275q0 -84 7.5 -131.5t37 -67t94.5 -19.5v-240
q-65 0 -94.5 -19.5t-37 -66.5t-7.5 -132v-275q0 -131 -34 -204.5t-109 -103.5t-199 -30h-60z" />
    <glyph glyph-name="asciitilde" unicode="~" horiz-adv-x="1117" 
d="M272 821l-172 82q38 127 98.5 196.5t148.5 69.5q39 0 95 -14.5t114 -34t106.5 -34t72.5 -14.5q15 2 42 26t46 85l186 -42q-8 -30 -29.5 -84.5t-54.5 -111.5t-73.5 -96t-85.5 -39q-43 0 -95.5 15.5t-107 36.5t-105.5 36.5t-91 15.5q-36 0 -55.5 -23t-39.5 -70z" />
    <glyph glyph-name="uni00A0" unicode="&#xa0;" horiz-adv-x="367" 
 />
    <glyph glyph-name="exclamdown" unicode="&#xa1;" horiz-adv-x="525" 
d="M327 1101l89 -1337h-284l85 1337h110zM405 1524v-256h-260v256h260z" />
    <glyph glyph-name="cent" unicode="&#xa2;" horiz-adv-x="788" 
d="M416 1511v255h113v-257zM416 -251v255h113v-255h-113zM494 -18q-115 0 -190 35.5t-117.5 102.5t-59.5 163t-17 217v486q0 166 31 285t114.5 183t241.5 64q97 0 164 -30t108 -86.5t59.5 -136.5t18.5 -180v-165h-256v174q0 65 -6 111.5t-27 71t-67 24.5q-45 0 -70 -25
t-34.5 -72.5t-9.5 -113.5v-676q0 -68 8.5 -116t32 -73.5t69.5 -25.5q45 0 67.5 26.5t29.5 74.5t7 113v178h256v-152q0 -103 -18 -187.5t-59 -144.5t-109 -92.5t-167 -32.5z" />
    <glyph glyph-name="sterling" unicode="&#xa3;" horiz-adv-x="1077" 
d="M82 0v205q61 27 108.5 65t80 89.5t49.5 119t17 152.5q0 36 -3.5 75.5t-11.5 76.5h-230v190h189l-53 155q-30 89 -46 153.5t-16 107.5q0 187 104.5 289.5t321.5 102.5q122 0 204.5 -43.5t124.5 -132.5t42 -224v-135h-244v147q0 55 -14.5 93.5t-44.5 59.5t-75 21
q-50 0 -88 -14t-59 -47.5t-21 -91.5q0 -48 17 -111t40 -139l58 -191h333v-190h-283q8 -41 12.5 -82.5t4.5 -78.5q0 -101 -22 -180t-63 -133.5t-99 -82.5h539v-226h-872z" />
    <glyph glyph-name="currency" unicode="&#xa4;" horiz-adv-x="1159" 
d="M274 509l-149 150l91 91q-53 98 -53 214q0 117 52 214l-90 90l149 150l87 -88q97 55 218 55t218 -54l87 87l150 -149l-90 -90q54 -97 54 -215t-54 -216l90 -90l-150 -149l-89 88q-92 -52 -216 -52t-216 53zM579 741q64 0 110.5 30.5t72.5 81.5t26 113q0 95 -56 157.5
t-153 62.5q-63 0 -109.5 -30t-72.5 -80t-26 -112t25.5 -112.5t72.5 -80.5t110 -30z" />
    <glyph glyph-name="yen" unicode="&#xa5;" horiz-adv-x="866" 
d="M94 315v153h246v151h-246v151h680v-151h-224v-151h224v-153h-680zM312 0v703l-295 1057h256l174 -658h4l155 658h255l-281 -1057v-703h-268z" />
    <glyph glyph-name="brokenbar" unicode="&#xa6;" horiz-adv-x="530" 
d="M122 -84v808h286v-808h-286zM122 931v829h286v-829h-286z" />
    <glyph glyph-name="section" unicode="&#xa7;" horiz-adv-x="950" 
d="M488 -20q-177 0 -276.5 86t-99.5 294v31h297v-30q0 -90 26 -115.5t62 -25.5q35 0 52 18t17 65q0 43 -33.5 80.5t-86 76t-110.5 82.5l-66 50q-59 45 -102 109.5t-43 160.5q0 74 31 149t92 132q-61 56 -92 133.5t-31 156.5q0 115 50 192t132.5 116.5t179.5 39.5
q171 0 266 -86t95 -287v-36h-270v41q0 74 -19.5 101.5t-61.5 27.5q-31 0 -49.5 -10.5t-27 -31t-8.5 -49.5q0 -26 21 -57t53.5 -60.5t65.5 -52.5l88 -61q50 -34 98.5 -82t81 -112t32.5 -147q0 -49 -21 -99.5t-55.5 -97t-75.5 -84.5q71 -65 113 -133.5t42 -171.5
q0 -151 -98.5 -232t-268.5 -81zM541 735q18 30 31.5 63t13.5 58t-15 53t-50 55.5t-95 52.5q-22 -32 -33.5 -61t-11.5 -54q0 -40 24.5 -72.5t61.5 -56t74 -38.5z" />
    <glyph glyph-name="uni00A8" unicode="&#xa8;" horiz-adv-x="866" 
d="M534 1640v226h282v-226h-282zM50 1640v226h282v-226h-282z" />
    <glyph glyph-name="copyright" unicode="&#xa9;" horiz-adv-x="1466" 
d="M733 204q-140 0 -259.5 49.5t-209 139t-139 209t-49.5 259.5t49.5 259.5t139 209t209 139t259.5 49.5t259.5 -49.5t209 -139t139 -209t49.5 -259.5t-49.5 -259.5t-139 -209t-209 -139t-259.5 -49.5zM733 333q108 0 199 41t158 114t104 168.5t37 204.5q0 146 -64.5 265.5
t-176.5 191t-257 71.5q-108 0 -199 -41t-158 -114t-104 -168.5t-37 -204.5q0 -145 64.5 -265t177 -191.5t256.5 -71.5zM732 423q-104 0 -169.5 59t-65.5 165v401q0 126 57.5 191t181.5 65q101 0 156 -49.5t55 -150.5v-153h-165v101q0 38 -11.5 57.5t-34.5 19.5
q-28 0 -36 -17.5t-8 -46.5v-409q0 -22 11.5 -43.5t32.5 -21.5q23 0 34.5 16.5t11.5 48.5v149h169v-163q0 -109 -48.5 -164t-170.5 -55z" />
    <glyph glyph-name="ordfeminine" unicode="&#xaa;" horiz-adv-x="927" 
d="M386 558q-122 0 -170 88.5t-50 235.5v79q0 96 27 156.5t78 98t122.5 66t159.5 61.5v42q0 62 -2 113t-18.5 81.5t-59.5 30.5q-49 0 -65.5 -36.5t-16.5 -119.5v-58h-208v36q0 82 14 146.5t47 109.5t91 68.5t146 23.5q104 0 166.5 -41t91 -120.5t28.5 -195.5v-853h-212v110
q-10 -39 -56 -80.5t-113 -41.5zM459 726q40 0 63.5 29t29.5 58v397q-65 -28 -102.5 -52.5t-53 -59t-15.5 -94.5v-121q0 -82 17.5 -119.5t60.5 -37.5z" />
    <glyph glyph-name="guillemotleft" unicode="&#xab;" horiz-adv-x="1304" 
d="M1133 327l-491 285v275l491 271v-268l-312 -141l312 -150v-272zM579 327l-491 285v275l491 271v-268l-312 -141l312 -150v-272z" />
    <glyph glyph-name="logicalnot" unicode="&#xac;" horiz-adv-x="947" 
d="M602 439v304h-505v236h729v-540h-224z" />
    <glyph glyph-name="uni00AD" unicode="&#xad;" horiz-adv-x="696" 
d="M90 509v232h516v-232h-516z" />
    <glyph glyph-name="registered" unicode="&#xae;" horiz-adv-x="1502" 
d="M529 430v852h289q99 0 133.5 -54t34.5 -146v-39q0 -69 -18 -111t-72 -59q40 -7 59.5 -38t19.5 -84v-321h-184v332q0 25 -7.5 37t-23.5 15.5t-41 3.5v-388h-190zM720 965h48q19 0 28 19.5t9 58.5q0 53 -16 67t-69 14v-159zM751 334q108 0 199 41t158 114t104 168.5
t37 204.5q0 146 -64.5 265.5t-176.5 191t-257 71.5q-108 0 -199 -41t-158 -114t-104 -168.5t-37 -204.5q0 -145 64.5 -265t177 -191.5t256.5 -71.5zM751 205q-140 0 -259.5 49.5t-209 139t-139 209t-49.5 259.5t49.5 259.5t139 209t209 139t259.5 49.5t259.5 -49.5t209 -139
t139 -209t49.5 -259.5t-49.5 -259.5t-139 -209t-209 -139t-259.5 -49.5z" />
    <glyph glyph-name="uni00AF" unicode="&#xaf;" horiz-adv-x="656" 
d="M50 1690v182h556v-182h-556z" />
    <glyph glyph-name="degree" unicode="&#xb0;" horiz-adv-x="915" 
d="M457 1099q-107 0 -186.5 40.5t-123 116t-43.5 181.5t43.5 181.5t123 116t186.5 40.5t186.5 -40.5t123.5 -116t44 -181.5q0 -105 -44 -181t-123.5 -116.5t-186.5 -40.5zM458 1280q45 0 76.5 21t48.5 57t17 79q0 44 -17 79.5t-48.5 56.5t-76.5 21q-44 0 -76 -21t-49 -56.5
t-17 -79.5q0 -43 17 -79t49 -57t76 -21z" />
    <glyph glyph-name="plusminus" unicode="&#xb1;" horiz-adv-x="854" 
d="M336 475v233h-218v177h218v231h182v-231h220v-177h-220v-233h-182zM156 112v183h516v-183h-516z" />
    <glyph glyph-name="uni00B2" unicode="&#xb2;" horiz-adv-x="831" 
d="M185 565v62q0 43 14.5 96.5t38.5 112.5t53.5 118t60 112t58 94.5t46.5 65.5q26 41 40.5 103.5t14.5 125.5q0 66 -9 102t-25 50t-38 14t-38.5 -14t-26 -51.5t-9.5 -107.5v-154h-182l-1 74q0 133 18.5 224.5t75.5 139.5t171 48q66 0 112.5 -26t75.5 -71.5t42.5 -105
t13.5 -127.5q0 -96 -24 -174.5t-62 -146.5t-80.5 -132.5t-79.5 -132.5t-58 -148h291v-151h-493z" />
    <glyph glyph-name="uni00B3" unicode="&#xb3;" horiz-adv-x="856" 
d="M424 602q-145 0 -205.5 81t-60.5 244v78h186v-79q0 -91 16 -130.5t72 -39.5q57 0 72 47t15 143q0 105 -24.5 158t-99.5 53h-29v140h26q47 2 74.5 18t40 53.5t12.5 103.5q0 61 -10.5 94t-29.5 46t-45 13q-31 0 -49 -15.5t-25.5 -49.5t-7.5 -91v-28h-188l-1 33
q1 156 63 230t208 74q143 0 210.5 -76t67.5 -228q0 -91 -26.5 -154.5t-93.5 -86.5q74 -31 98.5 -105.5t24.5 -182.5q0 -169 -68 -256t-223 -87z" />
    <glyph glyph-name="uni00B4" unicode="&#xb4;" horiz-adv-x="459" 
d="M50 1640l94 413h265l-203 -413h-156z" />
    <glyph glyph-name="uni00B5" unicode="&#xb5;" horiz-adv-x="1010" 
d="M389 -19q-89 0 -148.5 40t-89 119.5t-29.5 199.5v1160h266v-1119q0 -86 21 -134t88 -48q70 0 95.5 54.5t25.5 125.5l1 1121h264v-1500h-265v156q-28 -76 -81 -125.5t-148 -49.5zM122 483h267v-748h-267v748z" />
    <glyph glyph-name="paragraph" unicode="&#xb6;" horiz-adv-x="1119" 
d="M442 0v1087q-168 19 -250.5 102t-82.5 248q0 100 34 163.5t101 98t166.5 48t230.5 13.5h332v-1760h-194v1527h-143v-1527h-194z" />
    <glyph glyph-name="periodcentered" unicode="&#xb7;" horiz-adv-x="480" 
d="M132 750v245h231v-245h-231z" />
    <glyph glyph-name="uni00B8" unicode="&#xb8;" horiz-adv-x="536" 
d="M199 -638q-78 0 -149 26v111q95 0 144.5 20t68 52.5t18.5 69.5q0 68 -49 109t-111 54l40 196h82l15 -141q113 -39 170.5 -107t57.5 -148q0 -63 -33.5 -118t-97.5 -89.5t-156 -34.5z" />
    <glyph glyph-name="uni00B9" unicode="&#xb9;" horiz-adv-x="628" 
d="M238 564v964q-32 -24 -76 -36.5t-86 -12.5v130q39 3 86.5 23t85 53t47.5 75h149v-1196h-206z" />
    <glyph glyph-name="ordmasculine" unicode="&#xba;" horiz-adv-x="908" 
d="M464 555q-115 0 -182 47t-95 135.5t-28 212.5v446q0 112 28.5 198.5t95.5 136t181 49.5q118 0 183.5 -49t92 -135.5t26.5 -199.5v-446q0 -121 -27 -210t-93 -137t-182 -48zM464 725q47 -1 67 45.5t20 128.5v535q0 81 -17.5 128t-69.5 47q-54 0 -71.5 -47t-17.5 -128v-535
q0 -79 20 -126t69 -48z" />
    <glyph glyph-name="guillemotright" unicode="&#xbb;" horiz-adv-x="1304" 
d="M704 327v272l312 150l-312 141v268l491 -271v-275zM151 327v272l312 150l-312 141v268l490 -271v-275z" />
    <glyph glyph-name="onequarter" unicode="&#xbc;" horiz-adv-x="1535" 
d="M423 0l500 1767h189l-500 -1767h-189zM232 551v915q-28 -23 -66.5 -35t-75.5 -12v119q34 3 74.5 21.5t73 49.5t42.5 71h132v-1129h-180zM1191 0v192h-289v114l225 759h223v-741h69v-132h-69v-192h-159zM1050 324h141v540z" />
    <glyph glyph-name="onehalf" unicode="&#xbd;" horiz-adv-x="1620" 
d="M423 0l500 1767h189l-500 -1767h-189zM232 551v915q-28 -23 -66.5 -35t-75.5 -12v119q34 3 74.5 21.5t73 49.5t42.5 71h132v-1129h-180zM1057 0v58q0 50 16 122.5t58 141.5l182 302q23 38 37.5 98t14.5 120q0 64 -8.5 98.5t-24 48t-36.5 13.5q-20 0 -36.5 -13.5
t-25.5 -50t-9 -104.5v-145h-170l-1 70q0 125 17.5 212t71 132t161.5 45q83 0 133.5 -43t73 -113.5t22.5 -155.5q0 -78 -15.5 -144.5t-48.5 -121.5l-147 -245q-25 -43 -44 -89t-33 -98h276v-138h-464z" />
    <glyph glyph-name="threequarters" unicode="&#xbe;" horiz-adv-x="1555" 
d="M474 0l500 1767h189l-500 -1767h-189zM316 598q-124 0 -178.5 75t-54.5 226v70h160v-70q0 -87 14 -124.5t65 -37.5t65 44t14 135q0 101 -22.5 150t-88.5 49h-25v135h21q39 1 64.5 13.5t38 46t12.5 97.5q0 59 -10 90.5t-27.5 43.5t-40.5 12q-27 0 -43 -14.5t-23 -47
t-7 -87.5v-26h-162v30q0 145 55.5 214t179.5 69q122 0 180 -71.5t58 -211.5q0 -85 -23 -144.5t-82 -80.5q64 -29 86 -98.5t22 -169.5q0 -156 -58.5 -236.5t-189.5 -80.5zM1211 0v192h-289v114l225 759h223v-741h69v-132h-69v-192h-159zM1070 324h141v540z" />
    <glyph glyph-name="questiondown" unicode="&#xbf;" horiz-adv-x="1044" 
d="M725 1004v-316q-107 -27 -167 -65.5t-87.5 -98t-34.5 -148.5t-7 -218q0 -106 9 -157.5t69 -51.5q65 0 76.5 51t11.5 162v176h261v-216q0 -81 -16 -153.5t-55 -129.5t-105.5 -89.5t-168.5 -32.5q-114 0 -183.5 33t-105.5 96.5t-48.5 156t-12.5 212.5q0 173 24 291.5
t94.5 193t209.5 114.5v190h236zM719 1498v-299h-232v299h232z" />
    <glyph glyph-name="Agrave" unicode="&#xc0;" horiz-adv-x="927" 
d="M28 0l251 1760h354l267 -1760h-250l-42 314h-284l-38 -314h-258zM350 529h230l-118 884h-4zM447 1900l-203 413h265l94 -413h-156z" />
    <glyph glyph-name="Aacute" unicode="&#xc1;" horiz-adv-x="927" 
d="M28 0l251 1760h354l267 -1760h-250l-42 314h-284l-38 -314h-258zM350 529h230l-118 884h-4zM305 1900l94 413h265l-203 -413h-156z" />
    <glyph glyph-name="Acircumflex" unicode="&#xc2;" horiz-adv-x="927" 
d="M28 0l251 1760h354l267 -1760h-250l-42 314h-284l-38 -314h-258zM350 529h230l-118 884h-4zM114 1900l189 337h302l188 -337h-253l-86 236l-86 -236h-254z" />
    <glyph glyph-name="Atilde" unicode="&#xc3;" horiz-adv-x="927" 
d="M28 0l251 1760h354l267 -1760h-250l-42 314h-284l-38 -314h-258zM350 529h230l-118 884h-4zM607 1900q-44 0 -94 20.5t-99 41t-91 20.5q-16 0 -23 -2q-16 -4 -26.5 -18.5t-24.5 -40.5l-130 52q20 68 48 107.5t64 57t80 17.5q41 0 95.5 -18.5t104.5 -37t75 -18.5h4
q14 2 27 14t29 57l142 -28l-9 -48q-22 -103 -63.5 -139.5t-108.5 -36.5z" />
    <glyph glyph-name="Adieresis" unicode="&#xc4;" horiz-adv-x="927" 
d="M28 0l251 1760h354l267 -1760h-250l-42 314h-284l-38 -314h-258zM350 529h230l-118 884h-4zM555 1900v226h282v-226h-282zM71 1900v226h282v-226h-282z" />
    <glyph glyph-name="Aring" unicode="&#xc5;" horiz-adv-x="927" 
d="M28 0l251 1760h354l267 -1760h-250l-42 314h-284l-38 -314h-258zM350 529h230l-118 884h-4zM454 1900q-109 0 -171 64t-62 160q0 95 62 159.5t171 64.5q110 0 171.5 -64.5t61.5 -159.5t-61.5 -159.5t-171.5 -64.5zM455 1994q60 0 89.5 41t29.5 90t-29.5 89.5t-89.5 40.5
q-59 0 -89 -40.5t-30 -89.5t30 -90t89 -41z" />
    <glyph glyph-name="AE" unicode="&#xc6;" horiz-adv-x="1230" 
d="M52 0l314 1760h786v-231h-278v-512h262v-232h-262v-554h290v-231h-558v314h-240l-54 -314h-260zM396 512h210v1018l-35 -1z" />
    <glyph glyph-name="Ccedilla" unicode="&#xc7;" horiz-adv-x="969" 
d="M493 -20q-128 0 -213 59t-127.5 172.5t-42.5 274.5v767q0 121 20 218t65 166t120 106t185 37q100 0 170.5 -32.5t115 -93.5t65 -147.5t20.5 -194.5v-242h-259v225q0 130 -22 191.5t-88 61.5q-73 0 -97.5 -66.5t-24.5 -185.5v-822q0 -92 10.5 -150.5t35.5 -86t70 -27.5
q68 0 92 64t24 203v252h263v-249q0 -167 -39 -278.5t-123.5 -166.5t-219.5 -55zM482 -638q-78 0 -149 26v111q95 0 144.5 20t68 52.5t18.5 69.5q0 68 -49 109t-111 54l40 196h82l15 -141q113 -39 170.5 -107t57.5 -148q0 -63 -33.5 -118t-97.5 -89.5t-156 -34.5z" />
    <glyph glyph-name="Egrave" unicode="&#xc8;" horiz-adv-x="800" 
d="M132 0v1760h590v-231h-322v-512h306v-226h-306v-560h334v-231h-602zM413 1900l-203 413h265l94 -413h-156z" />
    <glyph glyph-name="Eacute" unicode="&#xc9;" horiz-adv-x="800" 
d="M132 0v1760h590v-231h-322v-512h306v-226h-306v-560h334v-231h-602zM271 1900l94 413h265l-203 -413h-156z" />
    <glyph glyph-name="Ecircumflex" unicode="&#xca;" horiz-adv-x="800" 
d="M132 0v1760h590v-231h-322v-512h306v-226h-306v-560h334v-231h-602zM80 1900l189 337h302l188 -337h-253l-86 236l-86 -236h-254z" />
    <glyph glyph-name="Edieresis" unicode="&#xcb;" horiz-adv-x="800" 
d="M132 0v1760h590v-231h-322v-512h306v-226h-306v-560h334v-231h-602zM521 1900v226h282v-226h-282zM37 1900v226h282v-226h-282z" />
    <glyph glyph-name="Igrave" unicode="&#xcc;" horiz-adv-x="543" 
d="M138 0v1760h268v-1760h-268zM265 1900l-203 413h265l94 -413h-156z" />
    <glyph glyph-name="Iacute" unicode="&#xcd;" horiz-adv-x="543" 
d="M138 0v1760h268v-1760h-268zM123 1900l94 413h265l-203 -413h-156z" />
    <glyph glyph-name="Icircumflex" unicode="&#xce;" horiz-adv-x="543" 
d="M138 0v1760h268v-1760h-268zM-68 1900l189 337h302l188 -337h-253l-86 236l-86 -236h-254z" />
    <glyph glyph-name="Idieresis" unicode="&#xcf;" horiz-adv-x="543" 
d="M138 0v1760h268v-1760h-268zM373 1900v226h282v-226h-282zM-111 1900v226h282v-226h-282z" />
    <glyph glyph-name="Eth" unicode="&#xd0;" horiz-adv-x="1008" 
d="M132 0v1760h395q134 0 215 -53.5t117.5 -154.5t36.5 -244l1 -794q0 -173 -37.5 -287.5t-120.5 -170.5t-221 -56h-386zM400 208h88q47 0 78.5 19t47 67.5t15.5 137.5l-1 869q0 135 -33 194t-116 59h-79v-1346zM8 826v109h550v-109h-550z" />
    <glyph glyph-name="Ntilde" unicode="&#xd1;" horiz-adv-x="1069" 
d="M132 0v1760h210l373 -1056l-19 480v576h241v-1760h-190l-383 1093l15 -462v-631h-247zM688 1900q-44 0 -94 20.5t-99 41t-91 20.5q-16 0 -23 -2q-16 -4 -26.5 -18.5t-24.5 -40.5l-130 52q20 68 48 107.5t64 57t80 17.5q41 0 95.5 -18.5t104.5 -37t75 -18.5h4q14 2 27 14
t29 57l142 -28l-9 -48q-22 -103 -63.5 -139.5t-108.5 -36.5z" />
    <glyph glyph-name="Ograve" unicode="&#xd2;" horiz-adv-x="999" 
d="M502 -20q-137 0 -223.5 58t-127.5 172t-41 282v805q0 152 40 260t127 166t228 58q106 0 179 -33t118 -95.5t65.5 -152t20.5 -203.5v-805q0 -168 -39.5 -282t-124.5 -172t-222 -58zM502 212q50 0 75 30t33.5 91.5t8.5 155.5v820q0 115 -21.5 177.5t-92.5 62.5
q-73 0 -99 -60.5t-26 -178.5v-821q0 -96 8.5 -157.5t35 -90.5t78.5 -29zM493 1900l-203 413h265l94 -413h-156z" />
    <glyph glyph-name="Oacute" unicode="&#xd3;" horiz-adv-x="999" 
d="M502 -20q-137 0 -223.5 58t-127.5 172t-41 282v805q0 152 40 260t127 166t228 58q106 0 179 -33t118 -95.5t65.5 -152t20.5 -203.5v-805q0 -168 -39.5 -282t-124.5 -172t-222 -58zM502 212q50 0 75 30t33.5 91.5t8.5 155.5v820q0 115 -21.5 177.5t-92.5 62.5
q-73 0 -99 -60.5t-26 -178.5v-821q0 -96 8.5 -157.5t35 -90.5t78.5 -29zM351 1900l94 413h265l-203 -413h-156z" />
    <glyph glyph-name="Ocircumflex" unicode="&#xd4;" horiz-adv-x="999" 
d="M502 -20q-137 0 -223.5 58t-127.5 172t-41 282v805q0 152 40 260t127 166t228 58q106 0 179 -33t118 -95.5t65.5 -152t20.5 -203.5v-805q0 -168 -39.5 -282t-124.5 -172t-222 -58zM502 212q50 0 75 30t33.5 91.5t8.5 155.5v820q0 115 -21.5 177.5t-92.5 62.5
q-73 0 -99 -60.5t-26 -178.5v-821q0 -96 8.5 -157.5t35 -90.5t78.5 -29zM160 1900l189 337h302l188 -337h-253l-86 236l-86 -236h-254z" />
    <glyph glyph-name="Otilde" unicode="&#xd5;" horiz-adv-x="999" 
d="M502 -20q-137 0 -223.5 58t-127.5 172t-41 282v805q0 152 40 260t127 166t228 58q106 0 179 -33t118 -95.5t65.5 -152t20.5 -203.5v-805q0 -168 -39.5 -282t-124.5 -172t-222 -58zM502 212q50 0 75 30t33.5 91.5t8.5 155.5v820q0 115 -21.5 177.5t-92.5 62.5
q-73 0 -99 -60.5t-26 -178.5v-821q0 -96 8.5 -157.5t35 -90.5t78.5 -29zM653 1900q-44 0 -94 20.5t-99 41t-91 20.5q-16 0 -23 -2q-16 -4 -26.5 -18.5t-24.5 -40.5l-130 52q20 68 48 107.5t64 57t80 17.5q41 0 95.5 -18.5t104.5 -37t75 -18.5h4q14 2 27 14t29 57l142 -28
l-9 -48q-22 -103 -63.5 -139.5t-108.5 -36.5z" />
    <glyph glyph-name="Odieresis" unicode="&#xd6;" horiz-adv-x="999" 
d="M502 -20q-137 0 -223.5 58t-127.5 172t-41 282v805q0 152 40 260t127 166t228 58q106 0 179 -33t118 -95.5t65.5 -152t20.5 -203.5v-805q0 -168 -39.5 -282t-124.5 -172t-222 -58zM502 212q50 0 75 30t33.5 91.5t8.5 155.5v820q0 115 -21.5 177.5t-92.5 62.5
q-73 0 -99 -60.5t-26 -178.5v-821q0 -96 8.5 -157.5t35 -90.5t78.5 -29zM601 1900v226h282v-226h-282zM117 1900v226h282v-226h-282z" />
    <glyph glyph-name="multiply" unicode="&#xd7;" horiz-adv-x="710" 
d="M208 314l-164 164l147 147l-147 147l164 164l147 -147l147 147l164 -164l-147 -147l147 -147l-164 -164l-147 147z" />
    <glyph glyph-name="Oslash" unicode="&#xd8;" horiz-adv-x="900" 
d="M193 -206l-99 40l728 2072l107 -36zM502 -20q-137 0 -223.5 58t-127.5 172t-41 282v805q0 152 40 260t127 166t228 58q106 0 179 -33t118 -95.5t65.5 -152t20.5 -203.5v-805q0 -168 -39.5 -282t-124.5 -172t-222 -58zM502 212q50 0 75 30t33.5 91.5t8.5 155.5v820
q0 115 -21.5 177.5t-92.5 62.5q-73 0 -99 -60.5t-26 -178.5v-821q0 -96 8.5 -157.5t35 -90.5t78.5 -29z" />
    <glyph glyph-name="Ugrave" unicode="&#xd9;" horiz-adv-x="1013" 
d="M508 -20q-137 0 -223 51.5t-126 156t-40 264.5v1308h268v-1303q0 -74 6.5 -130t31.5 -87t82 -31t82.5 30.5t31.5 86.5t6 131v1303h268v-1308q0 -160 -39.5 -264.5t-125 -156t-222.5 -51.5zM500 1900l-203 413h265l94 -413h-156z" />
    <glyph glyph-name="Uacute" unicode="&#xda;" horiz-adv-x="1013" 
d="M508 -20q-137 0 -223 51.5t-126 156t-40 264.5v1308h268v-1303q0 -74 6.5 -130t31.5 -87t82 -31t82.5 30.5t31.5 86.5t6 131v1303h268v-1308q0 -160 -39.5 -264.5t-125 -156t-222.5 -51.5zM358 1900l94 413h265l-203 -413h-156z" />
    <glyph glyph-name="Ucircumflex" unicode="&#xdb;" horiz-adv-x="1013" 
d="M508 -20q-137 0 -223 51.5t-126 156t-40 264.5v1308h268v-1303q0 -74 6.5 -130t31.5 -87t82 -31t82.5 30.5t31.5 86.5t6 131v1303h268v-1308q0 -160 -39.5 -264.5t-125 -156t-222.5 -51.5zM167 1900l189 337h302l188 -337h-253l-86 236l-86 -236h-254z" />
    <glyph glyph-name="Udieresis" unicode="&#xdc;" horiz-adv-x="1013" 
d="M508 -20q-137 0 -223 51.5t-126 156t-40 264.5v1308h268v-1303q0 -74 6.5 -130t31.5 -87t82 -31t82.5 30.5t31.5 86.5t6 131v1303h268v-1308q0 -160 -39.5 -264.5t-125 -156t-222.5 -51.5zM608 1900v226h282v-226h-282zM124 1900v226h282v-226h-282z" />
    <glyph glyph-name="Yacute" unicode="&#xdd;" horiz-adv-x="878" 
d="M312 0v703l-295 1057h256l174 -658h4l155 658h255l-281 -1057v-703h-268zM290 1900l94 413h265l-203 -413h-156z" />
    <glyph glyph-name="Thorn" unicode="&#xde;" horiz-adv-x="982" 
d="M146 0v1760h268v-263h136q106 0 175 -34t109 -100.5t57.5 -162.5t18.5 -219v-28q0 -170 -30 -292.5t-106.5 -187.5t-214.5 -65h-145v-408h-268zM414 630h92q59 0 88 33t38.5 104.5t9.5 187.5v24q0 149 -23.5 230t-110.5 81h-94v-660z" />
    <glyph glyph-name="germandbls" unicode="&#xdf;" horiz-adv-x="1032" 
d="M135 0v1417q0 91 19 159.5t62.5 114t116 68t178.5 22.5q132 0 217 -34.5t126.5 -114t41.5 -215.5v-197q0 -77 -15 -131.5t-50 -89.5t-94 -54q85 -20 132.5 -69t67 -129t19.5 -194v-77q0 -112 -15 -200.5t-54 -150t-110 -93.5t-184 -32h-104v212q80 0 125 14.5t63 54.5
t18 114v261q0 100 -42 138t-155 38v200q80 0 108.5 34t28.5 104v268q0 69 -26.5 96.5t-91.5 27.5q-58 0 -87.5 -27.5t-29.5 -96.5v-1438h-265z" />
    <glyph glyph-name="agrave" unicode="&#xe0;" 
d="M376 -15q-154 0 -213.5 112t-61.5 297v96q0 120 34.5 195t98.5 122t153 82t198 75v131q0 76 -6 121.5t-27 66.5t-65 21q-43 0 -65.5 -21.5t-30.5 -66t-8 -113.5v-67h-262v45q0 103 17.5 184t59.5 137.5t114.5 86t182.5 29.5q97 0 166 -27.5t112 -82t63 -136.5t20 -191
v-1081h-267v149q-12 -43 -41 -80.5t-72.5 -60.5t-99.5 -23zM468 189q50 0 80 36t37 73v516q-60 -27 -101 -50.5t-66 -51.5t-36 -66t-11 -93v-168q0 -103 21.5 -149.5t75.5 -46.5zM478 1640l-203 413h265l94 -413h-156z" />
    <glyph glyph-name="aacute" unicode="&#xe1;" 
d="M376 -15q-154 0 -213.5 112t-61.5 297v96q0 120 34.5 195t98.5 122t153 82t198 75v131q0 76 -6 121.5t-27 66.5t-65 21q-43 0 -65.5 -21.5t-30.5 -66t-8 -113.5v-67h-262v45q0 103 17.5 184t59.5 137.5t114.5 86t182.5 29.5q97 0 166 -27.5t112 -82t63 -136.5t20 -191
v-1081h-267v149q-12 -43 -41 -80.5t-72.5 -60.5t-99.5 -23zM468 189q50 0 80 36t37 73v516q-60 -27 -101 -50.5t-66 -51.5t-36 -66t-11 -93v-168q0 -103 21.5 -149.5t75.5 -46.5zM336 1640l94 413h265l-203 -413h-156z" />
    <glyph glyph-name="acircumflex" unicode="&#xe2;" 
d="M376 -15q-154 0 -213.5 112t-61.5 297v96q0 120 34.5 195t98.5 122t153 82t198 75v131q0 76 -6 121.5t-27 66.5t-65 21q-43 0 -65.5 -21.5t-30.5 -66t-8 -113.5v-67h-262v45q0 103 17.5 184t59.5 137.5t114.5 86t182.5 29.5q97 0 166 -27.5t112 -82t63 -136.5t20 -191
v-1081h-267v149q-12 -43 -41 -80.5t-72.5 -60.5t-99.5 -23zM468 189q50 0 80 36t37 73v516q-60 -27 -101 -50.5t-66 -51.5t-36 -66t-11 -93v-168q0 -103 21.5 -149.5t75.5 -46.5zM145 1640l189 337h302l188 -337h-253l-86 236l-86 -236h-254z" />
    <glyph glyph-name="atilde" unicode="&#xe3;" 
d="M376 -15q-154 0 -213.5 112t-61.5 297v96q0 120 34.5 195t98.5 122t153 82t198 75v131q0 76 -6 121.5t-27 66.5t-65 21q-43 0 -65.5 -21.5t-30.5 -66t-8 -113.5v-67h-262v45q0 103 17.5 184t59.5 137.5t114.5 86t182.5 29.5q97 0 166 -27.5t112 -82t63 -136.5t20 -191
v-1081h-267v149q-12 -43 -41 -80.5t-72.5 -60.5t-99.5 -23zM468 189q50 0 80 36t37 73v516q-60 -27 -101 -50.5t-66 -51.5t-36 -66t-11 -93v-168q0 -103 21.5 -149.5t75.5 -46.5zM638 1640q-44 0 -94 20.5t-99 41t-91 20.5q-16 0 -23 -2q-16 -4 -26.5 -18.5t-24.5 -40.5
l-130 52q20 68 48 107.5t64 57t80 17.5q41 0 95.5 -18.5t104.5 -37t75 -18.5h4q14 2 27 14t29 57l142 -28l-9 -48q-22 -103 -63.5 -139.5t-108.5 -36.5z" />
    <glyph glyph-name="adieresis" unicode="&#xe4;" 
d="M376 -15q-154 0 -213.5 112t-61.5 297v96q0 120 34.5 195t98.5 122t153 82t198 75v131q0 76 -6 121.5t-27 66.5t-65 21q-43 0 -65.5 -21.5t-30.5 -66t-8 -113.5v-67h-262v45q0 103 17.5 184t59.5 137.5t114.5 86t182.5 29.5q97 0 166 -27.5t112 -82t63 -136.5t20 -191
v-1081h-267v149q-12 -43 -41 -80.5t-72.5 -60.5t-99.5 -23zM468 189q50 0 80 36t37 73v516q-60 -27 -101 -50.5t-66 -51.5t-36 -66t-11 -93v-168q0 -103 21.5 -149.5t75.5 -46.5zM586 1640v226h282v-226h-282zM102 1640v226h282v-226h-282z" />
    <glyph glyph-name="aring" unicode="&#xe5;" 
d="M376 -15q-154 0 -213.5 112t-61.5 297v96q0 120 34.5 195t98.5 122t153 82t198 75v131q0 76 -6 121.5t-27 66.5t-65 21q-43 0 -65.5 -21.5t-30.5 -66t-8 -113.5v-67h-262v45q0 103 17.5 184t59.5 137.5t114.5 86t182.5 29.5q97 0 166 -27.5t112 -82t63 -136.5t20 -191
v-1081h-267v149q-12 -43 -41 -80.5t-72.5 -60.5t-99.5 -23zM468 189q50 0 80 36t37 73v516q-60 -27 -101 -50.5t-66 -51.5t-36 -66t-11 -93v-168q0 -103 21.5 -149.5t75.5 -46.5zM485 1640q-109 0 -171 64t-62 160q0 95 62 159.5t171 64.5q110 0 171.5 -64.5t61.5 -159.5
t-61.5 -159.5t-171.5 -64.5zM486 1734q60 0 89.5 41t29.5 90t-29.5 89.5t-89.5 40.5q-59 0 -89 -40.5t-30 -89.5t30 -90t89 -41z" />
    <glyph glyph-name="ae" unicode="&#xe6;" horiz-adv-x="1443" 
d="M985 -18q-100 0 -167.5 40.5t-99.5 105.5q-23 -37 -65 -69.5t-97 -53t-118 -20.5q-164 0 -247.5 111.5t-83.5 309.5v100q2 116 37 188t98.5 118t152 81t197.5 76v92q0 72 -6.5 127t-27.5 85.5t-66 30.5q-41 0 -63.5 -20t-31 -63t-8.5 -112v-73h-261v45q0 103 17.5 184
t59 137.5t114 86t182.5 29.5q85 0 140.5 -27.5t88.5 -81.5q38 53 98.5 81t148.5 28q105 0 175 -32t110.5 -93t58 -146.5t17.5 -193.5v-327h-478v-254q0 -92 9 -153.5t33 -92t69 -30.5q51 0 73 37.5t27 99t4 131.5l-1 105h263v-70q0 -118 -13 -213.5t-49.5 -163t-106 -104
t-183.5 -36.5zM474 197q50 0 80 36t37 73v497q-61 -27 -102.5 -50t-66 -50t-35 -65t-10.5 -94v-151q0 -103 21.5 -149.5t75.5 -46.5zM860 906h214v173q0 75 -7 126.5t-28 77.5t-64 26q-53 0 -77.5 -32t-31 -88.5t-6.5 -131.5v-151z" />
    <glyph glyph-name="ccedilla" unicode="&#xe7;" horiz-adv-x="938" 
d="M494 -18q-115 0 -190 35.5t-117.5 102.5t-59.5 163t-17 217v486q0 166 31 285t114.5 183t241.5 64q97 0 164 -30t108 -86.5t59.5 -136.5t18.5 -180v-165h-256v174q0 65 -6 111.5t-27 71t-67 24.5q-45 0 -70 -25t-34.5 -72.5t-9.5 -113.5v-676q0 -68 8.5 -116t32 -73.5
t69.5 -25.5q45 0 67.5 26.5t29.5 74.5t7 113v178h256v-152q0 -103 -18 -187.5t-59 -144.5t-109 -92.5t-167 -32.5zM466 -638q-78 0 -149 26v111q95 0 144.5 20t68 52.5t18.5 69.5q0 68 -49 109t-111 54l40 196h82l15 -141q113 -39 170.5 -107t57.5 -148q0 -63 -33.5 -118
t-97.5 -89.5t-156 -34.5z" />
    <glyph glyph-name="egrave" unicode="&#xe8;" horiz-adv-x="945" 
d="M481 -18q-113 0 -185.5 36t-113 104t-56.5 163.5t-16 213.5v559q0 105 21.5 190t67 145t118.5 92.5t176 32.5q105 0 175 -32t110.5 -93t58 -146.5t17.5 -193.5v-321h-477v-295q0 -109 17 -175t93 -66q51 0 72.5 31t26 85.5t4.5 124.5v132h262v-80q0 -121 -14.5 -215
t-54 -159t-112.5 -99t-190 -34zM376 887h214v192q0 75 -7 126.5t-28 77.5t-64 26q-53 0 -77.5 -31t-31 -84.5t-6.5 -121.5v-185zM466 1640l-203 413h265l94 -413h-156z" />
    <glyph glyph-name="eacute" unicode="&#xe9;" horiz-adv-x="945" 
d="M481 -18q-113 0 -185.5 36t-113 104t-56.5 163.5t-16 213.5v559q0 105 21.5 190t67 145t118.5 92.5t176 32.5q105 0 175 -32t110.5 -93t58 -146.5t17.5 -193.5v-321h-477v-295q0 -109 17 -175t93 -66q51 0 72.5 31t26 85.5t4.5 124.5v132h262v-80q0 -121 -14.5 -215
t-54 -159t-112.5 -99t-190 -34zM376 887h214v192q0 75 -7 126.5t-28 77.5t-64 26q-53 0 -77.5 -31t-31 -84.5t-6.5 -121.5v-185zM324 1640l94 413h265l-203 -413h-156z" />
    <glyph glyph-name="ecircumflex" unicode="&#xea;" horiz-adv-x="945" 
d="M481 -18q-113 0 -185.5 36t-113 104t-56.5 163.5t-16 213.5v559q0 105 21.5 190t67 145t118.5 92.5t176 32.5q105 0 175 -32t110.5 -93t58 -146.5t17.5 -193.5v-321h-477v-295q0 -109 17 -175t93 -66q51 0 72.5 31t26 85.5t4.5 124.5v132h262v-80q0 -121 -14.5 -215
t-54 -159t-112.5 -99t-190 -34zM376 887h214v192q0 75 -7 126.5t-28 77.5t-64 26q-53 0 -77.5 -31t-31 -84.5t-6.5 -121.5v-185zM133 1640l189 337h302l188 -337h-253l-86 236l-86 -236h-254z" />
    <glyph glyph-name="edieresis" unicode="&#xeb;" horiz-adv-x="945" 
d="M481 -18q-113 0 -185.5 36t-113 104t-56.5 163.5t-16 213.5v559q0 105 21.5 190t67 145t118.5 92.5t176 32.5q105 0 175 -32t110.5 -93t58 -146.5t17.5 -193.5v-321h-477v-295q0 -109 17 -175t93 -66q51 0 72.5 31t26 85.5t4.5 124.5v132h262v-80q0 -121 -14.5 -215
t-54 -159t-112.5 -99t-190 -34zM376 887h214v192q0 75 -7 126.5t-28 77.5t-64 26q-53 0 -77.5 -31t-31 -84.5t-6.5 -121.5v-185zM574 1640v226h282v-226h-282zM90 1640v226h282v-226h-282z" />
    <glyph glyph-name="igrave" unicode="&#xec;" horiz-adv-x="537" 
d="M136 0v1500h265v-1500h-265zM262 1640l-203 413h265l94 -413h-156z" />
    <glyph glyph-name="iacute" unicode="&#xed;" horiz-adv-x="537" 
d="M136 0v1500h265v-1500h-265zM120 1640l94 413h265l-203 -413h-156z" />
    <glyph glyph-name="icircumflex" unicode="&#xee;" horiz-adv-x="537" 
d="M136 0v1500h265v-1500h-265zM-71 1640l189 337h302l188 -337h-253l-86 236l-86 -236h-254z" />
    <glyph glyph-name="idieresis" unicode="&#xef;" horiz-adv-x="537" 
d="M136 0v1500h265v-1500h-265zM370 1640v226h282v-226h-282zM-114 1640v226h282v-226h-282z" />
    <glyph glyph-name="eth" unicode="&#xf0;" horiz-adv-x="1013" 
d="M491 -21q-151 0 -237.5 57t-122.5 169.5t-36 277.5v103q0 175 34.5 289.5t110.5 170t201 52.5q58 -1 97.5 -15.5t66.5 -40.5q0 13 -2.5 44t-6.5 72t-10.5 83.5t-15 79t-19.5 57.5l-209 -116l-65 137l189 106q-42 48 -94.5 78t-102.5 47l137 151q78 -12 150.5 -50
t130.5 -106l199 110l66 -137l-179 -98q19 -35 36 -95t30.5 -133.5t23.5 -150.5t15 -145.5t5 -118.5v-330q0 -176 -30 -298.5t-114.5 -186t-247.5 -63.5zM489 212q74 0 100 58t26 186v320q-6 41 -41 69t-92 28q-46 0 -72 -26t-36.5 -83t-10.5 -151v-179q0 -85 11.5 -133.5
t39 -68.5t75.5 -20z" />
    <glyph glyph-name="ntilde" unicode="&#xf1;" horiz-adv-x="1020" 
d="M131 0v1500h265v-172q20 77 84 133.5t157 56.5q130 0 195 -86.5t65 -250.5v-1181h-265v1165q0 65 -29.5 102t-80.5 37q-41 0 -69.5 -22.5t-42.5 -62t-14 -92.5v-1127h-265zM663 1640q-44 0 -94 20.5t-99 41t-91 20.5q-16 0 -23 -2q-16 -4 -26.5 -18.5t-24.5 -40.5
l-130 52q20 68 48 107.5t64 57t80 17.5q41 0 95.5 -18.5t104.5 -37t75 -18.5h4q14 2 27 14t29 57l142 -28l-9 -48q-22 -103 -63.5 -139.5t-108.5 -36.5z" />
    <glyph glyph-name="ograve" unicode="&#xf2;" 
d="M486 -18q-108 0 -181 33.5t-115.5 97t-61 155t-18.5 208.5v561q0 141 36.5 249.5t119.5 170t220 61.5q104 0 175.5 -35t115 -99.5t63.5 -152.5t20 -194v-561q0 -115 -17.5 -206t-60 -155.5t-114.5 -98.5t-182 -34zM486 196q45 0 68 27.5t31 76.5t8 113v671q0 68 -9 117
t-32 76t-66 27q-45 0 -68.5 -27t-32 -76t-8.5 -117v-671q0 -64 8.5 -113t32 -76.5t68.5 -27.5zM478 1640l-203 413h265l94 -413h-156z" />
    <glyph glyph-name="oacute" unicode="&#xf3;" 
d="M486 -18q-108 0 -181 33.5t-115.5 97t-61 155t-18.5 208.5v561q0 141 36.5 249.5t119.5 170t220 61.5q104 0 175.5 -35t115 -99.5t63.5 -152.5t20 -194v-561q0 -115 -17.5 -206t-60 -155.5t-114.5 -98.5t-182 -34zM486 196q45 0 68 27.5t31 76.5t8 113v671q0 68 -9 117
t-32 76t-66 27q-45 0 -68.5 -27t-32 -76t-8.5 -117v-671q0 -64 8.5 -113t32 -76.5t68.5 -27.5zM336 1640l94 413h265l-203 -413h-156z" />
    <glyph glyph-name="ocircumflex" unicode="&#xf4;" 
d="M486 -18q-108 0 -181 33.5t-115.5 97t-61 155t-18.5 208.5v561q0 141 36.5 249.5t119.5 170t220 61.5q104 0 175.5 -35t115 -99.5t63.5 -152.5t20 -194v-561q0 -115 -17.5 -206t-60 -155.5t-114.5 -98.5t-182 -34zM486 196q45 0 68 27.5t31 76.5t8 113v671q0 68 -9 117
t-32 76t-66 27q-45 0 -68.5 -27t-32 -76t-8.5 -117v-671q0 -64 8.5 -113t32 -76.5t68.5 -27.5zM145 1640l189 337h302l188 -337h-253l-86 236l-86 -236h-254z" />
    <glyph glyph-name="otilde" unicode="&#xf5;" 
d="M486 -18q-108 0 -181 33.5t-115.5 97t-61 155t-18.5 208.5v561q0 141 36.5 249.5t119.5 170t220 61.5q104 0 175.5 -35t115 -99.5t63.5 -152.5t20 -194v-561q0 -115 -17.5 -206t-60 -155.5t-114.5 -98.5t-182 -34zM486 196q45 0 68 27.5t31 76.5t8 113v671q0 68 -9 117
t-32 76t-66 27q-45 0 -68.5 -27t-32 -76t-8.5 -117v-671q0 -64 8.5 -113t32 -76.5t68.5 -27.5zM638 1640q-44 0 -94 20.5t-99 41t-91 20.5q-16 0 -23 -2q-16 -4 -26.5 -18.5t-24.5 -40.5l-130 52q20 68 48 107.5t64 57t80 17.5q41 0 95.5 -18.5t104.5 -37t75 -18.5h4
q14 2 27 14t29 57l142 -28l-9 -48q-22 -103 -63.5 -139.5t-108.5 -36.5z" />
    <glyph glyph-name="odieresis" unicode="&#xf6;" 
d="M486 -18q-108 0 -181 33.5t-115.5 97t-61 155t-18.5 208.5v561q0 141 36.5 249.5t119.5 170t220 61.5q104 0 175.5 -35t115 -99.5t63.5 -152.5t20 -194v-561q0 -115 -17.5 -206t-60 -155.5t-114.5 -98.5t-182 -34zM486 196q45 0 68 27.5t31 76.5t8 113v671q0 68 -9 117
t-32 76t-66 27q-45 0 -68.5 -27t-32 -76t-8.5 -117v-671q0 -64 8.5 -113t32 -76.5t68.5 -27.5zM586 1640v226h282v-226h-282zM102 1640v226h282v-226h-282z" />
    <glyph glyph-name="divide" unicode="&#xf7;" horiz-adv-x="804" 
d="M94 638v232h616v-232h-616zM253 237v298h298v-298h-298zM253 976v298h298v-298h-298z" />
    <glyph glyph-name="oslash" unicode="&#xf8;" horiz-adv-x="879" 
d="M284 -173l-100 28l509 1817l101 -28zM486 -18q-108 0 -181 33.5t-115.5 97t-61 155t-18.5 208.5v561q0 141 36.5 249.5t119.5 170t220 61.5q104 0 175.5 -35t115 -99.5t63.5 -152.5t20 -194v-561q0 -115 -17.5 -206t-60 -155.5t-114.5 -98.5t-182 -34zM486 196
q45 0 68 27.5t31 76.5t8 113v671q0 68 -9 117t-32 76t-66 27q-45 0 -68.5 -27t-32 -76t-8.5 -117v-671q0 -64 8.5 -113t32 -76.5t68.5 -27.5z" />
    <glyph glyph-name="ugrave" unicode="&#xf9;" horiz-adv-x="1010" 
d="M389 -19q-89 0 -148.5 40t-89 119.5t-29.5 199.5v1160h266v-1119q0 -86 21 -134t88 -48q70 0 95.5 54.5t25.5 125.5l1 1121h264v-1500h-265v156q-28 -76 -81 -125.5t-148 -49.5zM498 1640l-203 413h265l94 -413h-156z" />
    <glyph glyph-name="uacute" unicode="&#xfa;" horiz-adv-x="1010" 
d="M389 -19q-89 0 -148.5 40t-89 119.5t-29.5 199.5v1160h266v-1119q0 -86 21 -134t88 -48q70 0 95.5 54.5t25.5 125.5l1 1121h264v-1500h-265v156q-28 -76 -81 -125.5t-148 -49.5zM356 1640l94 413h265l-203 -413h-156z" />
    <glyph glyph-name="ucircumflex" unicode="&#xfb;" horiz-adv-x="1010" 
d="M389 -19q-89 0 -148.5 40t-89 119.5t-29.5 199.5v1160h266v-1119q0 -86 21 -134t88 -48q70 0 95.5 54.5t25.5 125.5l1 1121h264v-1500h-265v156q-28 -76 -81 -125.5t-148 -49.5zM165 1640l189 337h302l188 -337h-253l-86 236l-86 -236h-254z" />
    <glyph glyph-name="udieresis" unicode="&#xfc;" horiz-adv-x="1010" 
d="M389 -19q-89 0 -148.5 40t-89 119.5t-29.5 199.5v1160h266v-1119q0 -86 21 -134t88 -48q70 0 95.5 54.5t25.5 125.5l1 1121h264v-1500h-265v156q-28 -76 -81 -125.5t-148 -49.5zM606 1640v226h282v-226h-282zM122 1640v226h282v-226h-282z" />
    <glyph glyph-name="yacute" unicode="&#xfd;" horiz-adv-x="859" 
d="M89 -265v183h87q44 0 74 7.5t34 32.5q7 13 5 46.5t-6 63.5l-240 1432h252l96 -767l40 -404h22l36 404l88 767h251l-260 -1564q-11 -71 -30.5 -115.5t-58.5 -65t-108 -20.5h-282zM281 1640l94 413h265l-203 -413h-156z" />
    <glyph glyph-name="thorn" unicode="&#xfe;" horiz-adv-x="1000" 
d="M133 -285v2060h266v-410q29 74 89.5 112t123.5 38q115 0 173.5 -61.5t79 -167.5t20.5 -238v-547q0 -144 -19.5 -262t-83.5 -187.5t-196 -69.5q-61 0 -109.5 33t-77.5 76v-376h-266zM515 198q67 0 86 65.5t19 187.5v618q0 65 -6 117.5t-28 83.5t-69 31q-37 0 -63.5 -19
t-40.5 -69t-14 -143v-630q0 -115 21.5 -178.5t94.5 -63.5z" />
    <glyph glyph-name="ydieresis" unicode="&#xff;" horiz-adv-x="859" 
d="M89 -265v183h87q44 0 74 7.5t34 32.5q7 13 5 46.5t-6 63.5l-240 1432h252l96 -767l40 -404h22l36 404l88 767h251l-260 -1564q-11 -71 -30.5 -115.5t-58.5 -65t-108 -20.5h-282zM531 1640v226h282v-226h-282zM47 1640v226h282v-226h-282z" />
    <glyph glyph-name="Amacron" unicode="&#x100;" horiz-adv-x="927" 
d="M28 0l251 1760h354l267 -1760h-250l-42 314h-284l-38 -314h-258zM350 529h230l-118 884h-4zM176 1950v182h556v-182h-556z" />
    <glyph glyph-name="amacron" unicode="&#x101;" 
d="M376 -15q-154 0 -213.5 112t-61.5 297v96q0 120 34.5 195t98.5 122t153 82t198 75v131q0 76 -6 121.5t-27 66.5t-65 21q-43 0 -65.5 -21.5t-30.5 -66t-8 -113.5v-67h-262v45q0 103 17.5 184t59.5 137.5t114.5 86t182.5 29.5q97 0 166 -27.5t112 -82t63 -136.5t20 -191
v-1081h-267v149q-12 -43 -41 -80.5t-72.5 -60.5t-99.5 -23zM468 189q50 0 80 36t37 73v516q-60 -27 -101 -50.5t-66 -51.5t-36 -66t-11 -93v-168q0 -103 21.5 -149.5t75.5 -46.5zM207 1690v182h556v-182h-556z" />
    <glyph glyph-name="Abreve" unicode="&#x102;" horiz-adv-x="927" 
d="M28 0l251 1760h354l267 -1760h-250l-42 314h-284l-38 -314h-258zM350 529h230l-118 884h-4zM453 1900q-139 0 -210 66t-71 196v15h150q0 -82 39 -107t94 -25q53 0 91.5 24t38.5 108h151v-13q0 -131 -69.5 -197.5t-213.5 -66.5z" />
    <glyph glyph-name="abreve" unicode="&#x103;" 
d="M376 -15q-154 0 -213.5 112t-61.5 297v96q0 120 34.5 195t98.5 122t153 82t198 75v131q0 76 -6 121.5t-27 66.5t-65 21q-43 0 -65.5 -21.5t-30.5 -66t-8 -113.5v-67h-262v45q0 103 17.5 184t59.5 137.5t114.5 86t182.5 29.5q97 0 166 -27.5t112 -82t63 -136.5t20 -191
v-1081h-267v149q-12 -43 -41 -80.5t-72.5 -60.5t-99.5 -23zM468 189q50 0 80 36t37 73v516q-60 -27 -101 -50.5t-66 -51.5t-36 -66t-11 -93v-168q0 -103 21.5 -149.5t75.5 -46.5zM484 1640q-139 0 -210 66t-71 196v15h150q0 -82 39 -107t94 -25q53 0 91.5 24t38.5 108h151
v-13q0 -131 -69.5 -197.5t-213.5 -66.5z" />
    <glyph glyph-name="Aogonek" unicode="&#x104;" horiz-adv-x="927" 
d="M28 0l251 1760h354l267 -1760h-250l-42 314h-284l-38 -314h-258zM350 529h230l-118 884h-4zM750 -626q-93 0 -156.5 30t-96 85t-32.5 129q0 97 66.5 202.5t199.5 179.5h107q-76 -79 -128 -168.5t-52 -170.5q0 -66 42 -97.5t110 -31.5q38 0 68.5 6.5t40.5 8.5v-138
q-17 -10 -67.5 -22.5t-101.5 -12.5z" />
    <glyph glyph-name="aogonek" unicode="&#x105;" 
d="M376 -15q-154 0 -213.5 112t-61.5 297v96q0 120 34.5 195t98.5 122t153 82t198 75v131q0 76 -6 121.5t-27 66.5t-65 21q-43 0 -65.5 -21.5t-30.5 -66t-8 -113.5v-67h-262v45q0 103 17.5 184t59.5 137.5t114.5 86t182.5 29.5q97 0 166 -27.5t112 -82t63 -136.5t20 -191
v-1081h-267v149q-12 -43 -41 -80.5t-72.5 -60.5t-99.5 -23zM468 189q50 0 80 36t37 73v516q-60 -27 -101 -50.5t-66 -51.5t-36 -66t-11 -93v-168q0 -103 21.5 -149.5t75.5 -46.5zM708 -626q-93 0 -156.5 30t-96 85t-32.5 129q0 97 66.5 202.5t199.5 179.5h107
q-76 -79 -128 -168.5t-52 -170.5q0 -66 42 -97.5t110 -31.5q38 0 68.5 6.5t40.5 8.5v-138q-17 -10 -67.5 -22.5t-101.5 -12.5z" />
    <glyph glyph-name="Cacute" unicode="&#x106;" horiz-adv-x="969" 
d="M493 -20q-128 0 -213 59t-127.5 172.5t-42.5 274.5v767q0 121 20 218t65 166t120 106t185 37q100 0 170.5 -32.5t115 -93.5t65 -147.5t20.5 -194.5v-242h-259v225q0 130 -22 191.5t-88 61.5q-73 0 -97.5 -66.5t-24.5 -185.5v-822q0 -92 10.5 -150.5t35.5 -86t70 -27.5
q68 0 92 64t24 203v252h263v-249q0 -167 -39 -278.5t-123.5 -166.5t-219.5 -55zM336 1900l94 413h265l-203 -413h-156z" />
    <glyph glyph-name="cacute" unicode="&#x107;" horiz-adv-x="938" 
d="M494 -18q-115 0 -190 35.5t-117.5 102.5t-59.5 163t-17 217v486q0 166 31 285t114.5 183t241.5 64q97 0 164 -30t108 -86.5t59.5 -136.5t18.5 -180v-165h-256v174q0 65 -6 111.5t-27 71t-67 24.5q-45 0 -70 -25t-34.5 -72.5t-9.5 -113.5v-676q0 -68 8.5 -116t32 -73.5
t69.5 -25.5q45 0 67.5 26.5t29.5 74.5t7 113v178h256v-152q0 -103 -18 -187.5t-59 -144.5t-109 -92.5t-167 -32.5zM320 1640l94 413h265l-203 -413h-156z" />
    <glyph glyph-name="Ccircumflex" unicode="&#x108;" horiz-adv-x="969" 
d="M493 -20q-128 0 -213 59t-127.5 172.5t-42.5 274.5v767q0 121 20 218t65 166t120 106t185 37q100 0 170.5 -32.5t115 -93.5t65 -147.5t20.5 -194.5v-242h-259v225q0 130 -22 191.5t-88 61.5q-73 0 -97.5 -66.5t-24.5 -185.5v-822q0 -92 10.5 -150.5t35.5 -86t70 -27.5
q68 0 92 64t24 203v252h263v-249q0 -167 -39 -278.5t-123.5 -166.5t-219.5 -55zM145 1900l189 337h302l188 -337h-253l-86 236l-86 -236h-254z" />
    <glyph glyph-name="ccircumflex" unicode="&#x109;" horiz-adv-x="938" 
d="M494 -18q-115 0 -190 35.5t-117.5 102.5t-59.5 163t-17 217v486q0 166 31 285t114.5 183t241.5 64q97 0 164 -30t108 -86.5t59.5 -136.5t18.5 -180v-165h-256v174q0 65 -6 111.5t-27 71t-67 24.5q-45 0 -70 -25t-34.5 -72.5t-9.5 -113.5v-676q0 -68 8.5 -116t32 -73.5
t69.5 -25.5q45 0 67.5 26.5t29.5 74.5t7 113v178h256v-152q0 -103 -18 -187.5t-59 -144.5t-109 -92.5t-167 -32.5zM129 1640l189 337h302l188 -337h-253l-86 236l-86 -236h-254z" />
    <glyph glyph-name="Cdotaccent" unicode="&#x10a;" horiz-adv-x="969" 
d="M493 -20q-128 0 -213 59t-127.5 172.5t-42.5 274.5v767q0 121 20 218t65 166t120 106t185 37q100 0 170.5 -32.5t115 -93.5t65 -147.5t20.5 -194.5v-242h-259v225q0 130 -22 191.5t-88 61.5q-73 0 -97.5 -66.5t-24.5 -185.5v-822q0 -92 10.5 -150.5t35.5 -86t70 -27.5
q68 0 92 64t24 203v252h263v-249q0 -167 -39 -278.5t-123.5 -166.5t-219.5 -55zM351 1898v230h267v-230h-267z" />
    <glyph glyph-name="cdotaccent" unicode="&#x10b;" horiz-adv-x="938" 
d="M494 -18q-115 0 -190 35.5t-117.5 102.5t-59.5 163t-17 217v486q0 166 31 285t114.5 183t241.5 64q97 0 164 -30t108 -86.5t59.5 -136.5t18.5 -180v-165h-256v174q0 65 -6 111.5t-27 71t-67 24.5q-45 0 -70 -25t-34.5 -72.5t-9.5 -113.5v-676q0 -68 8.5 -116t32 -73.5
t69.5 -25.5q45 0 67.5 26.5t29.5 74.5t7 113v178h256v-152q0 -103 -18 -187.5t-59 -144.5t-109 -92.5t-167 -32.5zM335 1638v230h267v-230h-267z" />
    <glyph glyph-name="Ccaron" unicode="&#x10c;" horiz-adv-x="969" 
d="M493 -20q-128 0 -213 59t-127.5 172.5t-42.5 274.5v767q0 121 20 218t65 166t120 106t185 37q100 0 170.5 -32.5t115 -93.5t65 -147.5t20.5 -194.5v-242h-259v225q0 130 -22 191.5t-88 61.5q-73 0 -97.5 -66.5t-24.5 -185.5v-822q0 -92 10.5 -150.5t35.5 -86t70 -27.5
q68 0 92 64t24 203v252h263v-249q0 -167 -39 -278.5t-123.5 -166.5t-219.5 -55zM334 1900l-189 338h254l86 -237l86 237h253l-188 -338h-302z" />
    <glyph glyph-name="ccaron" unicode="&#x10d;" horiz-adv-x="938" 
d="M494 -18q-115 0 -190 35.5t-117.5 102.5t-59.5 163t-17 217v486q0 166 31 285t114.5 183t241.5 64q97 0 164 -30t108 -86.5t59.5 -136.5t18.5 -180v-165h-256v174q0 65 -6 111.5t-27 71t-67 24.5q-45 0 -70 -25t-34.5 -72.5t-9.5 -113.5v-676q0 -68 8.5 -116t32 -73.5
t69.5 -25.5q45 0 67.5 26.5t29.5 74.5t7 113v178h256v-152q0 -103 -18 -187.5t-59 -144.5t-109 -92.5t-167 -32.5zM318 1640l-189 338h254l86 -237l86 237h253l-188 -338h-302z" />
    <glyph glyph-name="Dcaron" unicode="&#x10e;" horiz-adv-x="1008" 
d="M132 0v1760h395q134 0 215 -53.5t117.5 -154.5t36.5 -244l1 -794q0 -173 -37.5 -287.5t-120.5 -170.5t-221 -56h-386zM400 208h88q47 0 78.5 19t47 67.5t15.5 137.5l-1 869q0 135 -33 194t-116 59h-79v-1346zM323 1900l-189 338h254l86 -237l86 237h253l-188 -338h-302z
" />
    <glyph glyph-name="dcaron" unicode="&#x10f;" horiz-adv-x="1219" 
d="M386 -15q-122 0 -181 65.5t-77 177.5t-18 251v611q0 121 29 217.5t94.5 153.5t173.5 57q64 0 115 -30.5t79 -80.5v368h265v-1775h-265v139q-30 -76 -84 -115t-131 -39zM484 196q48 0 73.5 28.5t35 88t9.5 150.5v600q0 110 -21.5 175t-92.5 65q-68 0 -89.5 -63.5
t-21.5 -179.5v-617q0 -77 9.5 -132.5t32.5 -85t65 -29.5zM1016 1208l55 304h-115v263h273v-254l-92 -313h-121z" />
    <glyph glyph-name="Dcroat" unicode="&#x110;" horiz-adv-x="1008" 
d="M132 0v1760h395q134 0 215 -53.5t117.5 -154.5t36.5 -244l1 -794q0 -173 -37.5 -287.5t-120.5 -170.5t-221 -56h-386zM400 208h88q47 0 78.5 19t47 67.5t15.5 137.5l-1 869q0 135 -33 194t-116 59h-79v-1346zM8 826v109h550v-109h-550z" />
    <glyph glyph-name="dcroat" unicode="&#x111;" horiz-adv-x="998" 
d="M386 -15q-122 0 -181 65.5t-77 177.5t-18 251v611q0 121 29 217.5t94.5 153.5t173.5 57q64 0 115 -30.5t79 -80.5v368h265v-1775h-265v139q-30 -76 -84 -115t-131 -39zM484 196q48 0 73.5 28.5t35 88t9.5 150.5v600q0 110 -21.5 175t-92.5 65q-68 0 -89.5 -63.5
t-21.5 -179.5v-617q0 -77 9.5 -132.5t32.5 -85t65 -29.5zM396 1579v109h550v-109h-550z" />
    <glyph glyph-name="Emacron" unicode="&#x112;" horiz-adv-x="800" 
d="M132 0v1760h590v-231h-322v-512h306v-226h-306v-560h334v-231h-602zM142 1950v182h556v-182h-556z" />
    <glyph glyph-name="emacron" unicode="&#x113;" horiz-adv-x="945" 
d="M481 -18q-113 0 -185.5 36t-113 104t-56.5 163.5t-16 213.5v559q0 105 21.5 190t67 145t118.5 92.5t176 32.5q105 0 175 -32t110.5 -93t58 -146.5t17.5 -193.5v-321h-477v-295q0 -109 17 -175t93 -66q51 0 72.5 31t26 85.5t4.5 124.5v132h262v-80q0 -121 -14.5 -215
t-54 -159t-112.5 -99t-190 -34zM376 887h214v192q0 75 -7 126.5t-28 77.5t-64 26q-53 0 -77.5 -31t-31 -84.5t-6.5 -121.5v-185zM195 1690v182h556v-182h-556z" />
    <glyph glyph-name="Ebreve" unicode="&#x114;" horiz-adv-x="800" 
d="M132 0v1760h590v-231h-322v-512h306v-226h-306v-560h334v-231h-602zM419 1900q-139 0 -210 66t-71 196v15h150q0 -82 39 -107t94 -25q53 0 91.5 24t38.5 108h151v-13q0 -131 -69.5 -197.5t-213.5 -66.5z" />
    <glyph glyph-name="ebreve" unicode="&#x115;" horiz-adv-x="945" 
d="M481 -18q-113 0 -185.5 36t-113 104t-56.5 163.5t-16 213.5v559q0 105 21.5 190t67 145t118.5 92.5t176 32.5q105 0 175 -32t110.5 -93t58 -146.5t17.5 -193.5v-321h-477v-295q0 -109 17 -175t93 -66q51 0 72.5 31t26 85.5t4.5 124.5v132h262v-80q0 -121 -14.5 -215
t-54 -159t-112.5 -99t-190 -34zM376 887h214v192q0 75 -7 126.5t-28 77.5t-64 26q-53 0 -77.5 -31t-31 -84.5t-6.5 -121.5v-185zM472 1640q-139 0 -210 66t-71 196v15h150q0 -82 39 -107t94 -25q53 0 91.5 24t38.5 108h151v-13q0 -131 -69.5 -197.5t-213.5 -66.5z" />
    <glyph glyph-name="Edotaccent" unicode="&#x116;" horiz-adv-x="800" 
d="M132 0v1760h590v-231h-322v-512h306v-226h-306v-560h334v-231h-602zM286 1898v230h267v-230h-267z" />
    <glyph glyph-name="edotaccent" unicode="&#x117;" horiz-adv-x="945" 
d="M481 -18q-113 0 -185.5 36t-113 104t-56.5 163.5t-16 213.5v559q0 105 21.5 190t67 145t118.5 92.5t176 32.5q105 0 175 -32t110.5 -93t58 -146.5t17.5 -193.5v-321h-477v-295q0 -109 17 -175t93 -66q51 0 72.5 31t26 85.5t4.5 124.5v132h262v-80q0 -121 -14.5 -215
t-54 -159t-112.5 -99t-190 -34zM376 887h214v192q0 75 -7 126.5t-28 77.5t-64 26q-53 0 -77.5 -31t-31 -84.5t-6.5 -121.5v-185zM339 1638v230h267v-230h-267z" />
    <glyph glyph-name="Eogonek" unicode="&#x118;" horiz-adv-x="800" 
d="M132 0v1760h590v-231h-322v-512h306v-226h-306v-560h334v-231h-602zM592 -626q-93 0 -156.5 30t-96 85t-32.5 129q0 97 66.5 202.5t199.5 179.5h107q-76 -79 -128 -168.5t-52 -170.5q0 -66 42 -97.5t110 -31.5q38 0 68.5 6.5t40.5 8.5v-138q-17 -10 -67.5 -22.5
t-101.5 -12.5z" />
    <glyph glyph-name="eogonek" unicode="&#x119;" horiz-adv-x="945" 
d="M481 -18q-113 0 -185.5 36t-113 104t-56.5 163.5t-16 213.5v559q0 105 21.5 190t67 145t118.5 92.5t176 32.5q105 0 175 -32t110.5 -93t58 -146.5t17.5 -193.5v-321h-477v-295q0 -109 17 -175t93 -66q51 0 72.5 31t26 85.5t4.5 124.5v132h262v-80q0 -121 -14.5 -215
t-54 -159t-112.5 -99t-190 -34zM376 887h214v192q0 75 -7 126.5t-28 77.5t-64 26q-53 0 -77.5 -31t-31 -84.5t-6.5 -121.5v-185zM515 -626q-93 0 -156.5 30t-96 85t-32.5 129q0 97 66.5 202.5t199.5 179.5h107q-76 -79 -128 -168.5t-52 -170.5q0 -66 42 -97.5t110 -31.5
q38 0 68.5 6.5t40.5 8.5v-138q-17 -10 -67.5 -22.5t-101.5 -12.5z" />
    <glyph glyph-name="Ecaron" unicode="&#x11a;" horiz-adv-x="800" 
d="M132 0v1760h590v-231h-322v-512h306v-226h-306v-560h334v-231h-602zM269 1900l-189 338h254l86 -237l86 237h253l-188 -338h-302z" />
    <glyph glyph-name="ecaron" unicode="&#x11b;" horiz-adv-x="945" 
d="M481 -18q-113 0 -185.5 36t-113 104t-56.5 163.5t-16 213.5v559q0 105 21.5 190t67 145t118.5 92.5t176 32.5q105 0 175 -32t110.5 -93t58 -146.5t17.5 -193.5v-321h-477v-295q0 -109 17 -175t93 -66q51 0 72.5 31t26 85.5t4.5 124.5v132h262v-80q0 -121 -14.5 -215
t-54 -159t-112.5 -99t-190 -34zM376 887h214v192q0 75 -7 126.5t-28 77.5t-64 26q-53 0 -77.5 -31t-31 -84.5t-6.5 -121.5v-185zM322 1640l-189 338h254l86 -237l86 237h253l-188 -338h-302z" />
    <glyph glyph-name="Gcircumflex" unicode="&#x11c;" horiz-adv-x="1000" 
d="M463 -18q-159 0 -256 125.5t-97 407.5v765q0 118 22.5 211t70 157.5t123.5 98t183 33.5q116 0 189 -34.5t112.5 -100t54.5 -160.5t15 -215v-125h-250v184q0 119 -24.5 169t-92.5 50q-75 0 -104 -58.5t-29 -207.5v-763q0 -166 24.5 -237.5t102.5 -71.5q76 0 107.5 73.5
t31.5 245.5v237h-135v195h369v-961h-120l-41 173q-22 -91 -93.5 -141t-162.5 -50zM160 1900l189 337h302l188 -337h-253l-86 236l-86 -236h-254z" />
    <glyph glyph-name="gcircumflex" unicode="&#x11d;" horiz-adv-x="990" 
d="M469 -225q-124 -2 -211 23.5t-158 83.5l93 167q53 -34 115.5 -55.5t135.5 -20.5q76 1 116 53t40 139v119q-26 -75 -79.5 -103t-129.5 -28q-106 0 -166.5 56t-85.5 153t-25 220v483q0 131 26 233.5t89 161.5t173 58q77 0 127.5 -39t70.5 -112v133h265v-1315
q0 -89 -20 -163.5t-66 -129t-122 -85t-188 -32.5zM496 354q36 0 59 21.5t34 74t11 146.5v491q0 99 -24 158t-87 59q-48 0 -71 -28t-30 -76.5t-7 -111.5v-494q0 -111 21 -175.5t94 -64.5zM155 1640l189 337h302l188 -337h-253l-86 236l-86 -236h-254z" />
    <glyph glyph-name="Gbreve" unicode="&#x11e;" horiz-adv-x="1000" 
d="M463 -18q-159 0 -256 125.5t-97 407.5v765q0 118 22.5 211t70 157.5t123.5 98t183 33.5q116 0 189 -34.5t112.5 -100t54.5 -160.5t15 -215v-125h-250v184q0 119 -24.5 169t-92.5 50q-75 0 -104 -58.5t-29 -207.5v-763q0 -166 24.5 -237.5t102.5 -71.5q76 0 107.5 73.5
t31.5 245.5v237h-135v195h369v-961h-120l-41 173q-22 -91 -93.5 -141t-162.5 -50zM499 1900q-139 0 -210 66t-71 196v15h150q0 -82 39 -107t94 -25q53 0 91.5 24t38.5 108h151v-13q0 -131 -69.5 -197.5t-213.5 -66.5z" />
    <glyph glyph-name="gbreve" unicode="&#x11f;" horiz-adv-x="990" 
d="M469 -225q-124 -2 -211 23.5t-158 83.5l93 167q53 -34 115.5 -55.5t135.5 -20.5q76 1 116 53t40 139v119q-26 -75 -79.5 -103t-129.5 -28q-106 0 -166.5 56t-85.5 153t-25 220v483q0 131 26 233.5t89 161.5t173 58q77 0 127.5 -39t70.5 -112v133h265v-1315
q0 -89 -20 -163.5t-66 -129t-122 -85t-188 -32.5zM496 354q36 0 59 21.5t34 74t11 146.5v491q0 99 -24 158t-87 59q-48 0 -71 -28t-30 -76.5t-7 -111.5v-494q0 -111 21 -175.5t94 -64.5zM494 1640q-139 0 -210 66t-71 196v15h150q0 -82 39 -107t94 -25q53 0 91.5 24
t38.5 108h151v-13q0 -131 -69.5 -197.5t-213.5 -66.5z" />
    <glyph glyph-name="Gdotaccent" unicode="&#x120;" horiz-adv-x="1000" 
d="M463 -18q-159 0 -256 125.5t-97 407.5v765q0 118 22.5 211t70 157.5t123.5 98t183 33.5q116 0 189 -34.5t112.5 -100t54.5 -160.5t15 -215v-125h-250v184q0 119 -24.5 169t-92.5 50q-75 0 -104 -58.5t-29 -207.5v-763q0 -166 24.5 -237.5t102.5 -71.5q76 0 107.5 73.5
t31.5 245.5v237h-135v195h369v-961h-120l-41 173q-22 -91 -93.5 -141t-162.5 -50zM366 1898v230h267v-230h-267z" />
    <glyph glyph-name="gdotaccent" unicode="&#x121;" horiz-adv-x="990" 
d="M469 -225q-124 -2 -211 23.5t-158 83.5l93 167q53 -34 115.5 -55.5t135.5 -20.5q76 1 116 53t40 139v119q-26 -75 -79.5 -103t-129.5 -28q-106 0 -166.5 56t-85.5 153t-25 220v483q0 131 26 233.5t89 161.5t173 58q77 0 127.5 -39t70.5 -112v133h265v-1315
q0 -89 -20 -163.5t-66 -129t-122 -85t-188 -32.5zM496 354q36 0 59 21.5t34 74t11 146.5v491q0 99 -24 158t-87 59q-48 0 -71 -28t-30 -76.5t-7 -111.5v-494q0 -111 21 -175.5t94 -64.5zM361 1638v230h267v-230h-267z" />
    <glyph glyph-name="uni0122" unicode="&#x122;" horiz-adv-x="1000" 
d="M463 -18q-159 0 -256 125.5t-97 407.5v765q0 118 22.5 211t70 157.5t123.5 98t183 33.5q116 0 189 -34.5t112.5 -100t54.5 -160.5t15 -215v-125h-250v184q0 119 -24.5 169t-92.5 50q-75 0 -104 -58.5t-29 -207.5v-763q0 -166 24.5 -237.5t102.5 -71.5q76 0 107.5 73.5
t31.5 245.5v237h-135v195h369v-961h-120l-41 173q-22 -91 -93.5 -141t-162.5 -50zM423 -689l55 304h-115v263h273v-254l-92 -313h-121z" />
    <glyph glyph-name="uni0123" unicode="&#x123;" horiz-adv-x="990" 
d="M469 -225q-124 -2 -211 23.5t-158 83.5l93 167q53 -34 115.5 -55.5t135.5 -20.5q76 1 116 53t40 139v119q-26 -75 -79.5 -103t-129.5 -28q-106 0 -166.5 56t-85.5 153t-25 220v483q0 131 26 233.5t89 161.5t173 58q77 0 127.5 -39t70.5 -112v133h265v-1315
q0 -89 -20 -163.5t-66 -129t-122 -85t-188 -32.5zM496 354q36 0 59 21.5t34 74t11 146.5v491q0 99 -24 158t-87 59q-48 0 -71 -28t-30 -76.5t-7 -111.5v-494q0 -111 21 -175.5t94 -64.5zM572 2189l-55 -304h115v-263h-273v254l92 313h121z" />
    <glyph glyph-name="Hcircumflex" unicode="&#x124;" horiz-adv-x="1040" 
d="M132 0v1760h268v-712h240v712h268v-1760h-268v818h-240v-818h-268zM180 1900l189 337h302l188 -337h-253l-86 236l-86 -236h-254z" />
    <glyph glyph-name="hcircumflex" unicode="&#x125;" horiz-adv-x="1020" 
d="M135 0v1775h265v-447q20 77 80.5 133.5t152.5 56.5q131 0 197.5 -86.5t66.5 -250.5v-1181h-264v1156q0 72 -27.5 108.5t-78.5 36.5q-41 0 -69.5 -23t-43 -65t-14.5 -98v-1115h-265zM-69 1915l189 337h302l188 -337h-253l-86 236l-86 -236h-254z" />
    <glyph glyph-name="Hbar" unicode="&#x126;" horiz-adv-x="1040" 
d="M55 1378v131h950v-131h-950zM132 0v1760h268v-712h240v712h268v-1760h-268v818h-240v-818h-268z" />
    <glyph glyph-name="hbar" unicode="&#x127;" horiz-adv-x="1020" 
d="M135 0v1775h265v-447q20 77 80.5 133.5t152.5 56.5q131 0 197.5 -86.5t66.5 -250.5v-1181h-264v1156q0 72 -27.5 108.5t-78.5 36.5q-41 0 -69.5 -23t-43 -65t-14.5 -98v-1115h-265zM46 1579v109h550v-109h-550z" />
    <glyph glyph-name="Itilde" unicode="&#x128;" horiz-adv-x="543" 
d="M138 0v1760h268v-1760h-268zM425 1900q-44 0 -94 20.5t-99 41t-91 20.5q-16 0 -23 -2q-16 -4 -26.5 -18.5t-24.5 -40.5l-130 52q20 68 48 107.5t64 57t80 17.5q41 0 95.5 -18.5t104.5 -37t75 -18.5h4q14 2 27 14t29 57l142 -28l-9 -48q-22 -103 -63.5 -139.5
t-108.5 -36.5z" />
    <glyph glyph-name="itilde" unicode="&#x129;" horiz-adv-x="537" 
d="M136 0v1500h265v-1500h-265zM422 1640q-44 0 -94 20.5t-99 41t-91 20.5q-16 0 -23 -2q-16 -4 -26.5 -18.5t-24.5 -40.5l-130 52q20 68 48 107.5t64 57t80 17.5q41 0 95.5 -18.5t104.5 -37t75 -18.5h4q14 2 27 14t29 57l142 -28l-9 -48q-22 -103 -63.5 -139.5
t-108.5 -36.5z" />
    <glyph glyph-name="Imacron" unicode="&#x12a;" horiz-adv-x="543" 
d="M138 0v1760h268v-1760h-268zM-6 1950v182h556v-182h-556z" />
    <glyph glyph-name="imacron" unicode="&#x12b;" horiz-adv-x="537" 
d="M136 0v1500h265v-1500h-265zM-9 1690v182h556v-182h-556z" />
    <glyph glyph-name="Ibreve" unicode="&#x12c;" horiz-adv-x="543" 
d="M138 0v1760h268v-1760h-268zM271 1900q-139 0 -210 66t-71 196v15h150q0 -82 39 -107t94 -25q53 0 91.5 24t38.5 108h151v-13q0 -131 -69.5 -197.5t-213.5 -66.5z" />
    <glyph glyph-name="ibreve" unicode="&#x12d;" horiz-adv-x="537" 
d="M136 0v1500h265v-1500h-265zM268 1640q-139 0 -210 66t-71 196v15h150q0 -82 39 -107t94 -25q53 0 91.5 24t38.5 108h151v-13q0 -131 -69.5 -197.5t-213.5 -66.5z" />
    <glyph glyph-name="Iogonek" unicode="&#x12e;" horiz-adv-x="543" 
d="M138 0v1760h268v-1760h-268zM258 -626q-93 0 -156.5 30t-96 85t-32.5 129q0 97 66.5 202.5t199.5 179.5h107q-76 -79 -128 -168.5t-52 -170.5q0 -66 42 -97.5t110 -31.5q38 0 68.5 6.5t40.5 8.5v-138q-17 -10 -67.5 -22.5t-101.5 -12.5z" />
    <glyph glyph-name="iogonek" unicode="&#x12f;" horiz-adv-x="537" 
d="M136 0v1500h265v-1500h-265zM135 1638v230h267v-230h-267zM273 -626q-93 0 -156.5 30t-96 85t-32.5 129q0 97 66.5 202.5t199.5 179.5h107q-76 -79 -128 -168.5t-52 -170.5q0 -66 42 -97.5t110 -31.5q38 0 68.5 6.5t40.5 8.5v-138q-17 -10 -67.5 -22.5t-101.5 -12.5z" />
    <glyph glyph-name="Idotaccent" unicode="&#x130;" horiz-adv-x="543" 
d="M138 0v1760h268v-1760h-268zM138 1898v230h267v-230h-267z" />
    <glyph glyph-name="dotlessi" unicode="&#x131;" horiz-adv-x="537" 
d="M136 0v1500h265v-1500h-265z" />
    <glyph glyph-name="IJ" unicode="&#x132;" horiz-adv-x="1489" 
d="M138 0v1760h268v-1760h-268zM992 -20q-173 0 -269.5 103.5t-96.5 305.5v314h259v-301q0 -52 6.5 -96t27.5 -70t65 -26t65 25.5t28 72t7 110.5v1342h268v-1329q0 -217 -95.5 -334t-264.5 -117z" />
    <glyph glyph-name="ij" unicode="&#x133;" horiz-adv-x="1093" 
d="M136 0v1500h265v-1500h-265zM135 1638v230h267v-230h-267zM758 -197q-56 0 -96 5t-65 12v185q11 -2 21.5 -3t23.5 -1q36 0 49.5 20t13.5 48v1431h265v-1421q0 -94 -26 -155t-73.5 -91t-112.5 -30zM701 1638v230h267v-230h-267z" />
    <glyph glyph-name="Jcircumflex" unicode="&#x134;" horiz-adv-x="946" 
d="M449 -20q-173 0 -269.5 103.5t-96.5 305.5v314h259v-301q0 -52 6.5 -96t27.5 -70t65 -26t65 25.5t28 72t7 110.5v1342h268v-1329q0 -217 -95.5 -334t-264.5 -117zM343 1900l189 337h302l188 -337h-253l-86 236l-86 -236h-254z" />
    <glyph glyph-name="jcircumflex" unicode="&#x135;" horiz-adv-x="556" 
d="M221 -197q-56 0 -96 5t-65 12v185q11 -2 21.5 -3t23.5 -1q36 0 49.5 20t13.5 48v1431h265v-1421q0 -94 -26 -155t-73.5 -91t-112.5 -30zM-42 1640l189 337h302l188 -337h-253l-86 236l-86 -236h-254z" />
    <glyph glyph-name="uni0136" unicode="&#x136;" horiz-adv-x="981" 
d="M132 0v1760h268v-810l268 810h277l-292 -868l315 -892h-283l-283 822v-822h-270zM444 -689l55 304h-115v263h273v-254l-92 -313h-121z" />
    <glyph glyph-name="uni0137" unicode="&#x137;" horiz-adv-x="961" 
d="M135 0v1775h265v-957l256 682h269l-289 -738l306 -762h-270l-272 713v-713h-265zM404 -689l55 304h-115v263h273v-254l-92 -313h-121z" />
    <glyph glyph-name="kgreenlandic" unicode="&#x138;" horiz-adv-x="937" 
d="M132 0v1500h265v-682l256 682h269l-289 -738l306 -762h-270l-272 713v-713h-265z" />
    <glyph glyph-name="Lacute" unicode="&#x139;" horiz-adv-x="752" 
d="M132 0v1760h268v-1532h339v-228h-607zM147 1900l94 413h265l-203 -413h-156z" />
    <glyph glyph-name="lacute" unicode="&#x13a;" horiz-adv-x="531" 
d="M132 0v1775h264v-1775h-264zM117 1915l94 413h265l-203 -413h-156z" />
    <glyph glyph-name="uni013B" unicode="&#x13b;" horiz-adv-x="752" 
d="M132 0v1760h268v-1532h339v-228h-607zM339 -689l55 304h-115v263h273v-254l-92 -313h-121z" />
    <glyph glyph-name="uni013C" unicode="&#x13c;" horiz-adv-x="531" 
d="M132 0v1775h264v-1775h-264zM189 -689l55 304h-115v263h273v-254l-92 -313h-121z" />
    <glyph glyph-name="Lcaron" unicode="&#x13d;" horiz-adv-x="873" 
d="M132 0v1760h268v-1532h339v-228h-607zM670 1193l55 304h-115v263h273v-254l-92 -313h-121z" />
    <glyph glyph-name="lcaron" unicode="&#x13e;" horiz-adv-x="744" 
d="M132 0v1775h264v-1775h-264zM541 1208l55 304h-115v263h273v-254l-92 -313h-121z" />
    <glyph glyph-name="Ldot" unicode="&#x13f;" horiz-adv-x="812" 
d="M132 0v1760h268v-1532h339v-228h-607zM563 750v245h231v-245h-231z" />
    <glyph glyph-name="ldot" unicode="&#x140;" horiz-adv-x="731" 
d="M132 0v1775h264v-1775h-264zM513 707v245h231v-245h-231z" />
    <glyph glyph-name="Lslash" unicode="&#x141;" horiz-adv-x="794" 
d="M-1 732v184l616 229v-184zM132 0v1760h268v-1532h339v-228h-607z" />
    <glyph glyph-name="lslash" unicode="&#x142;" horiz-adv-x="640" 
d="M49 728v193l542 232v-193zM173 0v1775h264v-1775h-264z" />
    <glyph glyph-name="Nacute" unicode="&#x143;" horiz-adv-x="1069" 
d="M132 0v1760h210l373 -1056l-19 480v576h241v-1760h-190l-383 1093l15 -462v-631h-247zM386 1900l94 413h265l-203 -413h-156z" />
    <glyph glyph-name="nacute" unicode="&#x144;" horiz-adv-x="1020" 
d="M131 0v1500h265v-172q20 77 84 133.5t157 56.5q130 0 195 -86.5t65 -250.5v-1181h-265v1165q0 65 -29.5 102t-80.5 37q-41 0 -69.5 -22.5t-42.5 -62t-14 -92.5v-1127h-265zM361 1640l94 413h265l-203 -413h-156z" />
    <glyph glyph-name="uni0145" unicode="&#x145;" horiz-adv-x="1069" 
d="M132 0v1760h210l373 -1056l-19 480v576h241v-1760h-190l-383 1093l15 -462v-631h-247zM458 -689l55 304h-115v263h273v-254l-92 -313h-121z" />
    <glyph glyph-name="uni0146" unicode="&#x146;" horiz-adv-x="1020" 
d="M131 0v1500h265v-172q20 77 84 133.5t157 56.5q130 0 195 -86.5t65 -250.5v-1181h-265v1165q0 65 -29.5 102t-80.5 37q-41 0 -69.5 -22.5t-42.5 -62t-14 -92.5v-1127h-265zM433 -689l55 304h-115v263h273v-254l-92 -313h-121z" />
    <glyph glyph-name="Ncaron" unicode="&#x147;" horiz-adv-x="1069" 
d="M132 0v1760h210l373 -1056l-19 480v576h241v-1760h-190l-383 1093l15 -462v-631h-247zM384 1900l-189 338h254l86 -237l86 237h253l-188 -338h-302z" />
    <glyph glyph-name="ncaron" unicode="&#x148;" horiz-adv-x="1020" 
d="M131 0v1500h265v-172q20 77 84 133.5t157 56.5q130 0 195 -86.5t65 -250.5v-1181h-265v1165q0 65 -29.5 102t-80.5 37q-41 0 -69.5 -22.5t-42.5 -62t-14 -92.5v-1127h-265zM359 1640l-189 338h254l86 -237l86 237h253l-188 -338h-302z" />
    <glyph glyph-name="Omacron" unicode="&#x14c;" horiz-adv-x="999" 
d="M502 -20q-137 0 -223.5 58t-127.5 172t-41 282v805q0 152 40 260t127 166t228 58q106 0 179 -33t118 -95.5t65.5 -152t20.5 -203.5v-805q0 -168 -39.5 -282t-124.5 -172t-222 -58zM502 212q50 0 75 30t33.5 91.5t8.5 155.5v820q0 115 -21.5 177.5t-92.5 62.5
q-73 0 -99 -60.5t-26 -178.5v-821q0 -96 8.5 -157.5t35 -90.5t78.5 -29zM222 1950v182h556v-182h-556z" />
    <glyph glyph-name="omacron" unicode="&#x14d;" 
d="M486 -18q-108 0 -181 33.5t-115.5 97t-61 155t-18.5 208.5v561q0 141 36.5 249.5t119.5 170t220 61.5q104 0 175.5 -35t115 -99.5t63.5 -152.5t20 -194v-561q0 -115 -17.5 -206t-60 -155.5t-114.5 -98.5t-182 -34zM486 196q45 0 68 27.5t31 76.5t8 113v671q0 68 -9 117
t-32 76t-66 27q-45 0 -68.5 -27t-32 -76t-8.5 -117v-671q0 -64 8.5 -113t32 -76.5t68.5 -27.5zM207 1690v182h556v-182h-556z" />
    <glyph glyph-name="Obreve" unicode="&#x14e;" horiz-adv-x="999" 
d="M502 -20q-137 0 -223.5 58t-127.5 172t-41 282v805q0 152 40 260t127 166t228 58q106 0 179 -33t118 -95.5t65.5 -152t20.5 -203.5v-805q0 -168 -39.5 -282t-124.5 -172t-222 -58zM502 212q50 0 75 30t33.5 91.5t8.5 155.5v820q0 115 -21.5 177.5t-92.5 62.5
q-73 0 -99 -60.5t-26 -178.5v-821q0 -96 8.5 -157.5t35 -90.5t78.5 -29zM499 1900q-139 0 -210 66t-71 196v15h150q0 -82 39 -107t94 -25q53 0 91.5 24t38.5 108h151v-13q0 -131 -69.5 -197.5t-213.5 -66.5z" />
    <glyph glyph-name="obreve" unicode="&#x14f;" 
d="M486 -18q-108 0 -181 33.5t-115.5 97t-61 155t-18.5 208.5v561q0 141 36.5 249.5t119.5 170t220 61.5q104 0 175.5 -35t115 -99.5t63.5 -152.5t20 -194v-561q0 -115 -17.5 -206t-60 -155.5t-114.5 -98.5t-182 -34zM486 196q45 0 68 27.5t31 76.5t8 113v671q0 68 -9 117
t-32 76t-66 27q-45 0 -68.5 -27t-32 -76t-8.5 -117v-671q0 -64 8.5 -113t32 -76.5t68.5 -27.5zM484 1640q-139 0 -210 66t-71 196v15h150q0 -82 39 -107t94 -25q53 0 91.5 24t38.5 108h151v-13q0 -131 -69.5 -197.5t-213.5 -66.5z" />
    <glyph glyph-name="Ohungarumlaut" unicode="&#x150;" horiz-adv-x="999" 
d="M502 -20q-137 0 -223.5 58t-127.5 172t-41 282v805q0 152 40 260t127 166t228 58q106 0 179 -33t118 -95.5t65.5 -152t20.5 -203.5v-805q0 -168 -39.5 -282t-124.5 -172t-222 -58zM502 212q50 0 75 30t33.5 91.5t8.5 155.5v820q0 115 -21.5 177.5t-92.5 62.5
q-73 0 -99 -60.5t-26 -178.5v-821q0 -96 8.5 -157.5t35 -90.5t78.5 -29zM636 1900l-123 53l206 412l191 -103zM312 1900l-123 53l169 412l187 -103z" />
    <glyph glyph-name="ohungarumlaut" unicode="&#x151;" 
d="M486 -18q-108 0 -181 33.5t-115.5 97t-61 155t-18.5 208.5v561q0 141 36.5 249.5t119.5 170t220 61.5q104 0 175.5 -35t115 -99.5t63.5 -152.5t20 -194v-561q0 -115 -17.5 -206t-60 -155.5t-114.5 -98.5t-182 -34zM486 196q45 0 68 27.5t31 76.5t8 113v671q0 68 -9 117
t-32 76t-66 27q-45 0 -68.5 -27t-32 -76t-8.5 -117v-671q0 -64 8.5 -113t32 -76.5t68.5 -27.5zM621 1640l-123 53l206 412l191 -103zM297 1640l-123 53l169 412l187 -103z" />
    <glyph glyph-name="OE" unicode="&#x152;" horiz-adv-x="1235" 
d="M497 0q-136 0 -221.5 53.5t-125.5 163t-40 277.5v801q0 152 39 255.5t124.5 156.5t226.5 53h641v-231h-265v-512h249v-232h-249v-554h277v-231h-656zM497 233h111v1291h-108q-72 0 -97 -51t-25 -168v-814q0 -96 8 -152.5t33.5 -80.5t77.5 -25z" />
    <glyph glyph-name="oe" unicode="&#x153;" horiz-adv-x="1451" 
d="M492 -18q-108 0 -181.5 33.5t-117.5 98t-63.5 156t-19.5 208.5v559q0 106 21 194t66.5 152.5t118.5 99.5t176 35q78 0 138.5 -28.5t106.5 -79.5q44 51 105 79.5t143 28.5q105 0 175 -32t110.5 -93t58 -146.5t17.5 -193.5v-327h-478v-289q0 -109 17.5 -175t93.5 -66
q51 0 72.5 37.5t26 99t4.5 131.5v105h263v-70q0 -121 -15 -216.5t-54.5 -162.5t-112.5 -102.5t-190 -35.5q-79 0 -137 27.5t-99 75.5q-44 -48 -104.5 -75.5t-140.5 -27.5zM492 196q44 0 68 27.5t33 76.5t9 113v671q0 68 -9.5 117t-33.5 76t-67 27q-45 0 -69 -27t-33.5 -76
t-9.5 -117v-671q0 -64 9 -113t33 -76.5t70 -27.5zM869 906h213v173q0 75 -7 126.5t-28 77.5t-64 26q-53 0 -77 -34t-30.5 -91t-6.5 -125v-153z" />
    <glyph glyph-name="Racute" unicode="&#x154;" horiz-adv-x="991" 
d="M132 0v1760h443q138 0 206 -54t89.5 -158t21.5 -254q0 -155 -31.5 -243.5t-128.5 -118.5q46 -8 77 -37.5t50 -86t27.5 -145t8.5 -216.5v-56t0.5 -108.5t1.5 -124.5t3 -106t5 -52h-268q-3 5 -4.5 51.5t-3 118.5t-2 155t-0.5 163.5v142.5q0 79 -11.5 119.5t-42 56.5
t-87.5 19l-86 5v-831h-268zM401 1039h107q49 0 74.5 22t35 81t9.5 170v11q0 93 -9 143t-37.5 69t-88.5 19h-91v-515zM347 1900l94 413h265l-203 -413h-156z" />
    <glyph glyph-name="racute" unicode="&#x155;" horiz-adv-x="697" 
d="M132 0v1500h267v-167q26 87 90.5 136t164.5 49q2 0 2.5 -34t0.5 -78v-78v-34q-46 0 -99.5 -11t-97 -33.5t-61.5 -59.5v-1190h-267zM220 1640l94 413h265l-203 -413h-156z" />
    <glyph glyph-name="uni0156" unicode="&#x156;" horiz-adv-x="991" 
d="M132 0v1760h443q138 0 206 -54t89.5 -158t21.5 -254q0 -155 -31.5 -243.5t-128.5 -118.5q46 -8 77 -37.5t50 -86t27.5 -145t8.5 -216.5v-56t0.5 -108.5t1.5 -124.5t3 -106t5 -52h-268q-3 5 -4.5 51.5t-3 118.5t-2 155t-0.5 163.5v142.5q0 79 -11.5 119.5t-42 56.5
t-87.5 19l-86 5v-831h-268zM401 1039h107q49 0 74.5 22t35 81t9.5 170v11q0 93 -9 143t-37.5 69t-88.5 19h-91v-515zM419 -689l55 304h-115v263h273v-254l-92 -313h-121z" />
    <glyph glyph-name="uni0157" unicode="&#x157;" horiz-adv-x="697" 
d="M132 0v1500h267v-167q26 87 90.5 136t164.5 49q2 0 2.5 -34t0.5 -78v-78v-34q-46 0 -99.5 -11t-97 -33.5t-61.5 -59.5v-1190h-267zM197 -689l55 304h-115v263h273v-254l-92 -313h-121z" />
    <glyph glyph-name="Rcaron" unicode="&#x158;" horiz-adv-x="991" 
d="M132 0v1760h443q138 0 206 -54t89.5 -158t21.5 -254q0 -155 -31.5 -243.5t-128.5 -118.5q46 -8 77 -37.5t50 -86t27.5 -145t8.5 -216.5v-56t0.5 -108.5t1.5 -124.5t3 -106t5 -52h-268q-3 5 -4.5 51.5t-3 118.5t-2 155t-0.5 163.5v142.5q0 79 -11.5 119.5t-42 56.5
t-87.5 19l-86 5v-831h-268zM401 1039h107q49 0 74.5 22t35 81t9.5 170v11q0 93 -9 143t-37.5 69t-88.5 19h-91v-515zM345 1900l-189 338h254l86 -237l86 237h253l-188 -338h-302z" />
    <glyph glyph-name="rcaron" unicode="&#x159;" horiz-adv-x="697" 
d="M132 0v1500h267v-167q26 87 90.5 136t164.5 49q2 0 2.5 -34t0.5 -78v-78v-34q-46 0 -99.5 -11t-97 -33.5t-61.5 -59.5v-1190h-267zM218 1640l-189 338h254l86 -237l86 237h253l-188 -338h-302z" />
    <glyph glyph-name="Sacute" unicode="&#x15a;" horiz-adv-x="875" 
d="M453 -20q-110 0 -183.5 34.5t-116 101t-60.5 162t-18 217.5v157h254v-177q0 -142 24 -204t95 -62q48 0 72.5 22.5t33 72t8.5 129.5q0 99 -41.5 181t-125.5 170l-130 134q-54 56 -97.5 119t-69 140.5t-25.5 173.5q0 139 34 235t115 145.5t222 49.5q106 0 174.5 -32.5
t107 -95t54.5 -152t16 -204.5v-109h-247v126q0 80 -8.5 133t-31.5 79.5t-67 26.5q-42 0 -68 -18.5t-37.5 -57t-11.5 -99.5q0 -55 14 -95t43 -77t72 -83l145 -157q104 -112 162 -233t58 -270q0 -158 -34 -265.5t-114 -162.5t-218 -55zM289 1900l94 413h265l-203 -413h-156z
" />
    <glyph glyph-name="sacute" unicode="&#x15b;" horiz-adv-x="862" 
d="M442 -19q-181 0 -269 103t-88 337v97h249v-121q0 -98 24 -149t78 -51q52 0 77 35t25 121q0 50 -14.5 97t-45 92.5t-78.5 88.5l-135 122q-93 84 -139 181.5t-46 215.5q0 191 89.5 279.5t265.5 88.5q114 0 189 -42.5t112 -137.5t37 -255v-82h-237v99q0 99 -22.5 150
t-76.5 51q-53 0 -78 -29.5t-27 -103.5q-1 -40 10 -78.5t34.5 -75t61.5 -71.5l142 -129q112 -101 165.5 -211t53.5 -238q0 -189 -86 -286.5t-271 -97.5zM282 1640l94 413h265l-203 -413h-156z" />
    <glyph glyph-name="Scircumflex" unicode="&#x15c;" horiz-adv-x="875" 
d="M453 -20q-110 0 -183.5 34.5t-116 101t-60.5 162t-18 217.5v157h254v-177q0 -142 24 -204t95 -62q48 0 72.5 22.5t33 72t8.5 129.5q0 99 -41.5 181t-125.5 170l-130 134q-54 56 -97.5 119t-69 140.5t-25.5 173.5q0 139 34 235t115 145.5t222 49.5q106 0 174.5 -32.5
t107 -95t54.5 -152t16 -204.5v-109h-247v126q0 80 -8.5 133t-31.5 79.5t-67 26.5q-42 0 -68 -18.5t-37.5 -57t-11.5 -99.5q0 -55 14 -95t43 -77t72 -83l145 -157q104 -112 162 -233t58 -270q0 -158 -34 -265.5t-114 -162.5t-218 -55zM98 1900l189 337h302l188 -337h-253
l-86 236l-86 -236h-254z" />
    <glyph glyph-name="scircumflex" unicode="&#x15d;" horiz-adv-x="862" 
d="M442 -19q-181 0 -269 103t-88 337v97h249v-121q0 -98 24 -149t78 -51q52 0 77 35t25 121q0 50 -14.5 97t-45 92.5t-78.5 88.5l-135 122q-93 84 -139 181.5t-46 215.5q0 191 89.5 279.5t265.5 88.5q114 0 189 -42.5t112 -137.5t37 -255v-82h-237v99q0 99 -22.5 150
t-76.5 51q-53 0 -78 -29.5t-27 -103.5q-1 -40 10 -78.5t34.5 -75t61.5 -71.5l142 -129q112 -101 165.5 -211t53.5 -238q0 -189 -86 -286.5t-271 -97.5zM91 1640l189 337h302l188 -337h-253l-86 236l-86 -236h-254z" />
    <glyph glyph-name="Scedilla" unicode="&#x15e;" horiz-adv-x="875" 
d="M453 -20q-110 0 -183.5 34.5t-116 101t-60.5 162t-18 217.5v157h254v-177q0 -142 24 -204t95 -62q48 0 72.5 22.5t33 72t8.5 129.5q0 99 -41.5 181t-125.5 170l-130 134q-54 56 -97.5 119t-69 140.5t-25.5 173.5q0 139 34 235t115 145.5t222 49.5q106 0 174.5 -32.5
t107 -95t54.5 -152t16 -204.5v-109h-247v126q0 80 -8.5 133t-31.5 79.5t-67 26.5q-42 0 -68 -18.5t-37.5 -57t-11.5 -99.5q0 -55 14 -95t43 -77t72 -83l145 -157q104 -112 162 -233t58 -270q0 -158 -34 -265.5t-114 -162.5t-218 -55zM435 -638q-78 0 -149 26v111
q95 0 144.5 20t68 52.5t18.5 69.5q0 68 -49 109t-111 54l40 196h82l15 -141q113 -39 170.5 -107t57.5 -148q0 -63 -33.5 -118t-97.5 -89.5t-156 -34.5z" />
    <glyph glyph-name="scedilla" unicode="&#x15f;" horiz-adv-x="862" 
d="M442 -19q-181 0 -269 103t-88 337v97h249v-121q0 -98 24 -149t78 -51q52 0 77 35t25 121q0 50 -14.5 97t-45 92.5t-78.5 88.5l-135 122q-93 84 -139 181.5t-46 215.5q0 191 89.5 279.5t265.5 88.5q114 0 189 -42.5t112 -137.5t37 -255v-82h-237v99q0 99 -22.5 150
t-76.5 51q-53 0 -78 -29.5t-27 -103.5q-1 -40 10 -78.5t34.5 -75t61.5 -71.5l142 -129q112 -101 165.5 -211t53.5 -238q0 -189 -86 -286.5t-271 -97.5zM428 -638q-78 0 -149 26v111q95 0 144.5 20t68 52.5t18.5 69.5q0 68 -49 109t-111 54l40 196h82l15 -141
q113 -39 170.5 -107t57.5 -148q0 -63 -33.5 -118t-97.5 -89.5t-156 -34.5z" />
    <glyph glyph-name="Scaron" unicode="&#x160;" horiz-adv-x="875" 
d="M453 -20q-110 0 -183.5 34.5t-116 101t-60.5 162t-18 217.5v157h254v-177q0 -142 24 -204t95 -62q48 0 72.5 22.5t33 72t8.5 129.5q0 99 -41.5 181t-125.5 170l-130 134q-54 56 -97.5 119t-69 140.5t-25.5 173.5q0 139 34 235t115 145.5t222 49.5q106 0 174.5 -32.5
t107 -95t54.5 -152t16 -204.5v-109h-247v126q0 80 -8.5 133t-31.5 79.5t-67 26.5q-42 0 -68 -18.5t-37.5 -57t-11.5 -99.5q0 -55 14 -95t43 -77t72 -83l145 -157q104 -112 162 -233t58 -270q0 -158 -34 -265.5t-114 -162.5t-218 -55zM287 1900l-189 338h254l86 -237l86 237
h253l-188 -338h-302z" />
    <glyph glyph-name="scaron" unicode="&#x161;" horiz-adv-x="862" 
d="M442 -19q-181 0 -269 103t-88 337v97h249v-121q0 -98 24 -149t78 -51q52 0 77 35t25 121q0 50 -14.5 97t-45 92.5t-78.5 88.5l-135 122q-93 84 -139 181.5t-46 215.5q0 191 89.5 279.5t265.5 88.5q114 0 189 -42.5t112 -137.5t37 -255v-82h-237v99q0 99 -22.5 150
t-76.5 51q-53 0 -78 -29.5t-27 -103.5q-1 -40 10 -78.5t34.5 -75t61.5 -71.5l142 -129q112 -101 165.5 -211t53.5 -238q0 -189 -86 -286.5t-271 -97.5zM280 1640l-189 338h254l86 -237l86 237h253l-188 -338h-302z" />
    <glyph glyph-name="Tcaron" unicode="&#x164;" horiz-adv-x="707" 
d="M224 0v1528h-206v232h671v-232h-198v-1528h-267zM203 1900l-189 338h254l86 -237l86 237h253l-188 -338h-302z" />
    <glyph glyph-name="tcaron" unicode="&#x165;" horiz-adv-x="901" 
d="M402 -10q-96 0 -147 24.5t-70 77.5t-19 137v1048h-122v192h122v291h265v-291h146v-192h-146v-1002q0 -35 11 -53t43.5 -24t96.5 -6v-202h-180zM698 1216l55 304h-115v263h273v-254l-92 -313h-121z" />
    <glyph glyph-name="Utilde" unicode="&#x168;" horiz-adv-x="1013" 
d="M508 -20q-137 0 -223 51.5t-126 156t-40 264.5v1308h268v-1303q0 -74 6.5 -130t31.5 -87t82 -31t82.5 30.5t31.5 86.5t6 131v1303h268v-1308q0 -160 -39.5 -264.5t-125 -156t-222.5 -51.5zM660 1900q-44 0 -94 20.5t-99 41t-91 20.5q-16 0 -23 -2q-16 -4 -26.5 -18.5
t-24.5 -40.5l-130 52q20 68 48 107.5t64 57t80 17.5q41 0 95.5 -18.5t104.5 -37t75 -18.5h4q14 2 27 14t29 57l142 -28l-9 -48q-22 -103 -63.5 -139.5t-108.5 -36.5z" />
    <glyph glyph-name="utilde" unicode="&#x169;" horiz-adv-x="1010" 
d="M389 -19q-89 0 -148.5 40t-89 119.5t-29.5 199.5v1160h266v-1119q0 -86 21 -134t88 -48q70 0 95.5 54.5t25.5 125.5l1 1121h264v-1500h-265v156q-28 -76 -81 -125.5t-148 -49.5zM658 1640q-44 0 -94 20.5t-99 41t-91 20.5q-16 0 -23 -2q-16 -4 -26.5 -18.5t-24.5 -40.5
l-130 52q20 68 48 107.5t64 57t80 17.5q41 0 95.5 -18.5t104.5 -37t75 -18.5h4q14 2 27 14t29 57l142 -28l-9 -48q-22 -103 -63.5 -139.5t-108.5 -36.5z" />
    <glyph glyph-name="Umacron" unicode="&#x16a;" horiz-adv-x="1013" 
d="M508 -20q-137 0 -223 51.5t-126 156t-40 264.5v1308h268v-1303q0 -74 6.5 -130t31.5 -87t82 -31t82.5 30.5t31.5 86.5t6 131v1303h268v-1308q0 -160 -39.5 -264.5t-125 -156t-222.5 -51.5zM229 1950v182h556v-182h-556z" />
    <glyph glyph-name="umacron" unicode="&#x16b;" horiz-adv-x="1010" 
d="M389 -19q-89 0 -148.5 40t-89 119.5t-29.5 199.5v1160h266v-1119q0 -86 21 -134t88 -48q70 0 95.5 54.5t25.5 125.5l1 1121h264v-1500h-265v156q-28 -76 -81 -125.5t-148 -49.5zM227 1690v182h556v-182h-556z" />
    <glyph glyph-name="Ubreve" unicode="&#x16c;" horiz-adv-x="1013" 
d="M508 -20q-137 0 -223 51.5t-126 156t-40 264.5v1308h268v-1303q0 -74 6.5 -130t31.5 -87t82 -31t82.5 30.5t31.5 86.5t6 131v1303h268v-1308q0 -160 -39.5 -264.5t-125 -156t-222.5 -51.5zM506 1900q-139 0 -210 66t-71 196v15h150q0 -82 39 -107t94 -25q53 0 91.5 24
t38.5 108h151v-13q0 -131 -69.5 -197.5t-213.5 -66.5z" />
    <glyph glyph-name="ubreve" unicode="&#x16d;" horiz-adv-x="1010" 
d="M389 -19q-89 0 -148.5 40t-89 119.5t-29.5 199.5v1160h266v-1119q0 -86 21 -134t88 -48q70 0 95.5 54.5t25.5 125.5l1 1121h264v-1500h-265v156q-28 -76 -81 -125.5t-148 -49.5zM504 1640q-139 0 -210 66t-71 196v15h150q0 -82 39 -107t94 -25q53 0 91.5 24t38.5 108h151
v-13q0 -131 -69.5 -197.5t-213.5 -66.5z" />
    <glyph glyph-name="Uring" unicode="&#x16e;" horiz-adv-x="1013" 
d="M508 -20q-137 0 -223 51.5t-126 156t-40 264.5v1308h268v-1303q0 -74 6.5 -130t31.5 -87t82 -31t82.5 30.5t31.5 86.5t6 131v1303h268v-1308q0 -160 -39.5 -264.5t-125 -156t-222.5 -51.5zM507 1900q-109 0 -171 64t-62 160q0 95 62 159.5t171 64.5q110 0 171.5 -64.5
t61.5 -159.5t-61.5 -159.5t-171.5 -64.5zM508 1994q60 0 89.5 41t29.5 90t-29.5 89.5t-89.5 40.5q-59 0 -89 -40.5t-30 -89.5t30 -90t89 -41z" />
    <glyph glyph-name="uring" unicode="&#x16f;" horiz-adv-x="1010" 
d="M389 -19q-89 0 -148.5 40t-89 119.5t-29.5 199.5v1160h266v-1119q0 -86 21 -134t88 -48q70 0 95.5 54.5t25.5 125.5l1 1121h264v-1500h-265v156q-28 -76 -81 -125.5t-148 -49.5zM505 1640q-109 0 -171 64t-62 160q0 95 62 159.5t171 64.5q110 0 171.5 -64.5t61.5 -159.5
t-61.5 -159.5t-171.5 -64.5zM506 1734q60 0 89.5 41t29.5 90t-29.5 89.5t-89.5 40.5q-59 0 -89 -40.5t-30 -89.5t30 -90t89 -41z" />
    <glyph glyph-name="Uhungarumlaut" unicode="&#x170;" horiz-adv-x="1013" 
d="M508 -20q-137 0 -223 51.5t-126 156t-40 264.5v1308h268v-1303q0 -74 6.5 -130t31.5 -87t82 -31t82.5 30.5t31.5 86.5t6 131v1303h268v-1308q0 -160 -39.5 -264.5t-125 -156t-222.5 -51.5zM643 1900l-123 53l206 412l191 -103zM319 1900l-123 53l169 412l187 -103z" />
    <glyph glyph-name="uhungarumlaut" unicode="&#x171;" horiz-adv-x="1010" 
d="M389 -19q-89 0 -148.5 40t-89 119.5t-29.5 199.5v1160h266v-1119q0 -86 21 -134t88 -48q70 0 95.5 54.5t25.5 125.5l1 1121h264v-1500h-265v156q-28 -76 -81 -125.5t-148 -49.5zM641 1640l-123 53l206 412l191 -103zM317 1640l-123 53l169 412l187 -103z" />
    <glyph glyph-name="Uogonek" unicode="&#x172;" horiz-adv-x="1013" 
d="M508 -20q-137 0 -223 51.5t-126 156t-40 264.5v1308h268v-1303q0 -74 6.5 -130t31.5 -87t82 -31t82.5 30.5t31.5 86.5t6 131v1303h268v-1308q0 -160 -39.5 -264.5t-125 -156t-222.5 -51.5zM546 -626q-93 0 -156.5 30t-96 85t-32.5 129q0 97 66.5 202.5t199.5 179.5h107
q-76 -79 -128 -168.5t-52 -170.5q0 -66 42 -97.5t110 -31.5q38 0 68.5 6.5t40.5 8.5v-138q-17 -10 -67.5 -22.5t-101.5 -12.5z" />
    <glyph glyph-name="uogonek" unicode="&#x173;" horiz-adv-x="1010" 
d="M389 -19q-89 0 -148.5 40t-89 119.5t-29.5 199.5v1160h266v-1119q0 -86 21 -134t88 -48q70 0 95.5 54.5t25.5 125.5l1 1121h264v-1500h-265v156q-28 -76 -81 -125.5t-148 -49.5zM745 -626q-93 0 -156.5 30t-96 85t-32.5 129q0 97 66.5 202.5t199.5 179.5h107
q-76 -79 -128 -168.5t-52 -170.5q0 -66 42 -97.5t110 -31.5q38 0 68.5 6.5t40.5 8.5v-138q-17 -10 -67.5 -22.5t-101.5 -12.5z" />
    <glyph glyph-name="Wcircumflex" unicode="&#x174;" horiz-adv-x="1360" 
d="M261 0l-215 1760h240l129 -1254l164 1254h216l165 -1254l114 1254h241l-202 -1760h-267l-156 1170l-162 -1170h-267zM340 1900l189 337h302l188 -337h-253l-86 236l-86 -236h-254z" />
    <glyph glyph-name="wcircumflex" unicode="&#x175;" horiz-adv-x="1258" 
d="M250 0l-201 1500h223l76 -633l34 -322h6l33 323l89 632h75h104h57l98 -620l42 -335h6l29 334l67 621h222l-190 -1500h-232l-152 1127l-162 -1127h-224zM289 1640l189 337h302l188 -337h-253l-86 236l-86 -236h-254z" />
    <glyph glyph-name="Ycircumflex" unicode="&#x176;" horiz-adv-x="878" 
d="M312 0v703l-295 1057h256l174 -658h4l155 658h255l-281 -1057v-703h-268zM99 1900l189 337h302l188 -337h-253l-86 236l-86 -236h-254z" />
    <glyph glyph-name="ycircumflex" unicode="&#x177;" horiz-adv-x="859" 
d="M89 -265v183h87q44 0 74 7.5t34 32.5q7 13 5 46.5t-6 63.5l-240 1432h252l96 -767l40 -404h22l36 404l88 767h251l-260 -1564q-11 -71 -30.5 -115.5t-58.5 -65t-108 -20.5h-282zM90 1640l189 337h302l188 -337h-253l-86 236l-86 -236h-254z" />
    <glyph glyph-name="Ydieresis" unicode="&#x178;" horiz-adv-x="878" 
d="M312 0v703l-295 1057h256l174 -658h4l155 658h255l-281 -1057v-703h-268zM540 1900v226h282v-226h-282zM56 1900v226h282v-226h-282z" />
    <glyph glyph-name="Zacute" unicode="&#x179;" horiz-adv-x="748" 
d="M63 0v238l365 1291h-332v231h613v-217l-365 -1312h357v-231h-638zM225 1900l94 413h265l-203 -413h-156z" />
    <glyph glyph-name="zacute" unicode="&#x17a;" horiz-adv-x="732" 
d="M73 0v200l330 1073h-305v227h574v-191l-328 -1087h314v-222h-585zM217 1640l94 413h265l-203 -413h-156z" />
    <glyph glyph-name="Zdotaccent" unicode="&#x17b;" horiz-adv-x="748" 
d="M63 0v238l365 1291h-332v231h613v-217l-365 -1312h357v-231h-638zM240 1898v230h267v-230h-267z" />
    <glyph glyph-name="zdotaccent" unicode="&#x17c;" horiz-adv-x="732" 
d="M73 0v200l330 1073h-305v227h574v-191l-328 -1087h314v-222h-585zM232 1638v230h267v-230h-267z" />
    <glyph glyph-name="Zcaron" unicode="&#x17d;" horiz-adv-x="748" 
d="M63 0v238l365 1291h-332v231h613v-217l-365 -1312h357v-231h-638zM223 1900l-189 338h254l86 -237l86 237h253l-188 -338h-302z" />
    <glyph glyph-name="zcaron" unicode="&#x17e;" horiz-adv-x="732" 
d="M73 0v200l330 1073h-305v227h574v-191l-328 -1087h314v-222h-585zM215 1640l-189 338h254l86 -237l86 237h253l-188 -338h-302z" />
    <glyph glyph-name="florin" unicode="&#x192;" horiz-adv-x="767" 
d="M290 -17q-48 0 -91.5 6t-83.5 19v178q14 -1 26 -2.5t22 -1.5q42 0 61 12t24.5 39t5.5 72v751h-147v202h147v281q0 122 53 183t162 61q100 0 183 -31v-178q-23 6 -41.5 9.5t-32.5 3.5q-41 0 -54.5 -25.5t-13.5 -77.5v-226h146v-202h-146v-835q0 -118 -53 -178t-167 -60z
" />
    <glyph glyph-name="uni01C4" unicode="&#x1c4;" horiz-adv-x="1756" 
d="M132 0v1760h395q134 0 215 -53.5t117.5 -154.5t36.5 -244l1 -794q0 -173 -37.5 -287.5t-120.5 -170.5t-221 -56h-386zM400 208h88q47 0 78.5 19t47 67.5t15.5 137.5l-1 869q0 135 -33 194t-116 59h-79v-1346zM1071 0v238l365 1291h-332v231h613v-217l-365 -1312h357v-231
h-638zM1231 1900l-189 338h254l86 -237l86 237h253l-188 -338h-302z" />
    <glyph glyph-name="uni01C5" unicode="&#x1c5;" horiz-adv-x="1740" 
d="M132 0v1760h395q134 0 215 -53.5t117.5 -154.5t36.5 -244l1 -794q0 -173 -37.5 -287.5t-120.5 -170.5t-221 -56h-386zM400 208h88q47 0 78.5 19t47 67.5t15.5 137.5l-1 869q0 135 -33 194t-116 59h-79v-1346zM1081 0v200l330 1073h-305v227h574v-191l-328 -1087h314v-222
h-585zM1223 1640l-189 338h254l86 -237l86 237h253l-188 -338h-302z" />
    <glyph glyph-name="uni01C6" unicode="&#x1c6;" horiz-adv-x="1730" 
d="M386 -15q-122 0 -181 65.5t-77 177.5t-18 251v611q0 121 29 217.5t94.5 153.5t173.5 57q64 0 115 -30.5t79 -80.5v368h265v-1775h-265v139q-30 -76 -84 -115t-131 -39zM484 196q48 0 73.5 28.5t35 88t9.5 150.5v600q0 110 -21.5 175t-92.5 65q-68 0 -89.5 -63.5
t-21.5 -179.5v-617q0 -77 9.5 -132.5t32.5 -85t65 -29.5zM1071 0v200l330 1073h-305v227h574v-191l-328 -1087h314v-222h-585zM1213 1640l-189 338h254l86 -237l86 237h253l-188 -338h-302z" />
    <glyph glyph-name="uni01C7" unicode="&#x1c7;" horiz-adv-x="1698" 
d="M132 0v1760h268v-1532h339v-228h-607zM1201 -20q-173 0 -269.5 103.5t-96.5 305.5v314h259v-301q0 -52 6.5 -96t27.5 -70t65 -26t65 25.5t28 72t7 110.5v1342h268v-1329q0 -217 -95.5 -334t-264.5 -117z" />
    <glyph glyph-name="uni01C8" unicode="&#x1c8;" horiz-adv-x="1308" 
d="M132 0v1760h268v-1532h339v-228h-607zM973 -197q-56 0 -96 5t-65 12v185q11 -2 21.5 -3t23.5 -1q36 0 49.5 20t13.5 48v1431h265v-1421q0 -94 -26 -155t-73.5 -91t-112.5 -30zM916 1638v230h267v-230h-267z" />
    <glyph glyph-name="uni01C9" unicode="&#x1c9;" horiz-adv-x="1087" 
d="M132 0v1775h264v-1775h-264zM752 -197q-56 0 -96 5t-65 12v185q11 -2 21.5 -3t23.5 -1q36 0 49.5 20t13.5 48v1431h265v-1421q0 -94 -26 -155t-73.5 -91t-112.5 -30zM695 1638v230h267v-230h-267z" />
    <glyph glyph-name="uni01CA" unicode="&#x1ca;" horiz-adv-x="2015" 
d="M132 0v1760h210l373 -1056l-19 480v576h241v-1760h-190l-383 1093l15 -462v-631h-247zM1518 -20q-173 0 -269.5 103.5t-96.5 305.5v314h259v-301q0 -52 6.5 -96t27.5 -70t65 -26t65 25.5t28 72t7 110.5v1342h268v-1329q0 -217 -95.5 -334t-264.5 -117z" />
    <glyph glyph-name="uni01CB" unicode="&#x1cb;" horiz-adv-x="1625" 
d="M132 0v1760h210l373 -1056l-19 480v576h241v-1760h-190l-383 1093l15 -462v-631h-247zM1290 -197q-56 0 -96 5t-65 12v185q11 -2 21.5 -3t23.5 -1q36 0 49.5 20t13.5 48v1431h265v-1421q0 -94 -26 -155t-73.5 -91t-112.5 -30zM1233 1638v230h267v-230h-267z" />
    <glyph glyph-name="uni01CC" unicode="&#x1cc;" horiz-adv-x="1576" 
d="M131 0v1500h265v-172q20 77 84 133.5t157 56.5q130 0 195 -86.5t65 -250.5v-1181h-265v1165q0 65 -29.5 102t-80.5 37q-41 0 -69.5 -22.5t-42.5 -62t-14 -92.5v-1127h-265zM1241 -197q-56 0 -96 5t-65 12v185q11 -2 21.5 -3t23.5 -1q36 0 49.5 20t13.5 48v1431h265v-1421
q0 -94 -26 -155t-73.5 -91t-112.5 -30zM1184 1638v230h267v-230h-267z" />
    <glyph glyph-name="uni01F1" unicode="&#x1f1;" horiz-adv-x="1756" 
d="M132 0v1760h395q134 0 215 -53.5t117.5 -154.5t36.5 -244l1 -794q0 -173 -37.5 -287.5t-120.5 -170.5t-221 -56h-386zM400 208h88q47 0 78.5 19t47 67.5t15.5 137.5l-1 869q0 135 -33 194t-116 59h-79v-1346zM1071 0v238l365 1291h-332v231h613v-217l-365 -1312h357v-231
h-638z" />
    <glyph glyph-name="uni01F2" unicode="&#x1f2;" horiz-adv-x="1740" 
d="M132 0v1760h395q134 0 215 -53.5t117.5 -154.5t36.5 -244l1 -794q0 -173 -37.5 -287.5t-120.5 -170.5t-221 -56h-386zM400 208h88q47 0 78.5 19t47 67.5t15.5 137.5l-1 869q0 135 -33 194t-116 59h-79v-1346zM1081 0v200l330 1073h-305v227h574v-191l-328 -1087h314v-222
h-585z" />
    <glyph glyph-name="uni01F3" unicode="&#x1f3;" horiz-adv-x="1730" 
d="M386 -15q-122 0 -181 65.5t-77 177.5t-18 251v611q0 121 29 217.5t94.5 153.5t173.5 57q64 0 115 -30.5t79 -80.5v368h265v-1775h-265v139q-30 -76 -84 -115t-131 -39zM484 196q48 0 73.5 28.5t35 88t9.5 150.5v600q0 110 -21.5 175t-92.5 65q-68 0 -89.5 -63.5
t-21.5 -179.5v-617q0 -77 9.5 -132.5t32.5 -85t65 -29.5zM1071 0v200l330 1073h-305v227h574v-191l-328 -1087h314v-222h-585z" />
    <glyph glyph-name="uni01F4" unicode="&#x1f4;" horiz-adv-x="1000" 
d="M463 -18q-159 0 -256 125.5t-97 407.5v765q0 118 22.5 211t70 157.5t123.5 98t183 33.5q116 0 189 -34.5t112.5 -100t54.5 -160.5t15 -215v-125h-250v184q0 119 -24.5 169t-92.5 50q-75 0 -104 -58.5t-29 -207.5v-763q0 -166 24.5 -237.5t102.5 -71.5q76 0 107.5 73.5
t31.5 245.5v237h-135v195h369v-961h-120l-41 173q-22 -91 -93.5 -141t-162.5 -50zM351 1900l94 413h265l-203 -413h-156z" />
    <glyph glyph-name="uni01F5" unicode="&#x1f5;" horiz-adv-x="990" 
d="M469 -225q-124 -2 -211 23.5t-158 83.5l93 167q53 -34 115.5 -55.5t135.5 -20.5q76 1 116 53t40 139v119q-26 -75 -79.5 -103t-129.5 -28q-106 0 -166.5 56t-85.5 153t-25 220v483q0 131 26 233.5t89 161.5t173 58q77 0 127.5 -39t70.5 -112v133h265v-1315
q0 -89 -20 -163.5t-66 -129t-122 -85t-188 -32.5zM496 354q36 0 59 21.5t34 74t11 146.5v491q0 99 -24 158t-87 59q-48 0 -71 -28t-30 -76.5t-7 -111.5v-494q0 -111 21 -175.5t94 -64.5zM346 1640l94 413h265l-203 -413h-156z" />
    <glyph glyph-name="uni0200" unicode="&#x200;" horiz-adv-x="927" 
d="M28 0l251 1760h354l267 -1760h-250l-42 314h-284l-38 -314h-258zM350 529h230l-118 884h-4zM297 1900l-274 362l191 103l206 -412zM621 1900l-233 362l187 103l169 -412z" />
    <glyph glyph-name="uni0201" unicode="&#x201;" 
d="M376 -15q-154 0 -213.5 112t-61.5 297v96q0 120 34.5 195t98.5 122t153 82t198 75v131q0 76 -6 121.5t-27 66.5t-65 21q-43 0 -65.5 -21.5t-30.5 -66t-8 -113.5v-67h-262v45q0 103 17.5 184t59.5 137.5t114.5 86t182.5 29.5q97 0 166 -27.5t112 -82t63 -136.5t20 -191
v-1081h-267v149q-12 -43 -41 -80.5t-72.5 -60.5t-99.5 -23zM468 189q50 0 80 36t37 73v516q-60 -27 -101 -50.5t-66 -51.5t-36 -66t-11 -93v-168q0 -103 21.5 -149.5t75.5 -46.5zM328 1640l-274 362l191 103l206 -412zM652 1640l-233 362l187 103l169 -412z" />
    <glyph glyph-name="uni0202" unicode="&#x202;" horiz-adv-x="927" 
d="M28 0l251 1760h354l267 -1760h-250l-42 314h-284l-38 -314h-258zM350 529h230l-118 884h-4zM172 1900v13q-1 131 68 198t213 68q140 2 211.5 -63.5t72.5 -195.5v-15l-151 -1q-1 83 -39.5 105.5t-94.5 21.5q-53 -1 -91.5 -23.5t-37.5 -107.5h-151z" />
    <glyph glyph-name="uni0203" unicode="&#x203;" 
d="M376 -15q-154 0 -213.5 112t-61.5 297v96q0 120 34.5 195t98.5 122t153 82t198 75v131q0 76 -6 121.5t-27 66.5t-65 21q-43 0 -65.5 -21.5t-30.5 -66t-8 -113.5v-67h-262v45q0 103 17.5 184t59.5 137.5t114.5 86t182.5 29.5q97 0 166 -27.5t112 -82t63 -136.5t20 -191
v-1081h-267v149q-12 -43 -41 -80.5t-72.5 -60.5t-99.5 -23zM468 189q50 0 80 36t37 73v516q-60 -27 -101 -50.5t-66 -51.5t-36 -66t-11 -93v-168q0 -103 21.5 -149.5t75.5 -46.5zM203 1640v13q-1 131 68 198t213 68q140 2 211.5 -63.5t72.5 -195.5v-15l-151 -1
q-1 83 -39.5 105.5t-94.5 21.5q-53 -1 -91.5 -23.5t-37.5 -107.5h-151z" />
    <glyph glyph-name="uni0204" unicode="&#x204;" horiz-adv-x="800" 
d="M132 0v1760h590v-231h-322v-512h306v-226h-306v-560h334v-231h-602zM263 1900l-274 362l191 103l206 -412zM587 1900l-233 362l187 103l169 -412z" />
    <glyph glyph-name="uni0205" unicode="&#x205;" horiz-adv-x="945" 
d="M481 -18q-113 0 -185.5 36t-113 104t-56.5 163.5t-16 213.5v559q0 105 21.5 190t67 145t118.5 92.5t176 32.5q105 0 175 -32t110.5 -93t58 -146.5t17.5 -193.5v-321h-477v-295q0 -109 17 -175t93 -66q51 0 72.5 31t26 85.5t4.5 124.5v132h262v-80q0 -121 -14.5 -215
t-54 -159t-112.5 -99t-190 -34zM376 887h214v192q0 75 -7 126.5t-28 77.5t-64 26q-53 0 -77.5 -31t-31 -84.5t-6.5 -121.5v-185zM316 1640l-274 362l191 103l206 -412zM640 1640l-233 362l187 103l169 -412z" />
    <glyph glyph-name="uni0206" unicode="&#x206;" horiz-adv-x="800" 
d="M132 0v1760h590v-231h-322v-512h306v-226h-306v-560h334v-231h-602zM138 1900v13q-1 131 68 198t213 68q140 2 211.5 -63.5t72.5 -195.5v-15l-151 -1q-1 83 -39.5 105.5t-94.5 21.5q-53 -1 -91.5 -23.5t-37.5 -107.5h-151z" />
    <glyph glyph-name="uni0207" unicode="&#x207;" horiz-adv-x="945" 
d="M481 -18q-113 0 -185.5 36t-113 104t-56.5 163.5t-16 213.5v559q0 105 21.5 190t67 145t118.5 92.5t176 32.5q105 0 175 -32t110.5 -93t58 -146.5t17.5 -193.5v-321h-477v-295q0 -109 17 -175t93 -66q51 0 72.5 31t26 85.5t4.5 124.5v132h262v-80q0 -121 -14.5 -215
t-54 -159t-112.5 -99t-190 -34zM376 887h214v192q0 75 -7 126.5t-28 77.5t-64 26q-53 0 -77.5 -31t-31 -84.5t-6.5 -121.5v-185zM191 1640v13q-1 131 68 198t213 68q140 2 211.5 -63.5t72.5 -195.5v-15l-151 -1q-1 83 -39.5 105.5t-94.5 21.5q-53 -1 -91.5 -23.5
t-37.5 -107.5h-151z" />
    <glyph glyph-name="uni0208" unicode="&#x208;" horiz-adv-x="543" 
d="M138 0v1760h268v-1760h-268zM115 1900l-274 362l191 103l206 -412zM439 1900l-233 362l187 103l169 -412z" />
    <glyph glyph-name="uni0209" unicode="&#x209;" horiz-adv-x="537" 
d="M136 0v1500h265v-1500h-265zM112 1640l-274 362l191 103l206 -412zM436 1640l-233 362l187 103l169 -412z" />
    <glyph glyph-name="uni020A" unicode="&#x20a;" horiz-adv-x="543" 
d="M138 0v1760h268v-1760h-268zM-10 1900v13q-1 131 68 198t213 68q140 2 211.5 -63.5t72.5 -195.5v-15l-151 -1q-1 83 -39.5 105.5t-94.5 21.5q-53 -1 -91.5 -23.5t-37.5 -107.5h-151z" />
    <glyph glyph-name="uni020B" unicode="&#x20b;" horiz-adv-x="537" 
d="M136 0v1500h265v-1500h-265zM-13 1640v13q-1 131 68 198t213 68q140 2 211.5 -63.5t72.5 -195.5v-15l-151 -1q-1 83 -39.5 105.5t-94.5 21.5q-53 -1 -91.5 -23.5t-37.5 -107.5h-151z" />
    <glyph glyph-name="uni020C" unicode="&#x20c;" horiz-adv-x="999" 
d="M502 -20q-137 0 -223.5 58t-127.5 172t-41 282v805q0 152 40 260t127 166t228 58q106 0 179 -33t118 -95.5t65.5 -152t20.5 -203.5v-805q0 -168 -39.5 -282t-124.5 -172t-222 -58zM502 212q50 0 75 30t33.5 91.5t8.5 155.5v820q0 115 -21.5 177.5t-92.5 62.5
q-73 0 -99 -60.5t-26 -178.5v-821q0 -96 8.5 -157.5t35 -90.5t78.5 -29zM343 1900l-274 362l191 103l206 -412zM667 1900l-233 362l187 103l169 -412z" />
    <glyph glyph-name="uni020D" unicode="&#x20d;" 
d="M486 -18q-108 0 -181 33.5t-115.5 97t-61 155t-18.5 208.5v561q0 141 36.5 249.5t119.5 170t220 61.5q104 0 175.5 -35t115 -99.5t63.5 -152.5t20 -194v-561q0 -115 -17.5 -206t-60 -155.5t-114.5 -98.5t-182 -34zM486 196q45 0 68 27.5t31 76.5t8 113v671q0 68 -9 117
t-32 76t-66 27q-45 0 -68.5 -27t-32 -76t-8.5 -117v-671q0 -64 8.5 -113t32 -76.5t68.5 -27.5zM328 1640l-274 362l191 103l206 -412zM652 1640l-233 362l187 103l169 -412z" />
    <glyph glyph-name="uni020E" unicode="&#x20e;" horiz-adv-x="999" 
d="M502 -20q-137 0 -223.5 58t-127.5 172t-41 282v805q0 152 40 260t127 166t228 58q106 0 179 -33t118 -95.5t65.5 -152t20.5 -203.5v-805q0 -168 -39.5 -282t-124.5 -172t-222 -58zM502 212q50 0 75 30t33.5 91.5t8.5 155.5v820q0 115 -21.5 177.5t-92.5 62.5
q-73 0 -99 -60.5t-26 -178.5v-821q0 -96 8.5 -157.5t35 -90.5t78.5 -29zM218 1900v13q-1 131 68 198t213 68q140 2 211.5 -63.5t72.5 -195.5v-15l-151 -1q-1 83 -39.5 105.5t-94.5 21.5q-53 -1 -91.5 -23.5t-37.5 -107.5h-151z" />
    <glyph glyph-name="uni020F" unicode="&#x20f;" 
d="M486 -18q-108 0 -181 33.5t-115.5 97t-61 155t-18.5 208.5v561q0 141 36.5 249.5t119.5 170t220 61.5q104 0 175.5 -35t115 -99.5t63.5 -152.5t20 -194v-561q0 -115 -17.5 -206t-60 -155.5t-114.5 -98.5t-182 -34zM486 196q45 0 68 27.5t31 76.5t8 113v671q0 68 -9 117
t-32 76t-66 27q-45 0 -68.5 -27t-32 -76t-8.5 -117v-671q0 -64 8.5 -113t32 -76.5t68.5 -27.5zM203 1640v13q-1 131 68 198t213 68q140 2 211.5 -63.5t72.5 -195.5v-15l-151 -1q-1 83 -39.5 105.5t-94.5 21.5q-53 -1 -91.5 -23.5t-37.5 -107.5h-151z" />
    <glyph glyph-name="uni0210" unicode="&#x210;" horiz-adv-x="991" 
d="M132 0v1760h443q138 0 206 -54t89.5 -158t21.5 -254q0 -155 -31.5 -243.5t-128.5 -118.5q46 -8 77 -37.5t50 -86t27.5 -145t8.5 -216.5v-56t0.5 -108.5t1.5 -124.5t3 -106t5 -52h-268q-3 5 -4.5 51.5t-3 118.5t-2 155t-0.5 163.5v142.5q0 79 -11.5 119.5t-42 56.5
t-87.5 19l-86 5v-831h-268zM401 1039h107q49 0 74.5 22t35 81t9.5 170v11q0 93 -9 143t-37.5 69t-88.5 19h-91v-515zM339 1900l-274 362l191 103l206 -412zM663 1900l-233 362l187 103l169 -412z" />
    <glyph glyph-name="uni0211" unicode="&#x211;" horiz-adv-x="697" 
d="M132 0v1500h267v-167q26 87 90.5 136t164.5 49q2 0 2.5 -34t0.5 -78v-78v-34q-46 0 -99.5 -11t-97 -33.5t-61.5 -59.5v-1190h-267zM212 1640l-274 362l191 103l206 -412zM536 1640l-233 362l187 103l169 -412z" />
    <glyph glyph-name="uni0212" unicode="&#x212;" horiz-adv-x="991" 
d="M132 0v1760h443q138 0 206 -54t89.5 -158t21.5 -254q0 -155 -31.5 -243.5t-128.5 -118.5q46 -8 77 -37.5t50 -86t27.5 -145t8.5 -216.5v-56t0.5 -108.5t1.5 -124.5t3 -106t5 -52h-268q-3 5 -4.5 51.5t-3 118.5t-2 155t-0.5 163.5v142.5q0 79 -11.5 119.5t-42 56.5
t-87.5 19l-86 5v-831h-268zM401 1039h107q49 0 74.5 22t35 81t9.5 170v11q0 93 -9 143t-37.5 69t-88.5 19h-91v-515zM214 1900v13q-1 131 68 198t213 68q140 2 211.5 -63.5t72.5 -195.5v-15l-151 -1q-1 83 -39.5 105.5t-94.5 21.5q-53 -1 -91.5 -23.5t-37.5 -107.5h-151z
" />
    <glyph glyph-name="uni0213" unicode="&#x213;" horiz-adv-x="697" 
d="M132 0v1500h267v-167q26 87 90.5 136t164.5 49q2 0 2.5 -34t0.5 -78v-78v-34q-46 0 -99.5 -11t-97 -33.5t-61.5 -59.5v-1190h-267zM87 1640v13q-1 131 68 198t213 68q140 2 211.5 -63.5t72.5 -195.5v-15l-151 -1q-1 83 -39.5 105.5t-94.5 21.5q-53 -1 -91.5 -23.5
t-37.5 -107.5h-151z" />
    <glyph glyph-name="uni0214" unicode="&#x214;" horiz-adv-x="1013" 
d="M508 -20q-137 0 -223 51.5t-126 156t-40 264.5v1308h268v-1303q0 -74 6.5 -130t31.5 -87t82 -31t82.5 30.5t31.5 86.5t6 131v1303h268v-1308q0 -160 -39.5 -264.5t-125 -156t-222.5 -51.5zM350 1900l-274 362l191 103l206 -412zM674 1900l-233 362l187 103l169 -412z" />
    <glyph glyph-name="uni0215" unicode="&#x215;" horiz-adv-x="1010" 
d="M389 -19q-89 0 -148.5 40t-89 119.5t-29.5 199.5v1160h266v-1119q0 -86 21 -134t88 -48q70 0 95.5 54.5t25.5 125.5l1 1121h264v-1500h-265v156q-28 -76 -81 -125.5t-148 -49.5zM348 1640l-274 362l191 103l206 -412zM672 1640l-233 362l187 103l169 -412z" />
    <glyph glyph-name="uni0216" unicode="&#x216;" horiz-adv-x="1013" 
d="M508 -20q-137 0 -223 51.5t-126 156t-40 264.5v1308h268v-1303q0 -74 6.5 -130t31.5 -87t82 -31t82.5 30.5t31.5 86.5t6 131v1303h268v-1308q0 -160 -39.5 -264.5t-125 -156t-222.5 -51.5zM225 1900v13q-1 131 68 198t213 68q140 2 211.5 -63.5t72.5 -195.5v-15l-151 -1
q-1 83 -39.5 105.5t-94.5 21.5q-53 -1 -91.5 -23.5t-37.5 -107.5h-151z" />
    <glyph glyph-name="uni0217" unicode="&#x217;" horiz-adv-x="1010" 
d="M389 -19q-89 0 -148.5 40t-89 119.5t-29.5 199.5v1160h266v-1119q0 -86 21 -134t88 -48q70 0 95.5 54.5t25.5 125.5l1 1121h264v-1500h-265v156q-28 -76 -81 -125.5t-148 -49.5zM223 1640v13q-1 131 68 198t213 68q140 2 211.5 -63.5t72.5 -195.5v-15l-151 -1
q-1 83 -39.5 105.5t-94.5 21.5q-53 -1 -91.5 -23.5t-37.5 -107.5h-151z" />
    <glyph glyph-name="uni0218" unicode="&#x218;" horiz-adv-x="875" 
d="M453 -20q-110 0 -183.5 34.5t-116 101t-60.5 162t-18 217.5v157h254v-177q0 -142 24 -204t95 -62q48 0 72.5 22.5t33 72t8.5 129.5q0 99 -41.5 181t-125.5 170l-130 134q-54 56 -97.5 119t-69 140.5t-25.5 173.5q0 139 34 235t115 145.5t222 49.5q106 0 174.5 -32.5
t107 -95t54.5 -152t16 -204.5v-109h-247v126q0 80 -8.5 133t-31.5 79.5t-67 26.5q-42 0 -68 -18.5t-37.5 -57t-11.5 -99.5q0 -55 14 -95t43 -77t72 -83l145 -157q104 -112 162 -233t58 -270q0 -158 -34 -265.5t-114 -162.5t-218 -55zM361 -689l55 304h-115v263h273v-254
l-92 -313h-121z" />
    <glyph glyph-name="uni0219" unicode="&#x219;" horiz-adv-x="862" 
d="M442 -19q-181 0 -269 103t-88 337v97h249v-121q0 -98 24 -149t78 -51q52 0 77 35t25 121q0 50 -14.5 97t-45 92.5t-78.5 88.5l-135 122q-93 84 -139 181.5t-46 215.5q0 191 89.5 279.5t265.5 88.5q114 0 189 -42.5t112 -137.5t37 -255v-82h-237v99q0 99 -22.5 150
t-76.5 51q-53 0 -78 -29.5t-27 -103.5q-1 -40 10 -78.5t34.5 -75t61.5 -71.5l142 -129q112 -101 165.5 -211t53.5 -238q0 -189 -86 -286.5t-271 -97.5zM354 -689l55 304h-115v263h273v-254l-92 -313h-121z" />
    <glyph glyph-name="uni021A" unicode="&#x21a;" horiz-adv-x="707" 
d="M224 0v1528h-206v232h671v-232h-198v-1528h-267zM277 -689l55 304h-115v263h273v-254l-92 -313h-121z" />
    <glyph glyph-name="uni021B" unicode="&#x21b;" horiz-adv-x="638" 
d="M402 -10q-96 0 -147 24.5t-70 77.5t-19 137v1048h-122v192h122v291h265v-291h146v-192h-146v-1002q0 -35 11 -53t43.5 -24t96.5 -6v-202h-180zM302 -689l55 304h-115v263h273v-254l-92 -313h-121z" />
    <glyph glyph-name="uni0237" unicode="&#x237;" horiz-adv-x="556" 
d="M221 -197q-56 0 -96 5t-65 12v185q11 -2 21.5 -3t23.5 -1q36 0 49.5 20t13.5 48v1431h265v-1421q0 -94 -26 -155t-73.5 -91t-112.5 -30z" />
    <glyph glyph-name="uni02C6" unicode="&#x2c6;" horiz-adv-x="779" 
d="M50 1640l189 337h302l188 -337h-253l-86 236l-86 -236h-254z" />
    <glyph glyph-name="uni02C9" unicode="&#x2c9;" horiz-adv-x="696" 
d="M70 559v182h556v-182h-556z" />
    <glyph glyph-name="uni02DA" unicode="&#x2da;" horiz-adv-x="566" 
d="M283 1640q-109 0 -171 64t-62 160q0 95 62 159.5t171 64.5q110 0 171.5 -64.5t61.5 -159.5t-61.5 -159.5t-171.5 -64.5zM284 1734q60 0 89.5 41t29.5 90t-29.5 89.5t-89.5 40.5q-59 0 -89 -40.5t-30 -89.5t30 -90t89 -41z" />
    <glyph glyph-name="uni02DC" unicode="&#x2dc;" horiz-adv-x="769" 
d="M538 1640q-44 0 -94 20.5t-99 41t-91 20.5q-16 0 -23 -2q-16 -4 -26.5 -18.5t-24.5 -40.5l-130 52q20 68 48 107.5t64 57t80 17.5q41 0 95.5 -18.5t104.5 -37t75 -18.5h4q14 2 27 14t29 57l142 -28l-9 -48q-22 -103 -63.5 -139.5t-108.5 -36.5z" />
    <glyph glyph-name="gravecomb" unicode="&#x300;" horiz-adv-x="0" 
d="M253 1640l-203 413h265l94 -413h-156z" />
    <glyph glyph-name="acutecomb" unicode="&#x301;" horiz-adv-x="0" 
d="M50 1640l94 413h265l-203 -413h-156z" />
    <glyph glyph-name="uni0302" unicode="&#x302;" horiz-adv-x="0" 
d="M50 1640l189 337h302l188 -337h-253l-86 236l-86 -236h-254z" />
    <glyph glyph-name="tildecomb" unicode="&#x303;" horiz-adv-x="0" 
d="M538 1640q-44 0 -94 20.5t-99 41t-91 20.5q-16 0 -23 -2q-16 -4 -26.5 -18.5t-24.5 -40.5l-130 52q20 68 48 107.5t64 57t80 17.5q41 0 95.5 -18.5t104.5 -37t75 -18.5h4q14 2 27 14t29 57l142 -28l-9 -48q-22 -103 -63.5 -139.5t-108.5 -36.5z" />
    <glyph glyph-name="uni0304" unicode="&#x304;" horiz-adv-x="0" 
d="M50 1690v182h556v-182h-556z" />
    <glyph glyph-name="uni0306" unicode="&#x306;" horiz-adv-x="0" 
d="M331 1640q-139 0 -210 66t-71 196v15h150q0 -82 39 -107t94 -25q53 0 91.5 24t38.5 108h151v-13q0 -131 -69.5 -197.5t-213.5 -66.5z" />
    <glyph glyph-name="uni0307" unicode="&#x307;" horiz-adv-x="0" 
d="M50 1638v230h267v-230h-267z" />
    <glyph glyph-name="uni0308" unicode="&#x308;" horiz-adv-x="0" 
d="M534 1640v226h282v-226h-282zM50 1640v226h282v-226h-282z" />
    <glyph glyph-name="uni030A" unicode="&#x30a;" horiz-adv-x="0" 
d="M283 1640q-109 0 -171 64t-62 160q0 95 62 159.5t171 64.5q110 0 171.5 -64.5t61.5 -159.5t-61.5 -159.5t-171.5 -64.5zM284 1734q60 0 89.5 41t29.5 90t-29.5 89.5t-89.5 40.5q-59 0 -89 -40.5t-30 -89.5t30 -90t89 -41z" />
    <glyph glyph-name="uni030B" unicode="&#x30b;" horiz-adv-x="0" 
d="M497 1640l-123 53l206 412l191 -103zM173 1640l-123 53l169 412l187 -103z" />
    <glyph glyph-name="uni030C" unicode="&#x30c;" horiz-adv-x="0" 
d="M239 1640l-189 338h254l86 -237l86 237h253l-188 -338h-302z" />
    <glyph glyph-name="uni030F" unicode="&#x30f;" horiz-adv-x="0" 
d="M324 1640l-274 362l191 103l206 -412zM648 1640l-233 362l187 103l169 -412z" />
    <glyph glyph-name="uni0311" unicode="&#x311;" horiz-adv-x="0" 
d="M50 1640v13q-1 131 68 198t213 68q140 2 211.5 -63.5t72.5 -195.5v-15l-151 -1q-1 83 -39.5 105.5t-94.5 21.5q-53 -1 -91.5 -23.5t-37.5 -107.5h-151z" />
    <glyph glyph-name="uni0312" unicode="&#x312;" horiz-adv-x="0" 
d="M263 2189l-55 -304h115v-263h-273v254l92 313h121z" />
    <glyph glyph-name="uni0326" unicode="&#x326;" horiz-adv-x="0" 
d="M110 -689l55 304h-115v263h273v-254l-92 -313h-121z" />
    <glyph glyph-name="uni0327" unicode="&#x327;" horiz-adv-x="0" 
d="M199 -638q-78 0 -149 26v111q95 0 144.5 20t68 52.5t18.5 69.5q0 68 -49 109t-111 54l40 196h82l15 -141q113 -39 170.5 -107t57.5 -148q0 -63 -33.5 -118t-97.5 -89.5t-156 -34.5z" />
    <glyph glyph-name="uni0328" unicode="&#x328;" horiz-adv-x="0" 
d="M335 -626q-93 0 -156.5 30t-96 85t-32.5 129q0 97 66.5 202.5t199.5 179.5h107q-76 -79 -128 -168.5t-52 -170.5q0 -66 42 -97.5t110 -31.5q38 0 68.5 6.5t40.5 8.5v-138q-17 -10 -67.5 -22.5t-101.5 -12.5z" />
    <glyph glyph-name="uni0335" unicode="&#x335;" horiz-adv-x="0" 
d="M50 1590v109h550v-109h-550z" />
    <glyph glyph-name="uni0394" unicode="&#x394;" horiz-adv-x="921" 
d="M34 0l243 1760h364l246 -1760h-853zM306 180h306l-137 1351h-32z" />
    <glyph glyph-name="uni03BC" unicode="&#x3bc;" horiz-adv-x="1022" 
d="M122 -186v1686h266v-1119q0 -86 21 -134t88 -48q47 0 73 25t37.5 66.5t11.5 88.5v1121h264v-1500h-265v156q-28 -76 -81 -125.5t-148 -49.5q-33 0 -66 4.5t-69 11.5l125 105v-288h-257z" />
    <glyph glyph-name="uni1E02" unicode="&#x1e02;" horiz-adv-x="984" 
d="M132 0v1760h381q133 0 212 -40.5t114.5 -128t35.5 -229.5v-54q0 -137 -35.5 -225.5t-118.5 -123.5q69 -23 110.5 -82.5t59.5 -145t18 -187.5v-45q-1 -176 -41 -286.5t-125 -161.5t-222 -51h-389zM400 208h95q53 0 84.5 23.5t45.5 78.5t14 150v142q0 128 -24.5 186.5
t-101.5 58.5h-113v-639zM400 1048h99q35 0 57 10t34 34.5t16.5 68.5t4.5 112v106q0 71 -13 108t-39.5 50t-68.5 13h-90v-502zM358 1898v230h267v-230h-267z" />
    <glyph glyph-name="uni1E03" unicode="&#x1e03;" horiz-adv-x="998" 
d="M608 -15q-67 0 -121.5 36.5t-86.5 118.5v-140h-265v1775h265v-383q23 59 78 92t110 34q119 2 184 -55.5t90.5 -159.5t25.5 -234v-635q0 -127 -25 -229t-86 -161t-169 -59zM519 197q69 0 86 66.5t17 195.5v614q0 68 -6.5 120t-27.5 81.5t-67 29.5q-41 0 -68 -20t-40 -70
t-13 -140v-618q0 -124 21.5 -191.5t97.5 -67.5zM135 1913v230h267v-230h-267z" />
    <glyph glyph-name="uni1E0A" unicode="&#x1e0a;" horiz-adv-x="1008" 
d="M132 0v1760h395q134 0 215 -53.5t117.5 -154.5t36.5 -244l1 -794q0 -173 -37.5 -287.5t-120.5 -170.5t-221 -56h-386zM400 208h88q47 0 78.5 19t47 67.5t15.5 137.5l-1 869q0 135 -33 194t-116 59h-79v-1346zM340 1898v230h267v-230h-267z" />
    <glyph glyph-name="uni1E0B" unicode="&#x1e0b;" horiz-adv-x="998" 
d="M386 -15q-122 0 -181 65.5t-77 177.5t-18 251v611q0 121 29 217.5t94.5 153.5t173.5 57q64 0 115 -30.5t79 -80.5v368h265v-1775h-265v139q-30 -76 -84 -115t-131 -39zM484 196q48 0 73.5 28.5t35 88t9.5 150.5v600q0 110 -21.5 175t-92.5 65q-68 0 -89.5 -63.5
t-21.5 -179.5v-617q0 -77 9.5 -132.5t32.5 -85t65 -29.5zM595 1913v230h267v-230h-267z" />
    <glyph glyph-name="uni1E1E" unicode="&#x1e1e;" horiz-adv-x="791" 
d="M132 0v1760h604v-233h-336v-468h312v-234h-312v-825h-268zM292 1898v230h267v-230h-267z" />
    <glyph glyph-name="uni1E1F" unicode="&#x1e1f;" horiz-adv-x="660" 
d="M182 0v1250h-116v191h117v78q0 126 65 195.5t186 69.5q62 0 107.5 -9.5t57.5 -14.5v-167q-29 4 -60 4q-51 0 -71.5 -21t-20.5 -65v-70h152v-191h-152v-1250h-265zM266 1913v230h267v-230h-267z" />
    <glyph glyph-name="uni1E40" unicode="&#x1e40;" horiz-adv-x="1418" 
d="M132 0v1760h333l250 -1286l235 1286h335v-1760h-239v656l10 602l-237 -1250h-213l-247 1250l10 -602v-656h-237zM575 1898v230h267v-230h-267z" />
    <glyph glyph-name="uni1E41" unicode="&#x1e41;" horiz-adv-x="1504" 
d="M131 0v1500h265v-163q22 80 80.5 130.5t159.5 50.5q77 0 134 -34t88 -117q38 70 100 110.5t155 40.5q146 0 207 -98t61 -271v-1149h-264v1152q0 80 -27 114.5t-74 34.5q-60 0 -93.5 -41.5t-33.5 -121.5v-1138h-265v1154q0 67 -22.5 107t-75.5 40q-69 0 -99.5 -52.5
t-30.5 -124.5v-1124h-265zM618 1638v230h267v-230h-267z" />
    <glyph glyph-name="uni1E56" unicode="&#x1e56;" horiz-adv-x="943" 
d="M132 0v1760h404q105 0 174.5 -32t109.5 -95t57 -155.5t17 -213.5v-37q0 -170 -29.5 -289.5t-105.5 -181.5t-214 -62h-145v-694h-268zM400 915h92q59 0 88 30t38.5 99.5t9.5 185.5v34q-1 143 -25 216.5t-109 73.5h-94v-639zM338 1898v230h267v-230h-267z" />
    <glyph glyph-name="uni1E57" unicode="&#x1e57;" horiz-adv-x="998" 
d="M132 -285v1785h265v-135q29 74 91 112t125 38q115 0 174 -61.5t80 -167.5t21 -238v-547q0 -144 -20 -262t-84.5 -187.5t-196.5 -69.5q-61 0 -111 33t-79 76v-376h-265zM514 197q67 0 87 65.5t20 187.5v622q0 65 -6.5 117.5t-28.5 83.5t-70 31q-37 0 -63.5 -19t-41 -69
t-14.5 -143v-634q0 -115 22 -178.5t95 -63.5zM365 1638v230h267v-230h-267z" />
    <glyph glyph-name="uni1E60" unicode="&#x1e60;" horiz-adv-x="875" 
d="M453 -20q-110 0 -183.5 34.5t-116 101t-60.5 162t-18 217.5v157h254v-177q0 -142 24 -204t95 -62q48 0 72.5 22.5t33 72t8.5 129.5q0 99 -41.5 181t-125.5 170l-130 134q-54 56 -97.5 119t-69 140.5t-25.5 173.5q0 139 34 235t115 145.5t222 49.5q106 0 174.5 -32.5
t107 -95t54.5 -152t16 -204.5v-109h-247v126q0 80 -8.5 133t-31.5 79.5t-67 26.5q-42 0 -68 -18.5t-37.5 -57t-11.5 -99.5q0 -55 14 -95t43 -77t72 -83l145 -157q104 -112 162 -233t58 -270q0 -158 -34 -265.5t-114 -162.5t-218 -55zM304 1898v230h267v-230h-267z" />
    <glyph glyph-name="uni1E61" unicode="&#x1e61;" horiz-adv-x="862" 
d="M442 -19q-181 0 -269 103t-88 337v97h249v-121q0 -98 24 -149t78 -51q52 0 77 35t25 121q0 50 -14.5 97t-45 92.5t-78.5 88.5l-135 122q-93 84 -139 181.5t-46 215.5q0 191 89.5 279.5t265.5 88.5q114 0 189 -42.5t112 -137.5t37 -255v-82h-237v99q0 99 -22.5 150
t-76.5 51q-53 0 -78 -29.5t-27 -103.5q-1 -40 10 -78.5t34.5 -75t61.5 -71.5l142 -129q112 -101 165.5 -211t53.5 -238q0 -189 -86 -286.5t-271 -97.5zM297 1638v230h267v-230h-267z" />
    <glyph glyph-name="uni1E6A" unicode="&#x1e6a;" horiz-adv-x="707" 
d="M224 0v1528h-206v232h671v-232h-198v-1528h-267zM220 1898v230h267v-230h-267z" />
    <glyph glyph-name="uni1E6B" unicode="&#x1e6b;" horiz-adv-x="638" 
d="M402 -10q-96 0 -147 24.5t-70 77.5t-19 137v1048h-122v192h122v291h265v-291h146v-192h-146v-1002q0 -35 11 -53t43.5 -24t96.5 -6v-202h-180zM164 1898v230h267v-230h-267z" />
    <glyph glyph-name="Wgrave" unicode="&#x1e80;" horiz-adv-x="1360" 
d="M261 0l-215 1760h240l129 -1254l164 1254h216l165 -1254l114 1254h241l-202 -1760h-267l-156 1170l-162 -1170h-267zM673 1900l-203 413h265l94 -413h-156z" />
    <glyph glyph-name="wgrave" unicode="&#x1e81;" horiz-adv-x="1258" 
d="M250 0l-201 1500h223l76 -633l34 -322h6l33 323l89 632h75h104h57l98 -620l42 -335h6l29 334l67 621h222l-190 -1500h-232l-152 1127l-162 -1127h-224zM622 1640l-203 413h265l94 -413h-156z" />
    <glyph glyph-name="Wacute" unicode="&#x1e82;" horiz-adv-x="1360" 
d="M261 0l-215 1760h240l129 -1254l164 1254h216l165 -1254l114 1254h241l-202 -1760h-267l-156 1170l-162 -1170h-267zM531 1900l94 413h265l-203 -413h-156z" />
    <glyph glyph-name="wacute" unicode="&#x1e83;" horiz-adv-x="1258" 
d="M250 0l-201 1500h223l76 -633l34 -322h6l33 323l89 632h75h104h57l98 -620l42 -335h6l29 334l67 621h222l-190 -1500h-232l-152 1127l-162 -1127h-224zM480 1640l94 413h265l-203 -413h-156z" />
    <glyph glyph-name="Wdieresis" unicode="&#x1e84;" horiz-adv-x="1360" 
d="M261 0l-215 1760h240l129 -1254l164 1254h216l165 -1254l114 1254h241l-202 -1760h-267l-156 1170l-162 -1170h-267zM781 1900v226h282v-226h-282zM297 1900v226h282v-226h-282z" />
    <glyph glyph-name="wdieresis" unicode="&#x1e85;" horiz-adv-x="1258" 
d="M250 0l-201 1500h223l76 -633l34 -322h6l33 323l89 632h75h104h57l98 -620l42 -335h6l29 334l67 621h222l-190 -1500h-232l-152 1127l-162 -1127h-224zM730 1640v226h282v-226h-282zM246 1640v226h282v-226h-282z" />
    <glyph glyph-name="Ygrave" unicode="&#x1ef2;" horiz-adv-x="878" 
d="M312 0v703l-295 1057h256l174 -658h4l155 658h255l-281 -1057v-703h-268zM432 1900l-203 413h265l94 -413h-156z" />
    <glyph glyph-name="ygrave" unicode="&#x1ef3;" horiz-adv-x="859" 
d="M89 -265v183h87q44 0 74 7.5t34 32.5q7 13 5 46.5t-6 63.5l-240 1432h252l96 -767l40 -404h22l36 404l88 767h251l-260 -1564q-11 -71 -30.5 -115.5t-58.5 -65t-108 -20.5h-282zM423 1640l-203 413h265l94 -413h-156z" />
    <glyph glyph-name="endash" unicode="&#x2013;" horiz-adv-x="756" 
d="M120 509v232h516v-232h-516z" />
    <glyph glyph-name="emdash" unicode="&#x2014;" horiz-adv-x="1153" 
d="M60 509v232h1032v-232h-1032z" />
    <glyph glyph-name="quoteleft" unicode="&#x2018;" horiz-adv-x="586" 
d="M119 1065v271l136 439h153l-93 -430h153v-280h-349z" />
    <glyph glyph-name="quoteright" unicode="&#x2019;" horiz-adv-x="586" 
d="M188 1065l94 429h-153v281h349v-272l-136 -438h-154z" />
    <glyph glyph-name="quotesinglbase" unicode="&#x201a;" horiz-adv-x="484" 
d="M138 -324l78 324h-136v258h331v-249l-109 -333h-164z" />
    <glyph glyph-name="quotedblleft" unicode="&#x201c;" horiz-adv-x="1030" 
d="M606 1141v253l110 381h164l-78 -372h135v-262h-331zM140 1141v253l110 381h164l-78 -372h135v-262h-331z" />
    <glyph glyph-name="quotedblright" unicode="&#x201d;" horiz-adv-x="1077" 
d="M678 1141l78 372h-135v262h331v-253l-110 -381h-164zM212 1141l78 372h-135v262h331v-253l-110 -381h-164z" />
    <glyph glyph-name="quotedblbase" unicode="&#x201e;" horiz-adv-x="1016" 
d="M674 -373l78 373h-135v261h330v-253l-109 -381h-164zM208 -373l78 373h-135v261h330v-253l-109 -381h-164z" />
    <glyph glyph-name="dagger" unicode="&#x2020;" horiz-adv-x="909" 
d="M321 0v965h-230v217h230v410h270v-410h227v-217h-227v-965h-270z" />
    <glyph glyph-name="daggerdbl" unicode="&#x2021;" horiz-adv-x="909" 
d="M321 0v447h-230v217h230v301h-230v217h230v410h270v-410h227v-217h-227v-301h227v-217h-227v-447h-270z" />
    <glyph glyph-name="bullet" unicode="&#x2022;" horiz-adv-x="861" 
d="M430 451q-128 0 -196.5 77.5t-68.5 212.5t68.5 212.5t196.5 77.5t197 -77.5t69 -212.5t-69 -212.5t-197 -77.5z" />
    <glyph glyph-name="uni2026" unicode="&#x2026;" horiz-adv-x="1188" 
d="M149 0v246h225v-246h-225zM477 0v246h225v-246h-225zM805 0v246h225v-246h-225z" />
    <glyph glyph-name="perthousand" unicode="&#x2030;" horiz-adv-x="3107" 
d="M662 0l685 1760h204l-676 -1760h-213zM468 580q-118 0 -193 45.5t-110 139.5t-35 240v358q0 148 33.5 240t108 135t196.5 43q123 0 197 -43t107.5 -135t33.5 -240v-358q0 -146 -35 -240t-109.5 -139.5t-193.5 -45.5zM468 768q65 0 88.5 41.5t23.5 129.5v492q0 87 -22 125
t-90 38q-67 0 -89.5 -38.5t-22.5 -124.5v-492q0 -88 23.5 -129.5t88.5 -41.5zM1752 -21q-119 0 -193.5 45.5t-109.5 139.5t-35 240v358q0 148 33.5 240t108 135t196.5 43q123 0 197 -43t107.5 -135t33.5 -240v-358q0 -146 -35 -240t-109.5 -139.5t-193.5 -45.5zM1752 167
q65 0 88.5 41.5t23.5 129.5v492q0 87 -22 125t-90 38q-67 0 -89.5 -38.5t-22.5 -124.5v-492q0 -88 23.5 -129.5t88.5 -41.5zM2639 -21q-118 0 -193 45.5t-110 139.5t-35 240v358q0 148 33.5 240t108 135t196.5 43q123 0 197.5 -43t108 -135t33.5 -240v-358q0 -146 -35 -240
t-110 -139.5t-194 -45.5zM2639 167q65 0 89 41.5t24 129.5v492q0 87 -22.5 125t-90.5 38q-67 0 -89.5 -38.5t-22.5 -124.5v-492q0 -88 24 -129.5t88 -41.5z" />
    <glyph glyph-name="guilsinglleft" unicode="&#x2039;" horiz-adv-x="606" 
d="M548 327l-491 285v275l491 271v-268l-312 -141l312 -150v-272z" />
    <glyph glyph-name="guilsinglright" unicode="&#x203a;" horiz-adv-x="727" 
d="M139 327v272l312 150l-312 141v268l491 -271v-275z" />
    <glyph glyph-name="fraction" unicode="&#x2044;" horiz-adv-x="829" 
d="M57 0l469 1767h220l-470 -1767h-219z" />
    <glyph glyph-name="uni2074" unicode="&#x2074;" horiz-adv-x="852" 
d="M477 605v206h-327v129l249 820h263v-800h74v-149h-74v-206h-185zM322 960h155v559z" />
    <glyph glyph-name="Euro" unicode="&#x20ac;" horiz-adv-x="999" 
d="M53 725v144h141v97h-141v136h525v-136h-244v-97h244v-144h-525zM523 -20q-128 0 -213 59t-127.5 172.5t-42.5 274.5v767q0 121 20 218t65 166t120 106t185 37q100 0 170.5 -32.5t115 -93.5t65 -147.5t20.5 -194.5v-242h-259v225q0 130 -22 191.5t-88 61.5
q-73 0 -97.5 -66.5t-24.5 -185.5v-822q0 -92 10.5 -150.5t35.5 -86t70 -27.5q68 0 92 64t24 203v252h263v-249q0 -167 -39 -278.5t-123.5 -166.5t-219.5 -55z" />
    <glyph glyph-name="trademark" unicode="&#x2122;" horiz-adv-x="1676" 
d="M694 507v1253h287l148 -877l144 877h288v-1253h-188v489l7 473l-157 -962h-185l-165 962l7 -473v-489h-186zM231 507v1085h-149v168h490v-168h-143v-1085h-198z" />
    <glyph glyph-name="partialdiff" unicode="&#x2202;" horiz-adv-x="1072" 
d="M453 -26q-78 0 -144 35.5t-106 104.5t-40 170q0 157 19 298t60 250.5t106 172.5t156 63q37 0 83.5 -8.5t97.5 -25.5q17 101 26.5 168t9.5 102q0 70 -23.5 108t-62.5 53t-87 15q-42 0 -87 -7.5t-88 -16.5l-34 161q60 17 122 27.5t121 10.5q95 0 174.5 -33.5t127 -112
t47.5 -214.5q0 -21 -2 -47.5t-8 -74t-19 -131.5l-122 -796q-14 -92 -65.5 -152.5t-122 -90t-139.5 -29.5zM459 175q50 0 71.5 37t29.5 89l87 578q-26 11 -47.5 16.5t-39.5 5.5q-50 0 -83.5 -55t-53.5 -143t-28.5 -190.5t-8.5 -198.5q0 -47 6 -78t21.5 -46t45.5 -15z" />
    <glyph glyph-name="product" unicode="&#x220f;" horiz-adv-x="1033" 
d="M136 0v1760h760v-1760h-262v1543h-235v-1543h-263z" />
    <glyph glyph-name="summation" unicode="&#x2211;" horiz-adv-x="814" 
d="M114 0v221l275 660l-275 674v205h597v-209h-324l259 -671l-259 -655h324v-225h-597z" />
    <glyph glyph-name="minus" unicode="&#x2212;" horiz-adv-x="637" 
d="M60 509v232h516v-232h-516z" />
    <glyph glyph-name="uni2215" unicode="&#x2215;" horiz-adv-x="829" 
d="M57 0l469 1767h220l-470 -1767h-219z" />
    <glyph glyph-name="radical" unicode="&#x221a;" horiz-adv-x="1267" 
d="M288 0l-189 741h259l74 -453l228 1472h512v-200h-296l-264 -1560h-324z" />
    <glyph glyph-name="infinity" unicode="&#x221e;" horiz-adv-x="1300" 
d="M912 439q-94 0 -162 45.5t-111 100.5q-42 -47 -113.5 -90t-155.5 -43q-130 0 -196 78.5t-66 213.5q0 132 67.5 208t194.5 76q71 0 138 -36t131 -107q63 78 131.5 117t141.5 39q132 0 201 -80t69 -217q0 -139 -68 -222t-202 -83zM433 669q35 0 71 18t73 53
q-36 35 -72 52.5t-72 17.5q-44 0 -66.5 -17.5t-22.5 -52.5t22.5 -53t66.5 -18zM853 669q47 0 71 18t24 53t-24 53t-71 18q-38 0 -76 -18t-76 -53q35 -35 73.5 -53t78.5 -18z" />
    <glyph glyph-name="integral" unicode="&#x222b;" horiz-adv-x="767" 
d="M290 -17q-97 0 -175 25v178q14 -1 26 -2.5t22 -1.5q42 0 61 12t24.5 39t5.5 72v1234q0 244 215 244q100 0 183 -31v-178q-23 6 -41.5 9.5t-32.5 3.5q-41 0 -54.5 -25.5t-13.5 -77.5v-1263q0 -118 -53 -178t-167 -60z" />
    <glyph glyph-name="approxequal" unicode="&#x2248;" horiz-adv-x="1117" 
d="M277 831l-172 81q38 127 98.5 197t148.5 70q39 0 95 -15t114 -34t106.5 -34t72.5 -15q15 2 42 26.5t45 85.5l187 -42q-8 -31 -29.5 -85.5t-54.5 -111t-73.5 -96t-85.5 -39.5q-57 0 -130 26t-144.5 52.5t-124.5 26.5q-56 0 -95 -93zM277 338l-172 81q38 127 98.5 197
t148.5 70q39 0 95 -15t114 -34t106.5 -34t72.5 -15q15 2 42 26.5t45 85.5l187 -42q-8 -31 -29.5 -85.5t-54.5 -111t-73.5 -96t-85.5 -39.5q-57 0 -130 26.5t-144.5 52.5t-124.5 26q-56 0 -95 -93z" />
    <glyph glyph-name="notequal" unicode="&#x2260;" horiz-adv-x="884" 
d="M154 0l101 559h-152v232h194l28 151h-222v224h262l109 599h249l-112 -599h171v-224h-213l-29 -151h242v-232h-285l-105 -559h-238z" />
    <glyph glyph-name="lessequal" unicode="&#x2264;" horiz-adv-x="781" 
d="M656 286l-574 369v292l574 365v-275l-397 -236l397 -243v-272zM112 0v179h530v-179h-530z" />
    <glyph glyph-name="greaterequal" unicode="&#x2265;" horiz-adv-x="781" 
d="M107 286v272l396 243l-396 236v275l574 -365v-292zM118 0v179h531v-179h-531z" />
    <glyph glyph-name="lozenge" unicode="&#x25ca;" horiz-adv-x="921" 
d="M277 0l-243 875l243 887h371l239 -887l-239 -875h-371zM443 220h32l134 655l-134 655h-32l-134 -655z" />
    <glyph glyph-name="uni030C.alt" horiz-adv-x="0" 
d="M140 1622l55 304h-115v263h273v-254l-92 -313h-121z" />
    </font>
</defs>
</svg>
